<svg id="Layer_1" data-name="Layer 1" xmlns="http://www.w3.org/2000/svg" viewBox="0 0 34 34"><defs><style>.cls-1{fill:#f8f7ff;}</style></defs><path class="cls-1" d="M21.72,10.67,11.38,18.16a5.51,5.51,0,0,1-5.4.6A17.62,17.62,0,0,0,.35,17.38a.38.38,0,0,1,0-.76A17.61,17.61,0,0,0,11.5,11.5,17.61,17.61,0,0,0,16.62.35a.38.38,0,0,1,.76,0A17.57,17.57,0,0,0,21.72,10.67Z"/><path class="cls-1" d="M33.65,17.38A17.65,17.65,0,0,0,17.38,33.65a.38.38,0,0,1-.76,0A17.62,17.62,0,0,0,15.24,28a5.51,5.51,0,0,1,.6-5.4l7.49-10.34a17.66,17.66,0,0,0,10.32,4.34A.38.38,0,0,1,33.65,17.38Z"/><path class="cls-1" d="M26.33,8.13l-3,4.15a17.47,17.47,0,0,1-1.61-1.61l4.15-3A.33.33,0,0,1,26.33,8.13Z"/><path class="cls-1" d="M20.81,11.33s.88-.65,1.48-.05.27-1.22.27-1.22-1,.51-1.45-.12l.61.73"/><path class="cls-1" d="M23.33,12.28l-.47-.43a1.49,1.49,0,0,1-.19,1.33C22.22,13.81,23.33,12.28,23.33,12.28Z"/><path class="cls-1" d="M23.88,11.52s-.46.89.23,1.4l-.78-.64Z"/><path class="cls-1" d="M27.25,6.79a2,2,0,0,1,.5.88.19.19,0,0,0,.33,0l.18-.17a1,1,0,0,0,.25-.41l.21-.69a.24.24,0,0,1,.06-.11,4.24,4.24,0,0,0,1.13-2,.15.15,0,0,0,0-.15.18.18,0,0,0-.15,0,4.31,4.31,0,0,0-2,1.14.24.24,0,0,1-.11.06l-.69.21a.93.93,0,0,0-.41.25L26.34,6c-.12.11-.11.29,0,.32A2.06,2.06,0,0,1,27.25,6.79Z"/></svg>