<?xml version="1.0" encoding="utf-8"?>
<!-- Generator: Adobe Illustrator 25.2.3, SVG Export Plug-In . SVG Version: 6.00 Build 0)  -->
<svg version="1.1" id="Layer_1" xmlns="http://www.w3.org/2000/svg" xmlns:xlink="http://www.w3.org/1999/xlink" x="0px" y="0px"
	 viewBox="0 0 138.3 256" style="enable-background:new 0 0 138.3 256;" xml:space="preserve">
<style type="text/css">
	.st0{clip-path:url(#SVGID_2_);}
	.st1{clip-path:url(#SVGID_4_);}
	.st2{fill:#AA044F;}
	.st3{fill:#AB044F;}
	.st4{fill:#AC0450;}
	.st5{fill:#AD0450;}
	.st6{fill:#AE0450;}
	.st7{fill:#AF0450;}
	.st8{fill:#B00451;}
	.st9{fill:#B10451;}
	.st10{fill:#B20451;}
	.st11{fill:#B30452;}
	.st12{fill:#B40452;}
	.st13{fill:#B50452;}
	.st14{fill:#B60452;}
	.st15{fill:#B70453;}
	.st16{fill:#B80453;}
	.st17{fill:#B90453;}
	.st18{fill:#BA0454;}
	.st19{fill:#BB0454;}
	.st20{fill:#BC0454;}
	.st21{fill:#BD0455;}
	.st22{fill:#BE0455;}
	.st23{fill:#BF0455;}
	.st24{fill:#C00455;}
	.st25{fill:#C10456;}
	.st26{fill:#C20456;}
	.st27{fill:#C30456;}
	.st28{fill:#C40457;}
	.st29{fill:#C50457;}
	.st30{fill:#C60457;}
	.st31{fill:#C70457;}
	.st32{fill:#C80458;}
	.st33{fill:#C90458;}
	.st34{fill:#CA0458;}
	.st35{fill:#CB0459;}
	.st36{fill:#CC0459;}
	.st37{fill:#CD0459;}
	.st38{fill:#CE0459;}
	.st39{fill:#CF045A;}
	.st40{fill:#D0045A;}
	.st41{fill:#D1045A;}
	.st42{fill:#D2045B;}
	.st43{fill:#D3045B;}
	.st44{fill:#D4045B;}
	.st45{fill:#D5035C;}
	.st46{fill:#D6035C;}
	.st47{fill:#D7035C;}
	.st48{fill:#D8035D;}
	.st49{fill:#D9035D;}
	.st50{fill:#DA035D;}
	.st51{fill:#DB035E;}
	.st52{fill:#DC035E;}
	.st53{fill:#DD035E;}
	.st54{fill:#DE035E;}
	.st55{fill:#DF035F;}
	.st56{fill:#E0035F;}
	.st57{fill:#E1035F;}
	.st58{fill:#E20360;}
	.st59{fill:#E30360;}
	.st60{fill:#E40360;}
	.st61{fill:#E50360;}
	.st62{fill:#E60361;}
	.st63{fill:#E70361;}
	.st64{fill:#E80361;}
	.st65{fill:#E90362;}
	.st66{fill:#EA0362;}
	.st67{fill:#EB0362;}
	.st68{fill:#EC0362;}
	.st69{fill:#ED0363;}
	.st70{fill:#EE0363;}
	.st71{fill:#EF0363;}
	.st72{fill:#F00364;}
	.st73{fill:#F10364;}
	.st74{fill:#F20364;}
	.st75{fill:#F30365;}
	.st76{fill:#F40365;}
	.st77{fill:#F50365;}
	.st78{fill:#F60365;}
	.st79{fill:#F70366;}
	.st80{fill:#F80366;}
	.st81{fill:#F90366;}
	.st82{fill:#FA0367;}
	.st83{fill:#FB0367;}
	.st84{fill:#FC0367;}
	.st85{fill:#FD0367;}
	.st86{fill:#FE0368;}
	.st87{fill:#FF0368;}
	.st88{fill:#FE0468;}
	.st89{fill:#FD0568;}
	.st90{fill:#FC0669;}
	.st91{fill:#FB0769;}
	.st92{fill:#FA0869;}
	.st93{fill:#F90969;}
	.st94{fill:#F80A6A;}
	.st95{fill:#F70B6A;}
	.st96{fill:#F60C6A;}
	.st97{fill:#F50D6A;}
	.st98{fill:#F40E6B;}
	.st99{fill:#F30E6B;}
	.st100{fill:#F20F6B;}
	.st101{fill:#F1106B;}
	.st102{fill:#F0116C;}
	.st103{fill:#EF126C;}
	.st104{fill:#EE136C;}
	.st105{fill:#ED146C;}
	.st106{fill:#EC156D;}
	.st107{fill:#EB166D;}
	.st108{fill:#EA176D;}
	.st109{fill:#E9186D;}
	.st110{fill:#E8196E;}
	.st111{fill:#E71A6E;}
	.st112{fill:#E61B6E;}
	.st113{fill:#E51C6E;}
	.st114{fill:#E41D6E;}
	.st115{fill:#E31E6F;}
	.st116{fill:#E21F6F;}
	.st117{fill:#E1206F;}
	.st118{fill:#E0216F;}
	.st119{fill:#DF2270;}
	.st120{fill:#DE2370;}
	.st121{fill:#DD2470;}
	.st122{fill:#DC2470;}
	.st123{fill:#DB2571;}
	.st124{fill:#DA2671;}
	.st125{fill:#D92771;}
	.st126{fill:#D82871;}
	.st127{fill:#D72972;}
	.st128{fill:#D62A72;}
	.st129{fill:#D52B72;}
	.st130{fill:#D42C72;}
	.st131{fill:#D32D73;}
	.st132{fill:#D22E73;}
	.st133{fill:#D12F73;}
	.st134{fill:#D03073;}
	.st135{fill:#CF3173;}
	.st136{fill:#CE3274;}
	.st137{fill:#CD3374;}
	.st138{fill:#CC3474;}
	.st139{fill:#CB3574;}
	.st140{fill:#CA3675;}
	.st141{fill:#C93775;}
	.st142{fill:#C83875;}
	.st143{fill:#C73975;}
	.st144{fill:#C63A76;}
	.st145{fill:#C53A76;}
	.st146{fill:#C43B76;}
	.st147{fill:#C33C76;}
	.st148{fill:#C23D77;}
	.st149{fill:#C13E77;}
	.st150{fill:#C03F77;}
	.st151{fill:#BF4077;}
	.st152{fill:#BE4178;}
	.st153{fill:#BD4278;}
	.st154{fill:#BC4378;}
	.st155{fill:#BB4478;}
	.st156{fill:#BA4579;}
	.st157{fill:#B94679;}
	.st158{fill:#B84779;}
	.st159{fill:#B74879;}
	.st160{fill:#B64979;}
	.st161{fill:#B54A7A;}
	.st162{fill:#B44B7A;}
	.st163{fill:#B34C7A;}
	.st164{fill:#B24D7A;}
	.st165{fill:#B14E7B;}
	.st166{fill:#B04F7B;}
	.st167{fill:#AF507B;}
	.st168{fill:#AE517B;}
	.st169{fill:#AD517C;}
	.st170{fill:#AC527C;}
	.st171{fill:#AB537C;}
	.st172{fill:#AA547C;}
	.st173{fill:#A9557D;}
	.st174{fill:#A8567D;}
	.st175{fill:#A7577D;}
	.st176{fill:#A6587D;}
	.st177{fill:#A5597E;}
	.st178{fill:#A45A7E;}
	.st179{fill:#A35B7E;}
	.st180{fill:#A25C7E;}
	.st181{fill:#A15D7E;}
	.st182{fill:#A05E7F;}
	.st183{fill:#9F5F7F;}
	.st184{fill:#9E607F;}
	.st185{fill:#9D617F;}
	.st186{fill:#9C6280;}
	.st187{fill:#9B6380;}
	.st188{fill:#9A6480;}
	.st189{fill:#996580;}
	.st190{fill:#986681;}
	.st191{fill:#976781;}
	.st192{fill:#966781;}
	.st193{fill:#956881;}
	.st194{fill:#946982;}
	.st195{fill:#936A82;}
	.st196{fill:#926B82;}
	.st197{fill:#916C82;}
	.st198{fill:#906D83;}
	.st199{fill:#8F6E83;}
	.st200{fill:#8E6F83;}
	.st201{fill:#55A691;}
	.st202{fill:#54A791;}
	.st203{fill:#53A891;}
	.st204{fill:#52A991;}
	.st205{fill:#51A992;}
	.st206{fill:#50AA92;}
	.st207{fill:#4FAB92;}
	.st208{fill:#4EAC92;}
	.st209{fill:#4DAD93;}
	.st210{fill:#4CAE93;}
	.st211{fill:#4BAF93;}
	.st212{fill:#4AB093;}
	.st213{fill:#49B194;}
	.st214{fill:#48B294;}
	.st215{fill:#47B394;}
	.st216{fill:#46B494;}
	.st217{fill:#45B594;}
	.st218{fill:#44B695;}
	.st219{fill:#43B795;}
	.st220{fill:#42B895;}
	.st221{fill:#41B995;}
	.st222{fill:#40BA96;}
	.st223{fill:#3FBB96;}
	.st224{fill:#3EBC96;}
	.st225{fill:#3DBD96;}
	.st226{fill:#3CBE97;}
	.st227{fill:#3BBF97;}
	.st228{fill:#3AC097;}
	.st229{fill:#39C097;}
	.st230{fill:#38C198;}
	.st231{fill:#37C298;}
	.st232{fill:#36C398;}
	.st233{fill:#35C498;}
	.st234{fill:#34C599;}
	.st235{fill:#33C699;}
	.st236{fill:#32C799;}
	.st237{fill:#31C899;}
	.st238{fill:#30C99A;}
	.st239{fill:#2FCA9A;}
	.st240{fill:#2ECB9A;}
	.st241{fill:#2DCC9A;}
	.st242{fill:#2CCD9A;}
	.st243{fill:#2BCE9B;}
	.st244{fill:#2ACF9B;}
	.st245{fill:#29D09B;}
	.st246{fill:#28D19B;}
	.st247{fill:#27D29C;}
	.st248{fill:#26D39C;}
	.st249{fill:#25D49C;}
	.st250{fill:#24D59C;}
	.st251{fill:#23D69D;}
	.st252{fill:#22D69D;}
	.st253{fill:#21D79D;}
	.st254{fill:#20D89D;}
	.st255{fill:#1FD99E;}
	.st256{fill:#1EDA9E;}
</style>
<g>
	<defs>
		<path id="SVGID_1_" d="M92.3,109.7c-34.6-16-39.9-18.4-39.9-27c0-9.3,8.3-14.9,16.4-14.9c8.7,0,12.7,4.2,14.8,9
			c0.5,1.1,1.7,1.6,2.8,1.3L129,67.6c1.2-0.3,2-1.5,1.8-2.8c-3.6-21.3-21.8-31.5-30.2-35.2c-1.7-0.7-3.4-1.3-5.1-1.9V2.9
			c0-1.6-1.3-2.9-2.9-2.9H48.1c-1.6,0-2.9,1.3-2.9,2.9v25C21.4,36,1.6,55.8,1.6,85.9c0,37.9,34.9,52.4,48.1,57.8l2.3,1
			c27.9,12,35.4,15.3,35.4,25c0,8.8-7,18.4-18.3,18.4c-2.5,0-14-0.8-18.1-15c-0.3-1.2-1.6-2-2.8-1.7l-45.8,9.5
			c-1.3,0.3-2.2,1.6-1.9,2.9c0,0,0,0.1,0,0.1c3.9,16.1,11.8,26,17.1,31.2c7.3,6.9,16.6,11.7,27.6,14.4v23.7c0,1.6,1.3,2.9,2.9,2.9
			h44.5c1.6,0,2.9-1.3,2.9-2.9V229c13.8-3.8,24.5-11.1,31.7-21.7c9.6-14.1,11.1-30.9,11.1-39.7C138.4,141.2,125.4,125,92.3,109.7z"
			/>
	</defs>
	<clipPath id="SVGID_2_">
		<use xlink:href="#SVGID_1_"  style="overflow:visible;"/>
	</clipPath>
	<g class="st0">
		<g id="Ball">
			<g>
				<defs>
					<circle id="SVGID_3_" cx="69.4" cy="128" r="181.4"/>
				</defs>
				<clipPath id="SVGID_4_">
					<use xlink:href="#SVGID_3_"  style="overflow:visible;"/>
				</clipPath>
				<g class="st1">
					<circle class="st2" cx="10.2" cy="11.2" r="77.2"/>
					<circle class="st3" cx="0" cy="21.3" r="77.2"/>
					<circle class="st4" cx="-9.7" cy="31.2" r="77.2"/>
					<circle class="st5" cx="-18.9" cy="40.8" r="77.2"/>
					<circle class="st6" cx="-27.4" cy="50.2" r="77.2"/>
					<circle class="st7" cx="-35.2" cy="59.3" r="77.2"/>
					<circle class="st8" cx="-42.3" cy="67.9" r="77.2"/>
					<circle class="st9" cx="-48.4" cy="76.2" r="77.2"/>
					<circle class="st10" cx="-53.6" cy="83.9" r="77.2"/>
					<circle class="st11" cx="-57.8" cy="91.1" r="77.2"/>
					<circle class="st12" cx="-60.9" cy="97.7" r="77.2"/>
					<circle class="st13" cx="-62.8" cy="103.7" r="77.2"/>
					<circle class="st14" cx="-63.4" cy="108.9" r="77.2"/>
					<circle class="st15" cx="-62.6" cy="113.4" r="77.2"/>
					<circle class="st16" cx="-59.9" cy="117.7" r="77.2"/>
					<circle class="st17" cx="-54.4" cy="121.3" r="77.2"/>
					<circle class="st18" cx="-46.7" cy="123.4" r="77.2"/>
					<circle class="st19" cx="-37.4" cy="124" r="77.2"/>
					<circle class="st20" cx="-27.1" cy="123.1" r="77.2"/>
					<circle class="st21" cx="-16.1" cy="120.8" r="77.2"/>
					<circle class="st22" cx="-5.2" cy="117.1" r="77.2"/>
					<circle class="st23" cx="5.4" cy="112" r="77.2"/>
					<circle class="st24" cx="15.5" cy="105.1" r="77.2"/>
					<circle class="st25" cx="24.1" cy="96.9" r="77.2"/>
					<circle class="st26" cx="31.3" cy="87.8" r="77.2"/>
					<circle class="st27" cx="37.2" cy="77.9" r="77.2"/>
					<circle class="st28" cx="42" cy="67.5" r="77.2"/>
					<circle class="st29" cx="45.8" cy="56.9" r="77.2"/>
					<circle class="st30" cx="48.9" cy="46.1" r="77.2"/>
					<circle class="st31" cx="51.5" cy="35.5" r="77.2"/>
					<circle class="st32" cx="53.7" cy="25.1" r="77.2"/>
					<circle class="st33" cx="55.7" cy="15.4" r="77.2"/>
					<circle class="st34" cx="57.7" cy="6.3" r="77.2"/>
					<circle class="st35" cx="59.9" cy="-1.7" r="77.2"/>
					<circle class="st36" cx="62.5" cy="-8.6" r="77.2"/>
					<circle class="st37" cx="65.6" cy="-14.1" r="77.2"/>
					<circle class="st38" cx="69.5" cy="-17.9" r="77.2"/>
					<circle class="st39" cx="74.3" cy="-20" r="77.2"/>
					<circle class="st40" cx="79.8" cy="-20.1" r="77.2"/>
					<circle class="st41" cx="85.8" cy="-18.4" r="77.2"/>
					<circle class="st42" cx="92.3" cy="-15.1" r="77.2"/>
					<circle class="st43" cx="99.1" cy="-10.3" r="77.2"/>
					<circle class="st44" cx="106" cy="-4.2" r="77.2"/>
					<circle class="st44" cx="113" cy="3.1" r="77.2"/>
					<circle class="st45" cx="119.9" cy="11.3" r="77.2"/>
					<circle class="st46" cx="126.5" cy="20.3" r="77.2"/>
					<circle class="st47" cx="132.8" cy="30" r="77.2"/>
					<circle class="st48" cx="138.6" cy="40.2" r="77.2"/>
					<circle class="st49" cx="143.7" cy="50.7" r="77.2"/>
					<circle class="st50" cx="148" cy="61.3" r="77.2"/>
					<circle class="st51" cx="151.5" cy="71.9" r="77.2"/>
					<circle class="st52" cx="153.9" cy="82.4" r="77.2"/>
					<circle class="st53" cx="155.2" cy="92.5" r="77.2"/>
					<circle class="st54" cx="155.1" cy="102.1" r="77.2"/>
					<circle class="st55" cx="153.6" cy="111" r="77.2"/>
					<circle class="st56" cx="150.6" cy="119.1" r="77.2"/>
					<circle class="st57" cx="146" cy="125.9" r="77.2"/>
					<circle class="st58" cx="140.4" cy="131.2" r="77.2"/>
					<circle class="st59" cx="133.6" cy="135.3" r="77.2"/>
					<circle class="st60" cx="125.9" cy="138.3" r="77.2"/>
					<circle class="st61" cx="117.3" cy="140.4" r="77.2"/>
					<circle class="st62" cx="108" cy="141.6" r="77.2"/>
					<circle class="st63" cx="98" cy="142.1" r="77.2"/>
					<circle class="st64" cx="87.5" cy="142.1" r="77.2"/>
					<circle class="st65" cx="76.6" cy="141.6" r="77.2"/>
					<circle class="st66" cx="65.4" cy="140.8" r="77.2"/>
					<circle class="st67" cx="54.1" cy="139.9" r="77.2"/>
					<circle class="st68" cx="42.7" cy="138.9" r="77.2"/>
					<circle class="st69" cx="31.3" cy="137.9" r="77.2"/>
					<circle class="st70" cx="20.1" cy="137.2" r="77.2"/>
					<circle class="st71" cx="9.2" cy="136.8" r="77.2"/>
					<circle class="st72" cx="-1.3" cy="136.9" r="77.2"/>
					<circle class="st73" cx="-11.3" cy="137.5" r="77.2"/>
					<circle class="st74" cx="-20.7" cy="138.9" r="77.2"/>
					<circle class="st75" cx="-29.3" cy="141.2" r="77.2"/>
					<circle class="st76" cx="-37.1" cy="144.4" r="77.2"/>
					<circle class="st77" cx="-43.9" cy="148.7" r="77.2"/>
					<circle class="st78" cx="-49.7" cy="154.3" r="77.2"/>
					<circle class="st79" cx="-54.2" cy="161.2" r="77.2"/>
					<circle class="st80" cx="-57.3" cy="169.2" r="77.2"/>
					<circle class="st81" cx="-59" cy="177.9" r="77.2"/>
					<circle class="st82" cx="-59.4" cy="187.3" r="77.2"/>
					<circle class="st83" cx="-58.7" cy="197.2" r="77.2"/>
					<circle class="st84" cx="-56.9" cy="207.4" r="77.2"/>
					<circle class="st85" cx="-54.1" cy="217.7" r="77.2"/>
					<circle class="st86" cx="-50.5" cy="228" r="77.2"/>
					<circle class="st87" cx="-46.8" cy="236.4" r="77.2"/>
					<circle class="st88" cx="-44.1" cy="242" r="77.2"/>
					<circle class="st89" cx="-42.1" cy="245.8" r="77.2"/>
					<circle class="st90" cx="-40" cy="249.5" r="77.2"/>
					<circle class="st91" cx="-37.8" cy="253.2" r="77.2"/>
					<circle class="st92" cx="-35.5" cy="256.7" r="77.2"/>
					<circle class="st93" cx="-33.2" cy="260.2" r="77.2"/>
					<circle class="st94" cx="-30.7" cy="263.5" r="77.2"/>
					<circle class="st95" cx="-28.3" cy="266.8" r="77.2"/>
					<circle class="st96" cx="-25.7" cy="269.9" r="77.2"/>
					<circle class="st97" cx="-23.1" cy="272.8" r="77.2"/>
					<circle class="st98" cx="-20.5" cy="275.6" r="77.2"/>
					<circle class="st99" cx="-17.8" cy="278.3" r="77.2"/>
					<circle class="st100" cx="-15.1" cy="280.8" r="77.2"/>
					<circle class="st101" cx="-12.4" cy="283.2" r="77.2"/>
					<circle class="st102" cx="-9.6" cy="285.3" r="77.2"/>
					<circle class="st103" cx="-6.8" cy="287.3" r="77.2"/>
					<circle class="st104" cx="-4" cy="289" r="77.2"/>
					<circle class="st105" cx="-1.2" cy="290.6" r="77.2"/>
					<circle class="st106" cx="1.6" cy="291.9" r="77.2"/>
					<circle class="st107" cx="4.4" cy="293" r="77.2"/>
					<circle class="st108" cx="7.2" cy="293.9" r="77.2"/>
					<circle class="st109" cx="10" cy="294.5" r="77.2"/>
					<circle class="st110" cx="12.7" cy="294.9" r="77.2"/>
					<circle class="st111" cx="15.4" cy="295" r="77.2"/>
					<circle class="st112" cx="17.6" cy="294.9" r="77.2"/>
					<circle class="st113" cx="19.7" cy="294.5" r="77.2"/>
					<circle class="st114" cx="21.7" cy="294" r="77.2"/>
					<circle class="st115" cx="23.6" cy="293.4" r="77.2"/>
					<circle class="st116" cx="25.5" cy="292.5" r="77.2"/>
					<circle class="st117" cx="27.3" cy="291.5" r="77.2"/>
					<circle class="st118" cx="29.1" cy="290.4" r="77.2"/>
					<circle class="st119" cx="30.8" cy="289" r="77.2"/>
					<circle class="st120" cx="32.5" cy="287.5" r="77.2"/>
					<circle class="st121" cx="34.1" cy="285.9" r="77.2"/>
					<circle class="st122" cx="35.8" cy="284.1" r="77.2"/>
					<circle class="st123" cx="37.4" cy="282.2" r="77.2"/>
					<circle class="st124" cx="39" cy="280.1" r="77.2"/>
					<circle class="st125" cx="40.7" cy="277.9" r="77.2"/>
					<circle class="st126" cx="42.4" cy="275.6" r="77.2"/>
					<circle class="st127" cx="44.1" cy="273.1" r="77.2"/>
					<circle class="st128" cx="45.9" cy="270.5" r="77.2"/>
					<circle class="st129" cx="47.7" cy="267.8" r="77.2"/>
					<circle class="st130" cx="49.5" cy="265" r="77.2"/>
					<circle class="st131" cx="51.5" cy="262.1" r="77.2"/>
					<circle class="st132" cx="53.5" cy="259.1" r="77.2"/>
					<circle class="st133" cx="55.6" cy="256" r="77.2"/>
					<circle class="st134" cx="57.8" cy="252.8" r="77.2"/>
					<circle class="st135" cx="60.1" cy="249.5" r="77.2"/>
					<circle class="st136" cx="62.5" cy="246.2" r="77.2"/>
					<circle class="st137" cx="65" cy="242.7" r="77.2"/>
					<circle class="st138" cx="67.7" cy="239.2" r="77.2"/>
					<circle class="st139" cx="70.5" cy="235.6" r="77.2"/>
					<circle class="st140" cx="73.4" cy="231.9" r="77.2"/>
					<circle class="st141" cx="76.6" cy="228.2" r="77.2"/>
					<circle class="st142" cx="79.9" cy="224.4" r="77.2"/>
					<circle class="st143" cx="83.3" cy="220.6" r="77.2"/>
					<circle class="st144" cx="87" cy="216.7" r="77.2"/>
					<circle class="st145" cx="90.9" cy="212.8" r="77.2"/>
					<circle class="st146" cx="94.9" cy="208.8" r="77.2"/>
					<circle class="st147" cx="99.2" cy="204.9" r="77.2"/>
					<circle class="st148" cx="103.7" cy="200.8" r="77.2"/>
					<circle class="st149" cx="108.5" cy="196.8" r="77.2"/>
					<circle class="st150" cx="113.4" cy="192.7" r="77.2"/>
					<circle class="st151" cx="118.2" cy="189" r="77.2"/>
					<circle class="st152" cx="122.2" cy="185.9" r="77.2"/>
					<circle class="st153" cx="126" cy="183.2" r="77.2"/>
					<circle class="st154" cx="129.7" cy="180.7" r="77.2"/>
					<circle class="st155" cx="133.2" cy="178.4" r="77.2"/>
					<circle class="st156" cx="136.5" cy="176.3" r="77.2"/>
					<circle class="st157" cx="139.7" cy="174.4" r="77.2"/>
					<circle class="st158" cx="142.7" cy="172.6" r="77.2"/>
					<circle class="st159" cx="145.7" cy="171" r="77.2"/>
					<circle class="st160" cx="148.5" cy="169.5" r="77.2"/>
					<circle class="st161" cx="151.3" cy="168.1" r="77.2"/>
					<circle class="st162" cx="154" cy="166.9" r="77.2"/>
					<circle class="st163" cx="156.7" cy="165.6" r="77.2"/>
					<circle class="st164" cx="159.3" cy="164.4" r="77.2"/>
					<circle class="st165" cx="161.9" cy="163.2" r="77.2"/>
					<circle class="st166" cx="164.5" cy="162" r="77.2"/>
					<circle class="st167" cx="167.1" cy="160.8" r="77.2"/>
					<circle class="st168" cx="169.8" cy="159.5" r="77.2"/>
					<circle class="st169" cx="172.5" cy="158.2" r="77.2"/>
					<circle class="st170" cx="175.2" cy="156.8" r="77.2"/>
					<circle class="st171" cx="178" cy="155.3" r="77.2"/>
					<circle class="st172" cx="181" cy="153.6" r="77.2"/>
					<circle class="st173" cx="184" cy="151.8" r="77.2"/>
					<circle class="st174" cx="187.1" cy="149.8" r="77.2"/>
					<circle class="st175" cx="190.4" cy="147.6" r="77.2"/>
					<circle class="st176" cx="193.8" cy="145.2" r="77.2"/>
					<circle class="st177" cx="197.4" cy="142.6" r="77.2"/>
					<circle class="st178" cx="201.2" cy="139.7" r="77.2"/>
					<circle class="st179" cx="205.2" cy="136.6" r="77.2"/>
					<circle class="st180" cx="209.4" cy="133.1" r="77.2"/>
					<circle class="st181" cx="214.1" cy="129.1" r="77.2"/>
					<circle class="st182" cx="218.6" cy="125.1" r="77.2"/>
					<circle class="st183" cx="222.8" cy="121.2" r="77.2"/>
					<circle class="st184" cx="226.9" cy="117.4" r="77.2"/>
					<circle class="st185" cx="230.8" cy="113.6" r="77.2"/>
					<circle class="st186" cx="234.5" cy="109.8" r="77.2"/>
					<circle class="st187" cx="238" cy="106.2" r="77.2"/>
					<circle class="st188" cx="241.4" cy="102.6" r="77.2"/>
					<circle class="st189" cx="244.6" cy="99.2" r="77.2"/>
					<circle class="st190" cx="247.7" cy="95.8" r="77.2"/>
					<circle class="st191" cx="250.6" cy="92.5" r="77.2"/>
					<circle class="st192" cx="253.4" cy="89.4" r="77.2"/>
					<circle class="st193" cx="256.1" cy="86.4" r="77.2"/>
					<circle class="st194" cx="258.7" cy="83.5" r="77.2"/>
					<circle class="st195" cx="261.2" cy="80.7" r="77.2"/>
					<circle class="st196" cx="263.6" cy="78.1" r="77.2"/>
					<circle class="st197" cx="265.9" cy="75.7" r="77.2"/>
					<circle class="st198" cx="268.2" cy="73.4" r="77.2"/>
					<circle class="st199" cx="270.4" cy="71.2" r="77.2"/>
					<circle class="st200" cx="272.5" cy="69.3" r="77.2"/>
					<circle class="st201" cx="273.4" cy="186.6" r="77.2"/>
					<circle class="st202" cx="270.2" cy="189.5" r="77.2"/>
					<circle class="st203" cx="266.9" cy="192.3" r="77.2"/>
					<circle class="st204" cx="263.6" cy="195.2" r="77.2"/>
					<circle class="st205" cx="260.2" cy="198.1" r="77.2"/>
					<circle class="st206" cx="256.8" cy="201" r="77.2"/>
					<circle class="st207" cx="253.3" cy="203.9" r="77.2"/>
					<circle class="st208" cx="249.7" cy="206.8" r="77.2"/>
					<circle class="st209" cx="246.1" cy="209.7" r="77.2"/>
					<circle class="st210" cx="242.4" cy="212.6" r="77.2"/>
					<circle class="st211" cx="238.7" cy="215.5" r="77.2"/>
					<circle class="st212" cx="234.9" cy="218.4" r="77.2"/>
					<circle class="st213" cx="231.1" cy="221.3" r="77.2"/>
					<circle class="st214" cx="227.2" cy="224.2" r="77.2"/>
					<circle class="st215" cx="223.3" cy="227.1" r="77.2"/>
					<circle class="st216" cx="219.4" cy="230.1" r="77.2"/>
					<circle class="st217" cx="215.4" cy="233" r="77.2"/>
					<circle class="st218" cx="211.4" cy="235.9" r="77.2"/>
					<circle class="st219" cx="207.4" cy="238.8" r="77.2"/>
					<circle class="st220" cx="203.3" cy="241.6" r="77.2"/>
					<circle class="st221" cx="199.2" cy="244.5" r="77.2"/>
					<circle class="st222" cx="195.1" cy="247.4" r="77.2"/>
					<circle class="st223" cx="191" cy="250.3" r="77.2"/>
					<circle class="st224" cx="186.8" cy="253.1" r="77.2"/>
					<circle class="st225" cx="182.7" cy="256" r="77.2"/>
					<circle class="st226" cx="178.5" cy="258.8" r="77.2"/>
					<circle class="st227" cx="174.3" cy="261.6" r="77.2"/>
					<circle class="st228" cx="170.1" cy="264.4" r="77.2"/>
					<circle class="st229" cx="165.9" cy="267.2" r="77.2"/>
					<circle class="st230" cx="161.6" cy="270" r="77.2"/>
					<circle class="st231" cx="157.4" cy="272.7" r="77.2"/>
					<circle class="st232" cx="153.2" cy="275.5" r="77.2"/>
					<circle class="st233" cx="149" cy="278.2" r="77.2"/>
					<circle class="st234" cx="144.8" cy="280.9" r="77.2"/>
					<circle class="st235" cx="140.6" cy="283.5" r="77.2"/>
					<circle class="st236" cx="136.4" cy="286.2" r="77.2"/>
					<circle class="st237" cx="132.2" cy="288.8" r="77.2"/>
					<circle class="st238" cx="128" cy="291.4" r="77.2"/>
					<circle class="st239" cx="123.9" cy="294" r="77.2"/>
					<circle class="st240" cx="119.8" cy="296.5" r="77.2"/>
					<circle class="st241" cx="115.7" cy="299" r="77.2"/>
					<circle class="st242" cx="111.6" cy="301.5" r="77.2"/>
					<circle class="st243" cx="107.5" cy="304" r="77.2"/>
					<circle class="st244" cx="103.5" cy="306.4" r="77.2"/>
					<circle class="st245" cx="99.5" cy="308.8" r="77.2"/>
					<circle class="st246" cx="95.5" cy="311.2" r="77.2"/>
					<circle class="st247" cx="91.6" cy="313.5" r="77.2"/>
					<circle class="st248" cx="87.7" cy="315.8" r="77.2"/>
					<circle class="st249" cx="83.9" cy="318" r="77.2"/>
					<circle class="st250" cx="80.1" cy="320.2" r="77.2"/>
					<circle class="st251" cx="76.3" cy="322.4" r="77.2"/>
					<circle class="st252" cx="72.6" cy="324.6" r="77.2"/>
					<circle class="st253" cx="68.9" cy="326.7" r="77.2"/>
					<circle class="st254" cx="65.3" cy="328.7" r="77.2"/>
					<circle class="st255" cx="61.8" cy="330.8" r="77.2"/>
					<circle class="st256" cx="58.3" cy="332.7" r="77.2"/>
				</g>
			</g>
		</g>
	</g>
</g>
</svg>
