<svg id="Layer_1" data-name="Layer 1" xmlns="http://www.w3.org/2000/svg" xmlns:xlink="http://www.w3.org/1999/xlink" viewBox="0 0 256 256"><defs><style>.cls-1{fill:none;}.cls-2{clip-path:url(#clip-path);}.cls-3{clip-path:url(#clip-path-2);}.cls-4{fill:#aa044f;}.cls-5{fill:#ab044f;}.cls-6{fill:#ac0450;}.cls-7{fill:#ad0450;}.cls-8{fill:#ae0450;}.cls-9{fill:#af0450;}.cls-10{fill:#b00451;}.cls-11{fill:#b10451;}.cls-12{fill:#b20451;}.cls-13{fill:#b30452;}.cls-14{fill:#b40452;}.cls-15{fill:#b50452;}.cls-16{fill:#b60452;}.cls-17{fill:#b70453;}.cls-18{fill:#b80453;}.cls-19{fill:#b90453;}.cls-20{fill:#ba0454;}.cls-21{fill:#bb0454;}.cls-22{fill:#bc0454;}.cls-23{fill:#bd0455;}.cls-24{fill:#be0455;}.cls-25{fill:#bf0455;}.cls-26{fill:#c00455;}.cls-27{fill:#c10456;}.cls-28{fill:#c20456;}.cls-29{fill:#c30456;}.cls-30{fill:#c40457;}.cls-31{fill:#c50457;}.cls-32{fill:#c60457;}.cls-33{fill:#c70457;}.cls-34{fill:#c80458;}.cls-35{fill:#c90458;}.cls-36{fill:#ca0458;}.cls-37{fill:#cb0459;}.cls-38{fill:#cc0459;}.cls-39{fill:#cd0459;}.cls-40{fill:#ce0459;}.cls-41{fill:#cf045a;}.cls-42{fill:#d0045a;}.cls-43{fill:#d1045a;}.cls-44{fill:#d2045b;}.cls-45{fill:#d3045b;}.cls-46{fill:#d4045b;}.cls-47{fill:#d5035c;}.cls-48{fill:#d6035c;}.cls-49{fill:#d7035c;}.cls-50{fill:#d8035d;}.cls-51{fill:#d9035d;}.cls-52{fill:#da035d;}.cls-53{fill:#db035e;}.cls-54{fill:#dc035e;}.cls-55{fill:#dd035e;}.cls-56{fill:#de035e;}.cls-57{fill:#df035f;}.cls-58{fill:#e0035f;}.cls-59{fill:#e1035f;}.cls-60{fill:#e20360;}.cls-61{fill:#e30360;}.cls-62{fill:#e40360;}.cls-63{fill:#e50360;}.cls-64{fill:#e60361;}.cls-65{fill:#e70361;}.cls-66{fill:#e80361;}.cls-67{fill:#e90362;}.cls-68{fill:#ea0362;}.cls-69{fill:#eb0362;}.cls-70{fill:#ec0362;}.cls-71{fill:#ed0363;}.cls-72{fill:#ee0363;}.cls-73{fill:#ef0363;}.cls-74{fill:#f00364;}.cls-75{fill:#f10364;}.cls-76{fill:#f20364;}.cls-77{fill:#f30365;}.cls-78{fill:#f40365;}.cls-79{fill:#f50365;}.cls-80{fill:#f60365;}.cls-81{fill:#f70366;}.cls-82{fill:#f80366;}.cls-83{fill:#f90366;}.cls-84{fill:#fa0367;}.cls-85{fill:#fb0367;}.cls-86{fill:#fc0367;}.cls-87{fill:#fd0367;}.cls-88{fill:#fe0368;}.cls-89{fill:#ff0368;}.cls-90{fill:#fe0468;}.cls-91{fill:#fd0568;}.cls-92{fill:#fc0669;}.cls-93{fill:#fb0769;}.cls-94{fill:#fa0869;}.cls-95{fill:#f90969;}.cls-96{fill:#f80a6a;}.cls-97{fill:#f70b6a;}.cls-98{fill:#f60c6a;}.cls-99{fill:#f50d6a;}.cls-100{fill:#f40e6b;}.cls-101{fill:#f30e6b;}.cls-102{fill:#f20f6b;}.cls-103{fill:#f1106b;}.cls-104{fill:#f0116c;}.cls-105{fill:#ef126c;}.cls-106{fill:#ee136c;}.cls-107{fill:#ed146c;}.cls-108{fill:#ec156d;}.cls-109{fill:#eb166d;}.cls-110{fill:#ea176d;}.cls-111{fill:#e9186d;}.cls-112{fill:#e8196e;}.cls-113{fill:#e71a6e;}.cls-114{fill:#e61b6e;}.cls-115{fill:#e51c6e;}.cls-116{fill:#e41d6e;}.cls-117{fill:#e31e6f;}.cls-118{fill:#e21f6f;}.cls-119{fill:#e1206f;}.cls-120{fill:#e0216f;}.cls-121{fill:#df2270;}.cls-122{fill:#de2370;}.cls-123{fill:#dd2470;}.cls-124{fill:#dc2470;}.cls-125{fill:#db2571;}.cls-126{fill:#da2671;}.cls-127{fill:#d92771;}.cls-128{fill:#d82871;}.cls-129{fill:#d72972;}.cls-130{fill:#d62a72;}.cls-131{fill:#d52b72;}.cls-132{fill:#d42c72;}.cls-133{fill:#d32d73;}.cls-134{fill:#d22e73;}.cls-135{fill:#d12f73;}.cls-136{fill:#d03073;}.cls-137{fill:#cf3173;}.cls-138{fill:#ce3274;}.cls-139{fill:#cd3374;}.cls-140{fill:#cc3474;}.cls-141{fill:#cb3574;}.cls-142{fill:#ca3675;}.cls-143{fill:#c93775;}.cls-144{fill:#c83875;}.cls-145{fill:#c73975;}.cls-146{fill:#c63a76;}.cls-147{fill:#c53a76;}.cls-148{fill:#c43b76;}.cls-149{fill:#c33c76;}.cls-150{fill:#c23d77;}.cls-151{fill:#c13e77;}.cls-152{fill:#c03f77;}.cls-153{fill:#bf4077;}.cls-154{fill:#be4178;}.cls-155{fill:#bd4278;}.cls-156{fill:#bc4378;}.cls-157{fill:#bb4478;}.cls-158{fill:#ba4579;}.cls-159{fill:#b94679;}.cls-160{fill:#b84779;}.cls-161{fill:#b74879;}.cls-162{fill:#b64979;}.cls-163{fill:#b54a7a;}.cls-164{fill:#b44b7a;}.cls-165{fill:#b34c7a;}.cls-166{fill:#b24d7a;}.cls-167{fill:#b14e7b;}.cls-168{fill:#b04f7b;}.cls-169{fill:#af507b;}.cls-170{fill:#ae517b;}.cls-171{fill:#ad517c;}.cls-172{fill:#ac527c;}.cls-173{fill:#ab537c;}.cls-174{fill:#aa547c;}.cls-175{fill:#a9557d;}.cls-176{fill:#a8567d;}.cls-177{fill:#a7577d;}.cls-178{fill:#a6587d;}.cls-179{fill:#a5597e;}.cls-180{fill:#a45a7e;}.cls-181{fill:#a35b7e;}.cls-182{fill:#a25c7e;}.cls-183{fill:#a15d7e;}.cls-184{fill:#a05e7f;}.cls-185{fill:#9f5f7f;}.cls-186{fill:#9e607f;}.cls-187{fill:#9d617f;}.cls-188{fill:#9c6280;}.cls-189{fill:#9b6380;}.cls-190{fill:#9a6480;}.cls-191{fill:#996580;}.cls-192{fill:#986681;}.cls-193{fill:#976781;}.cls-194{fill:#966781;}.cls-195{fill:#956881;}.cls-196{fill:#946982;}.cls-197{fill:#936a82;}.cls-198{fill:#926b82;}.cls-199{fill:#916c82;}.cls-200{fill:#906d83;}.cls-201{fill:#8f6e83;}.cls-202{fill:#8e6f83;}.cls-203{fill:#55a691;}.cls-204{fill:#54a791;}.cls-205{fill:#53a891;}.cls-206{fill:#52a991;}.cls-207{fill:#51a992;}.cls-208{fill:#50aa92;}.cls-209{fill:#4fab92;}.cls-210{fill:#4eac92;}.cls-211{fill:#4dad93;}.cls-212{fill:#4cae93;}.cls-213{fill:#4baf93;}.cls-214{fill:#4ab093;}.cls-215{fill:#49b194;}.cls-216{fill:#48b294;}.cls-217{fill:#47b394;}.cls-218{fill:#46b494;}.cls-219{fill:#45b594;}.cls-220{fill:#44b695;}.cls-221{fill:#43b795;}.cls-222{fill:#42b895;}.cls-223{fill:#41b995;}.cls-224{fill:#40ba96;}.cls-225{fill:#3fbb96;}.cls-226{fill:#3ebc96;}.cls-227{fill:#3dbd96;}.cls-228{fill:#3cbe97;}.cls-229{fill:#3bbf97;}.cls-230{fill:#3ac097;}.cls-231{fill:#39c097;}.cls-232{fill:#38c198;}.cls-233{fill:#37c298;}.cls-234{fill:#36c398;}.cls-235{fill:#35c498;}.cls-236{fill:#34c599;}.cls-237{fill:#33c699;}.cls-238{fill:#32c799;}.cls-239{fill:#31c899;}.cls-240{fill:#30c99a;}.cls-241{fill:#2fca9a;}.cls-242{fill:#2ecb9a;}.cls-243{fill:#2dcc9a;}.cls-244{fill:#2ccd9a;}.cls-245{fill:#2bce9b;}.cls-246{fill:#2acf9b;}.cls-247{fill:#29d09b;}.cls-248{fill:#28d19b;}.cls-249{fill:#27d29c;}.cls-250{fill:#26d39c;}.cls-251{fill:#25d49c;}.cls-252{fill:#24d59c;}.cls-253{fill:#23d69d;}.cls-254{fill:#22d69d;}.cls-255{fill:#21d79d;}.cls-256{fill:#20d89d;}.cls-257{fill:#1fd99e;}.cls-258{fill:#1eda9e;}</style><clipPath id="clip-path"><path class="cls-1" d="M150.94,109.73c-34.55-16-39.86-18.39-39.86-27,0-9.31,8.35-14.87,16.43-14.87,8.73,0,12.73,4.15,14.8,9a2.41,2.41,0,0,0,2.8,1.35l42.54-10.62a2.45,2.45,0,0,0,1.81-2.79c-3.58-21.29-21.76-31.51-30.25-35.18-1.7-.71-3.39-1.32-5.06-1.88V2.86A2.87,2.87,0,0,0,151.28,0H106.74a2.87,2.87,0,0,0-2.87,2.86v25C80,36,60.19,55.76,60.19,85.92c0,37.94,34.93,52.38,48.07,57.82l2.34,1c27.94,12,35.45,15.26,35.45,25,0,8.84-7,18.38-18.27,18.38-2.52,0-14-.8-18.14-15a2.45,2.45,0,0,0-2.83-1.74L61,180.84a2.44,2.44,0,0,0-1.87,3c3.92,16.11,11.79,26,17.1,31.17,7.34,6.86,16.6,11.67,27.65,14.43v23.72a2.87,2.87,0,0,0,2.87,2.86h44.54a2.87,2.87,0,0,0,2.87-2.86V229c13.82-3.82,24.46-11.07,31.74-21.71,9.62-14.05,11.06-30.91,11.06-39.71C197,141.16,184.05,125,150.94,109.73Z"/></clipPath><clipPath id="clip-path-2"><circle class="cls-1" cx="128" cy="128" r="181.36"/></clipPath></defs><g class="cls-2"><g id="Ball"><g class="cls-3"><circle class="cls-4" cx="68.81" cy="11.21" r="77.18"/><circle class="cls-5" cx="58.63" cy="21.28" r="77.18"/><circle class="cls-6" cx="48.92" cy="31.18" r="77.18"/><circle class="cls-7" cx="39.76" cy="40.84" r="77.18"/><circle class="cls-8" cx="31.23" cy="50.23" r="77.18"/><circle class="cls-9" cx="23.4" cy="59.28" r="77.18"/><circle class="cls-10" cx="16.37" cy="67.95" r="77.18"/><circle class="cls-11" cx="10.21" cy="76.18" r="77.18"/><circle class="cls-12" cx="5" cy="83.92" r="77.18"/><circle class="cls-13" cx="0.82" cy="91.12" r="77.18"/><circle class="cls-14" cx="-2.25" cy="97.72" r="77.18"/><circle class="cls-15" cx="-4.13" cy="103.68" r="77.18"/><circle class="cls-16" cx="-4.73" cy="108.94" r="77.18"/><circle class="cls-17" cx="-3.99" cy="113.44" r="77.18"/><circle class="cls-18" cx="-1.32" cy="117.67" r="77.18"/><circle class="cls-19" cx="4.24" cy="121.28" r="77.18"/><circle class="cls-20" cx="11.92" cy="123.38" r="77.18"/><circle class="cls-21" cx="21.2" cy="123.99" r="77.18"/><circle class="cls-22" cx="31.56" cy="123.13" r="77.18"/><circle class="cls-23" cx="42.49" cy="120.83" r="77.18"/><circle class="cls-24" cx="53.47" cy="117.12" r="77.18"/><circle class="cls-25" cx="63.98" cy="112" r="77.18"/><circle class="cls-26" cx="74.11" cy="105.07" r="77.18"/><circle class="cls-27" cx="82.76" cy="96.88" r="77.18"/><circle class="cls-28" cx="89.93" cy="87.76" r="77.18"/><circle class="cls-29" cx="95.81" cy="77.91" r="77.18"/><circle class="cls-30" cx="100.58" cy="67.54" r="77.18"/><circle class="cls-31" cx="104.43" cy="56.86" r="77.18"/><circle class="cls-32" cx="107.55" cy="46.1" r="77.18"/><circle class="cls-33" cx="110.11" cy="35.45" r="77.18"/><circle class="cls-34" cx="112.31" cy="25.14" r="77.18"/><circle class="cls-35" cx="114.33" cy="15.37" r="77.18"/><circle class="cls-36" cx="116.34" cy="6.35" r="77.18"/><circle class="cls-37" cx="118.55" cy="-1.7" r="77.18"/><circle class="cls-38" cx="121.12" cy="-8.58" r="77.18"/><circle class="cls-39" cx="124.25" cy="-14.06" r="77.18"/><circle class="cls-40" cx="128.12" cy="-17.94" r="77.18"/><circle class="cls-41" cx="132.91" cy="-20.01" r="77.18"/><circle class="cls-42" cx="138.38" cy="-20.11" r="77.18"/><circle class="cls-43" cx="144.43" cy="-18.42" r="77.18"/><circle class="cls-44" cx="150.91" cy="-15.09" r="77.18"/><circle class="cls-45" cx="157.69" cy="-10.28" r="77.18"/><circle class="cls-46" cx="164.63" cy="-4.17" r="77.18"/><circle class="cls-46" cx="171.61" cy="3.08" r="77.18"/><circle class="cls-47" cx="178.49" cy="11.31" r="77.18"/><circle class="cls-48" cx="185.13" cy="20.35" r="77.18"/><circle class="cls-49" cx="191.41" cy="30.03" r="77.18"/><circle class="cls-50" cx="197.18" cy="40.2" r="77.18"/><circle class="cls-51" cx="202.31" cy="50.68" r="77.18"/><circle class="cls-52" cx="206.67" cy="61.32" r="77.18"/><circle class="cls-53" cx="210.13" cy="71.94" r="77.18"/><circle class="cls-54" cx="212.55" cy="82.39" r="77.18"/><circle class="cls-55" cx="213.8" cy="92.49" r="77.18"/><circle class="cls-56" cx="213.75" cy="102.08" r="77.18"/><circle class="cls-57" cx="212.25" cy="111.01" r="77.18"/><circle class="cls-58" cx="209.18" cy="119.09" r="77.18"/><circle class="cls-59" cx="204.65" cy="125.87" r="77.18"/><circle class="cls-60" cx="198.99" cy="131.19" r="77.18"/><circle class="cls-61" cx="192.24" cy="135.29" r="77.18"/><circle class="cls-62" cx="184.51" cy="138.31" r="77.18"/><circle class="cls-63" cx="175.92" cy="140.37" r="77.18"/><circle class="cls-64" cx="166.58" cy="141.6" r="77.18"/><circle class="cls-65" cx="156.62" cy="142.13" r="77.18"/><circle class="cls-66" cx="146.13" cy="142.09" r="77.18"/><circle class="cls-67" cx="135.25" cy="141.62" r="77.18"/><circle class="cls-68" cx="124.07" cy="140.83" r="77.18"/><circle class="cls-69" cx="112.72" cy="139.87" r="77.18"/><circle class="cls-70" cx="101.3" cy="138.85" r="77.18"/><circle class="cls-71" cx="89.95" cy="137.91" r="77.18"/><circle class="cls-72" cx="78.75" cy="137.18" r="77.18"/><circle class="cls-73" cx="67.84" cy="136.78" r="77.18"/><circle class="cls-74" cx="57.33" cy="136.86" r="77.18"/><circle class="cls-75" cx="47.33" cy="137.52" r="77.18"/><circle class="cls-76" cx="37.95" cy="138.92" r="77.18"/><circle class="cls-77" cx="29.31" cy="141.16" r="77.18"/><circle class="cls-78" cx="21.52" cy="144.39" r="77.18"/><circle class="cls-79" cx="14.7" cy="148.73" r="77.18"/><circle class="cls-80" cx="8.97" cy="154.32" r="77.18"/><circle class="cls-81" cx="4.45" cy="161.23" r="77.18"/><circle class="cls-82" cx="1.35" cy="169.17" r="77.18"/><circle class="cls-83" cx="-0.37" cy="177.91" r="77.18"/><circle class="cls-84" cx="-0.82" cy="187.3" r="77.18"/><circle class="cls-85" cx="-0.1" cy="197.17" r="77.18"/><circle class="cls-86" cx="1.71" cy="207.35" r="77.18"/><circle class="cls-87" cx="4.5" cy="217.69" r="77.18"/><circle class="cls-88" cx="8.17" cy="228.02" r="77.18"/><circle class="cls-89" cx="11.79" cy="236.41" r="77.18"/><circle class="cls-90" cx="14.55" cy="242.03" r="77.18"/><circle class="cls-91" cx="16.56" cy="245.81" r="77.18"/><circle class="cls-92" cx="18.66" cy="249.53" r="77.18"/><circle class="cls-93" cx="20.85" cy="253.17" r="77.18"/><circle class="cls-94" cx="23.12" cy="256.72" r="77.18"/><circle class="cls-95" cx="25.47" cy="260.17" r="77.18"/><circle class="cls-96" cx="27.88" cy="263.52" r="77.18"/><circle class="cls-97" cx="30.36" cy="266.75" r="77.18"/><circle class="cls-98" cx="32.9" cy="269.85" r="77.18"/><circle class="cls-99" cx="35.49" cy="272.82" r="77.18"/><circle class="cls-100" cx="38.12" cy="275.65" r="77.18"/><circle class="cls-101" cx="40.8" cy="278.32" r="77.18"/><circle class="cls-102" cx="43.51" cy="280.83" r="77.18"/><circle class="cls-103" cx="46.25" cy="283.17" r="77.18"/><circle class="cls-104" cx="49.02" cy="285.32" r="77.18"/><circle class="cls-105" cx="51.8" cy="287.29" r="77.18"/><circle class="cls-106" cx="54.6" cy="289.05" r="77.18"/><circle class="cls-107" cx="57.41" cy="290.6" r="77.18"/><circle class="cls-108" cx="60.21" cy="291.93" r="77.18"/><circle class="cls-109" cx="63.02" cy="293.04" r="77.18"/><circle class="cls-110" cx="65.81" cy="293.9" r="77.18"/><circle class="cls-111" cx="68.59" cy="294.52" r="77.18"/><circle class="cls-112" cx="71.35" cy="294.88" r="77.18"/><circle class="cls-113" cx="73.98" cy="294.97" r="77.18"/><circle class="cls-114" cx="76.19" cy="294.85" r="77.18"/><circle class="cls-115" cx="78.29" cy="294.54" r="77.18"/><circle class="cls-116" cx="80.31" cy="294.05" r="77.18"/><circle class="cls-117" cx="82.25" cy="293.38" r="77.18"/><circle class="cls-118" cx="84.12" cy="292.54" r="77.18"/><circle class="cls-119" cx="85.93" cy="291.52" r="77.18"/><circle class="cls-120" cx="87.68" cy="290.35" r="77.18"/><circle class="cls-121" cx="89.4" cy="289.01" r="77.18"/><circle class="cls-122" cx="91.08" cy="287.52" r="77.18"/><circle class="cls-123" cx="92.74" cy="285.88" r="77.18"/><circle class="cls-124" cx="94.39" cy="284.09" r="77.18"/><circle class="cls-125" cx="96.03" cy="282.16" r="77.18"/><circle class="cls-126" cx="97.67" cy="280.09" r="77.18"/><circle class="cls-127" cx="99.33" cy="277.89" r="77.18"/><circle class="cls-128" cx="101.01" cy="275.56" r="77.18"/><circle class="cls-129" cx="102.73" cy="273.11" r="77.18"/><circle class="cls-130" cx="104.48" cy="270.53" r="77.18"/><circle class="cls-131" cx="106.28" cy="267.84" r="77.18"/><circle class="cls-132" cx="108.15" cy="265.04" r="77.18"/><circle class="cls-133" cx="110.08" cy="262.14" r="77.18"/><circle class="cls-134" cx="112.09" cy="259.13" r="77.18"/><circle class="cls-135" cx="114.19" cy="256.03" r="77.18"/><circle class="cls-136" cx="116.38" cy="252.83" r="77.18"/><circle class="cls-137" cx="118.68" cy="249.54" r="77.18"/><circle class="cls-138" cx="121.09" cy="246.17" r="77.18"/><circle class="cls-139" cx="123.63" cy="242.72" r="77.18"/><circle class="cls-140" cx="126.3" cy="239.2" r="77.18"/><circle class="cls-141" cx="129.11" cy="235.61" r="77.18"/><circle class="cls-142" cx="132.07" cy="231.94" r="77.18"/><circle class="cls-143" cx="135.2" cy="228.22" r="77.18"/><circle class="cls-144" cx="138.49" cy="224.44" r="77.18"/><circle class="cls-145" cx="141.96" cy="220.61" r="77.18"/><circle class="cls-146" cx="145.63" cy="216.73" r="77.18"/><circle class="cls-147" cx="149.49" cy="212.81" r="77.18"/><circle class="cls-148" cx="153.55" cy="208.84" r="77.18"/><circle class="cls-149" cx="157.83" cy="204.85" r="77.18"/><circle class="cls-150" cx="162.34" cy="200.82" r="77.18"/><circle class="cls-151" cx="167.08" cy="196.77" r="77.18"/><circle class="cls-152" cx="172.07" cy="192.69" r="77.18"/><circle class="cls-153" cx="176.79" cy="188.99" r="77.18"/><circle class="cls-154" cx="180.83" cy="185.95" r="77.18"/><circle class="cls-155" cx="184.67" cy="183.18" r="77.18"/><circle class="cls-156" cx="188.33" cy="180.66" r="77.18"/><circle class="cls-157" cx="191.81" cy="178.36" r="77.18"/><circle class="cls-158" cx="195.13" cy="176.27" r="77.18"/><circle class="cls-159" cx="198.31" cy="174.36" r="77.18"/><circle class="cls-160" cx="201.36" cy="172.61" r="77.18"/><circle class="cls-161" cx="204.31" cy="171.01" r="77.18"/><circle class="cls-162" cx="207.16" cy="169.53" r="77.18"/><circle class="cls-163" cx="209.93" cy="168.15" r="77.18"/><circle class="cls-164" cx="212.63" cy="166.85" r="77.18"/><circle class="cls-165" cx="215.29" cy="165.61" r="77.18"/><circle class="cls-166" cx="217.91" cy="164.4" r="77.18"/><circle class="cls-167" cx="220.52" cy="163.22" r="77.18"/><circle class="cls-168" cx="223.13" cy="162.02" r="77.18"/><circle class="cls-169" cx="225.74" cy="160.8" r="77.18"/><circle class="cls-170" cx="228.39" cy="159.54" r="77.18"/><circle class="cls-171" cx="231.08" cy="158.21" r="77.18"/><circle class="cls-172" cx="233.83" cy="156.79" r="77.18"/><circle class="cls-173" cx="236.66" cy="155.26" r="77.18"/><circle class="cls-174" cx="239.58" cy="153.6" r="77.18"/><circle class="cls-175" cx="242.6" cy="151.78" r="77.18"/><circle class="cls-176" cx="245.75" cy="149.8" r="77.18"/><circle class="cls-177" cx="249.03" cy="147.62" r="77.18"/><circle class="cls-178" cx="252.47" cy="145.23" r="77.18"/><circle class="cls-179" cx="256.07" cy="142.6" r="77.18"/><circle class="cls-180" cx="259.86" cy="139.72" r="77.18"/><circle class="cls-181" cx="263.85" cy="136.55" r="77.18"/><circle class="cls-182" cx="268.05" cy="133.09" r="77.18"/><circle class="cls-183" cx="272.72" cy="129.11" r="77.18"/><circle class="cls-184" cx="277.2" cy="125.14" r="77.18"/><circle class="cls-185" cx="281.47" cy="121.22" r="77.18"/><circle class="cls-186" cx="285.54" cy="117.36" r="77.18"/><circle class="cls-187" cx="289.42" cy="113.56" r="77.18"/><circle class="cls-188" cx="293.13" cy="109.84" r="77.18"/><circle class="cls-189" cx="296.66" cy="106.19" r="77.18"/><circle class="cls-190" cx="300.02" cy="102.63" r="77.18"/><circle class="cls-191" cx="303.24" cy="99.16" r="77.18"/><circle class="cls-192" cx="306.31" cy="95.79" r="77.18"/><circle class="cls-193" cx="309.25" cy="92.53" r="77.18"/><circle class="cls-194" cx="312.06" cy="89.39" r="77.18"/><circle class="cls-195" cx="314.75" cy="86.37" r="77.18"/><circle class="cls-196" cx="317.34" cy="83.48" r="77.18"/><circle class="cls-197" cx="319.83" cy="80.73" r="77.18"/><circle class="cls-198" cx="322.23" cy="78.12" r="77.18"/><circle class="cls-199" cx="324.55" cy="75.66" r="77.18"/><circle class="cls-200" cx="326.8" cy="73.37" r="77.18"/><circle class="cls-201" cx="328.99" cy="71.24" r="77.18"/><circle class="cls-202" cx="331.13" cy="69.29" r="77.18"/><circle class="cls-203" cx="332" cy="186.63" r="77.18"/><circle class="cls-204" cx="328.81" cy="189.47" r="77.18"/><circle class="cls-205" cx="325.55" cy="192.34" r="77.18"/><circle class="cls-206" cx="322.23" cy="195.21" r="77.18"/><circle class="cls-207" cx="318.84" cy="198.08" r="77.18"/><circle class="cls-208" cx="315.39" cy="200.97" r="77.18"/><circle class="cls-209" cx="311.88" cy="203.87" r="77.18"/><circle class="cls-210" cx="308.32" cy="206.77" r="77.18"/><circle class="cls-211" cx="304.7" cy="209.67" r="77.18"/><circle class="cls-212" cx="301.02" cy="212.58" r="77.18"/><circle class="cls-213" cx="297.3" cy="215.49" r="77.18"/><circle class="cls-214" cx="293.53" cy="218.4" r="77.18"/><circle class="cls-215" cx="289.71" cy="221.32" r="77.18"/><circle class="cls-216" cx="285.86" cy="224.23" r="77.18"/><circle class="cls-217" cx="281.96" cy="227.14" r="77.18"/><circle class="cls-218" cx="278.02" cy="230.05" r="77.18"/><circle class="cls-219" cx="274.05" cy="232.96" r="77.18"/><circle class="cls-220" cx="270.04" cy="235.86" r="77.18"/><circle class="cls-221" cx="266.01" cy="238.76" r="77.18"/><circle class="cls-222" cx="261.94" cy="241.65" r="77.18"/><circle class="cls-223" cx="257.85" cy="244.53" r="77.18"/><circle class="cls-224" cx="253.74" cy="247.41" r="77.18"/><circle class="cls-225" cx="249.61" cy="250.27" r="77.18"/><circle class="cls-226" cx="245.45" cy="253.12" r="77.18"/><circle class="cls-227" cx="241.28" cy="255.97" r="77.18"/><circle class="cls-228" cx="237.1" cy="258.8" r="77.18"/><circle class="cls-229" cx="232.9" cy="261.61" r="77.18"/><circle class="cls-230" cx="228.7" cy="264.42" r="77.18"/><circle class="cls-231" cx="224.49" cy="267.2" r="77.18"/><circle class="cls-232" cx="220.27" cy="269.97" r="77.18"/><circle class="cls-233" cx="216.05" cy="272.72" r="77.18"/><circle class="cls-234" cx="211.84" cy="275.45" r="77.18"/><circle class="cls-235" cx="207.62" cy="278.17" r="77.18"/><circle class="cls-236" cx="203.41" cy="280.86" r="77.18"/><circle class="cls-237" cx="199.21" cy="283.53" r="77.18"/><circle class="cls-238" cx="195.01" cy="286.18" r="77.18"/><circle class="cls-239" cx="190.83" cy="288.8" r="77.18"/><circle class="cls-240" cx="186.67" cy="291.4" r="77.18"/><circle class="cls-241" cx="182.52" cy="293.97" r="77.18"/><circle class="cls-242" cx="178.39" cy="296.52" r="77.18"/><circle class="cls-243" cx="174.28" cy="299.03" r="77.18"/><circle class="cls-244" cx="170.2" cy="301.52" r="77.18"/><circle class="cls-245" cx="166.14" cy="303.98" r="77.18"/><circle class="cls-246" cx="162.12" cy="306.41" r="77.18"/><circle class="cls-247" cx="158.12" cy="308.8" r="77.18"/><circle class="cls-248" cx="154.16" cy="311.16" r="77.18"/><circle class="cls-249" cx="150.23" cy="313.49" r="77.18"/><circle class="cls-250" cx="146.34" cy="315.78" r="77.18"/><circle class="cls-251" cx="142.5" cy="318.04" r="77.18"/><circle class="cls-252" cx="138.69" cy="320.25" r="77.18"/><circle class="cls-253" cx="134.94" cy="322.43" r="77.18"/><circle class="cls-254" cx="131.23" cy="324.58" r="77.18"/><circle class="cls-255" cx="127.57" cy="326.68" r="77.18"/><circle class="cls-256" cx="123.96" cy="328.73" r="77.18"/><circle class="cls-257" cx="120.41" cy="330.75" r="77.18"/><circle class="cls-258" cx="116.92" cy="332.72" r="77.18"/></g></g></g></svg>