<svg id="Layer_1" data-name="Layer 1" xmlns="http://www.w3.org/2000/svg" xmlns:xlink="http://www.w3.org/1999/xlink" viewBox="0 0 256 256"><defs><style>.cls-1{fill:#fff;}.cls-2{fill:none;}.cls-3{mask:url(#mask);}.cls-4{clip-path:url(#clip-path);}.cls-5{fill:#aa044f;}.cls-6{fill:#ab044f;}.cls-7{fill:#ac0450;}.cls-8{fill:#ad0450;}.cls-9{fill:#ae0450;}.cls-10{fill:#af0450;}.cls-11{fill:#b00451;}.cls-12{fill:#b10451;}.cls-13{fill:#b20451;}.cls-14{fill:#b30452;}.cls-15{fill:#b40452;}.cls-16{fill:#b50452;}.cls-17{fill:#b60452;}.cls-18{fill:#b70453;}.cls-19{fill:#b80453;}.cls-20{fill:#b90453;}.cls-21{fill:#ba0454;}.cls-22{fill:#bb0454;}.cls-23{fill:#bc0454;}.cls-24{fill:#bd0455;}.cls-25{fill:#be0455;}.cls-26{fill:#bf0455;}.cls-27{fill:#c00455;}.cls-28{fill:#c10456;}.cls-29{fill:#c20456;}.cls-30{fill:#c30456;}.cls-31{fill:#c40457;}.cls-32{fill:#c50457;}.cls-33{fill:#c60457;}.cls-34{fill:#c70457;}.cls-35{fill:#c80458;}.cls-36{fill:#c90458;}.cls-37{fill:#ca0458;}.cls-38{fill:#cb0459;}.cls-39{fill:#cc0459;}.cls-40{fill:#cd0459;}.cls-41{fill:#ce0459;}.cls-42{fill:#cf045a;}.cls-43{fill:#d0045a;}.cls-44{fill:#d1045a;}.cls-45{fill:#d2045b;}.cls-46{fill:#d3045b;}.cls-47{fill:#d4045b;}.cls-48{fill:#d5035c;}.cls-49{fill:#d6035c;}.cls-50{fill:#d7035c;}.cls-51{fill:#d8035d;}.cls-52{fill:#d9035d;}.cls-53{fill:#da035d;}.cls-54{fill:#db035e;}.cls-55{fill:#dc035e;}.cls-56{fill:#dd035e;}.cls-57{fill:#de035e;}.cls-58{fill:#df035f;}.cls-59{fill:#e0035f;}.cls-60{fill:#e1035f;}.cls-61{fill:#e20360;}.cls-62{fill:#e30360;}.cls-63{fill:#e40360;}.cls-64{fill:#e50360;}.cls-65{fill:#e60361;}.cls-66{fill:#e70361;}.cls-67{fill:#e80361;}.cls-68{fill:#e90362;}.cls-69{fill:#ea0362;}.cls-70{fill:#eb0362;}.cls-71{fill:#ec0362;}.cls-72{fill:#ed0363;}.cls-73{fill:#ee0363;}.cls-74{fill:#ef0363;}.cls-75{fill:#f00364;}.cls-76{fill:#f10364;}.cls-77{fill:#f20364;}.cls-78{fill:#f30365;}.cls-79{fill:#f40365;}.cls-80{fill:#f50365;}.cls-81{fill:#f60365;}.cls-82{fill:#f70366;}.cls-83{fill:#f80366;}.cls-84{fill:#f90366;}.cls-85{fill:#fa0367;}.cls-86{fill:#fb0367;}.cls-87{fill:#fc0367;}.cls-88{fill:#fd0367;}.cls-89{fill:#fe0368;}.cls-90{fill:#ff0368;}.cls-91{fill:#fe0468;}.cls-92{fill:#fd0568;}.cls-93{fill:#fc0669;}.cls-94{fill:#fb0769;}.cls-95{fill:#fa0869;}.cls-96{fill:#f90969;}.cls-97{fill:#f80a6a;}.cls-98{fill:#f70b6a;}.cls-99{fill:#f60c6a;}.cls-100{fill:#f50d6a;}.cls-101{fill:#f40e6b;}.cls-102{fill:#f30e6b;}.cls-103{fill:#f20f6b;}.cls-104{fill:#f1106b;}.cls-105{fill:#f0116c;}.cls-106{fill:#ef126c;}.cls-107{fill:#ee136c;}.cls-108{fill:#ed146c;}.cls-109{fill:#ec156d;}.cls-110{fill:#eb166d;}.cls-111{fill:#ea176d;}.cls-112{fill:#e9186d;}.cls-113{fill:#e8196e;}.cls-114{fill:#e71a6e;}.cls-115{fill:#e61b6e;}.cls-116{fill:#e51c6e;}.cls-117{fill:#e41d6e;}.cls-118{fill:#e31e6f;}.cls-119{fill:#e21f6f;}.cls-120{fill:#e1206f;}.cls-121{fill:#e0216f;}.cls-122{fill:#df2270;}.cls-123{fill:#de2370;}.cls-124{fill:#dd2470;}.cls-125{fill:#dc2470;}.cls-126{fill:#db2571;}.cls-127{fill:#da2671;}.cls-128{fill:#d92771;}.cls-129{fill:#d82871;}.cls-130{fill:#d72972;}.cls-131{fill:#d62a72;}.cls-132{fill:#d52b72;}.cls-133{fill:#d42c72;}.cls-134{fill:#d32d73;}.cls-135{fill:#d22e73;}.cls-136{fill:#d12f73;}.cls-137{fill:#d03073;}.cls-138{fill:#cf3173;}.cls-139{fill:#ce3274;}.cls-140{fill:#cd3374;}.cls-141{fill:#cc3474;}.cls-142{fill:#cb3574;}.cls-143{fill:#ca3675;}.cls-144{fill:#c93775;}.cls-145{fill:#c83875;}.cls-146{fill:#c73975;}.cls-147{fill:#c63a76;}.cls-148{fill:#c53a76;}.cls-149{fill:#c43b76;}.cls-150{fill:#c33c76;}.cls-151{fill:#c23d77;}.cls-152{fill:#c13e77;}.cls-153{fill:#c03f77;}.cls-154{fill:#bf4077;}.cls-155{fill:#be4178;}.cls-156{fill:#bd4278;}.cls-157{fill:#bc4378;}.cls-158{fill:#bb4478;}.cls-159{fill:#ba4579;}.cls-160{fill:#b94679;}.cls-161{fill:#b84779;}.cls-162{fill:#b74879;}.cls-163{fill:#b64979;}.cls-164{fill:#b54a7a;}.cls-165{fill:#b44b7a;}.cls-166{fill:#b34c7a;}.cls-167{fill:#b24d7a;}.cls-168{fill:#b14e7b;}.cls-169{fill:#b04f7b;}.cls-170{fill:#af507b;}.cls-171{fill:#ae517b;}.cls-172{fill:#ad517c;}.cls-173{fill:#ac527c;}.cls-174{fill:#ab537c;}.cls-175{fill:#aa547c;}.cls-176{fill:#a9557d;}.cls-177{fill:#a8567d;}.cls-178{fill:#a7577d;}.cls-179{fill:#a6587d;}.cls-180{fill:#a5597e;}.cls-181{fill:#a45a7e;}.cls-182{fill:#a35b7e;}.cls-183{fill:#a25c7e;}.cls-184{fill:#a15d7e;}.cls-185{fill:#a05e7f;}.cls-186{fill:#9f5f7f;}.cls-187{fill:#9e607f;}.cls-188{fill:#9d617f;}.cls-189{fill:#9c6280;}.cls-190{fill:#9b6380;}.cls-191{fill:#9a6480;}.cls-192{fill:#996580;}.cls-193{fill:#986681;}.cls-194{fill:#976781;}.cls-195{fill:#966781;}.cls-196{fill:#956881;}.cls-197{fill:#946982;}.cls-198{fill:#936a82;}.cls-199{fill:#926b82;}.cls-200{fill:#916c82;}.cls-201{fill:#906d83;}.cls-202{fill:#8f6e83;}.cls-203{fill:#8e6f83;}.cls-204{fill:#8d7083;}.cls-205{fill:#8c7184;}.cls-206{fill:#8b7284;}.cls-207{fill:#8a7384;}.cls-208{fill:#897484;}.cls-209{fill:#887584;}.cls-210{fill:#877685;}.cls-211{fill:#867785;}.cls-212{fill:#857885;}.cls-213{fill:#847985;}.cls-214{fill:#837a86;}.cls-215{fill:#827b86;}.cls-216{fill:#817c86;}.cls-217{fill:#807d86;}.cls-218{fill:#7f7d87;}.cls-219{fill:#7e7e87;}.cls-220{fill:#63988d;}.cls-221{fill:#62998e;}.cls-222{fill:#619a8e;}.cls-223{fill:#609b8e;}.cls-224{fill:#5f9c8e;}.cls-225{fill:#5e9d8f;}.cls-226{fill:#5d9e8f;}.cls-227{fill:#5c9f8f;}.cls-228{fill:#5ba08f;}.cls-229{fill:#5aa18f;}.cls-230{fill:#59a290;}.cls-231{fill:#58a390;}.cls-232{fill:#57a490;}.cls-233{fill:#56a590;}.cls-234{fill:#55a691;}.cls-235{fill:#54a791;}.cls-236{fill:#53a891;}.cls-237{fill:#52a991;}.cls-238{fill:#51a992;}.cls-239{fill:#50aa92;}.cls-240{fill:#4fab92;}.cls-241{fill:#4eac92;}.cls-242{fill:#4dad93;}.cls-243{fill:#4cae93;}.cls-244{fill:#4baf93;}.cls-245{fill:#4ab093;}.cls-246{fill:#49b194;}.cls-247{fill:#48b294;}.cls-248{fill:#47b394;}.cls-249{fill:#46b494;}.cls-250{fill:#45b594;}.cls-251{fill:#44b695;}.cls-252{fill:#43b795;}.cls-253{fill:#42b895;}.cls-254{fill:#41b995;}.cls-255{fill:#40ba96;}.cls-256{fill:#3fbb96;}.cls-257{fill:#3ebc96;}.cls-258{fill:#3dbd96;}.cls-259{fill:#3cbe97;}.cls-260{fill:#3bbf97;}.cls-261{fill:#3ac097;}.cls-262{fill:#39c097;}.cls-263{fill:#38c198;}.cls-264{fill:#37c298;}.cls-265{fill:#36c398;}.cls-266{fill:#35c498;}.cls-267{fill:#34c599;}.cls-268{fill:#33c699;}.cls-269{fill:#32c799;}.cls-270{fill:#31c899;}.cls-271{fill:#30c99a;}.cls-272{fill:#2fca9a;}.cls-273{fill:#2ecb9a;}.cls-274{fill:#2dcc9a;}.cls-275{fill:#2ccd9a;}.cls-276{fill:#2bce9b;}.cls-277{fill:#2acf9b;}.cls-278{fill:#29d09b;}.cls-279{fill:#28d19b;}.cls-280{fill:#27d29c;}.cls-281{fill:#26d39c;}.cls-282{fill:#25d49c;}.cls-283{fill:#24d59c;}.cls-284{fill:#23d69d;}.cls-285{fill:#22d69d;}.cls-286{fill:#21d79d;}.cls-287{fill:#20d89d;}.cls-288{fill:#1fd99e;}.cls-289{fill:#1eda9e;}.cls-290{fill:#1ddb9e;}.cls-291{fill:#1cdc9e;}.cls-292{fill:#1bdd9f;}.cls-293{fill:#1ade9f;}.cls-294{fill:#19df9f;}.cls-295{fill:#18e09f;}.cls-296{fill:#17e19f;}.cls-297{fill:#16e2a0;}.cls-298{fill:#15e3a0;}.cls-299{fill:#14e4a0;}.cls-300{fill:#13e5a0;}.cls-301{fill:#12e6a1;}.cls-302{fill:#11e7a1;}.cls-303{fill:#10e8a1;}.cls-304{fill:#0fe9a1;}.cls-305{fill:#0eeaa2;}.cls-306{fill:#0deba2;}.cls-307{fill:#0ceca2;}.cls-308{fill:#0beca2;}.cls-309{fill:#0aeda3;}.cls-310{fill:#09eea3;}.cls-311{fill:#08efa3;}.cls-312{fill:#07f0a3;}.cls-313{fill:#06f1a4;}.cls-314{fill:#05f2a4;}.cls-315{fill:#04f3a4;}.cls-316{fill:#03f4a4;}.cls-317{fill:#02f5a5;}.cls-318{fill:#01f6a5;}.cls-319{fill:#00f7a5;}.cls-320{mask:url(#mask-2);}.cls-321{clip-path:url(#clip-path-2);}</style><mask id="mask" x="-40.86" y="23.23" width="337.37" height="328.78" maskUnits="userSpaceOnUse"><path class="cls-1" d="M109.23,232.82V233a2,2,0,0,0,1.49,1.95l36.58,9.78a2,2,0,0,0,2.54-1.95V237.1a2,2,0,0,0-1.5-1.95l-36.69-9.81a2,2,0,0,0-2.54,2Q109.23,230.09,109.23,232.82Z"/><path class="cls-1" d="M111.76,239.68a2,2,0,0,0-2.53,1.95v12.3a2.06,2.06,0,0,0,.6,1.45,2,2,0,0,0,1.44.6h36.52a2.05,2.05,0,0,0,2.05-2v-2.52a2,2,0,0,0-1.5-1.95Z"/><path class="cls-1" d="M129.53,49.05h-1.08c-42.81.73-69.28,47.13-48.64,84.64a285,285,0,0,1,14.6,30.67c6.52,16.21,12.14,34.93,14.08,54.28A2,2,0,0,0,110,220.4l37.4,10a2,2,0,0,0,2.53-1.89c.73-22.81,7.12-45.19,14.74-64.14a285,285,0,0,1,14.6-30.67c20.65-37.51-5.82-83.91-48.63-84.64h-1.09"/></mask><clipPath id="clip-path"><circle class="cls-2" cx="156.03" cy="154.12" r="113.09"/></clipPath><mask id="mask-2" x="-140.13" y="-44.02" width="480.33" height="439.63" maskUnits="userSpaceOnUse"><rect class="cls-1" x="188.78" y="28.31" width="17.38" height="37.1" rx="8.38" transform="translate(90.97 -125.9) rotate(45)"/><rect class="cls-1" x="54.69" y="28.31" width="17.38" height="37.1" rx="8.38" transform="translate(-14.57 58.54) rotate(-45)"/><rect class="cls-1" x="121.73" y="0.56" width="17.38" height="37.1" rx="8.38"/></mask><clipPath id="clip-path-2"><circle class="cls-2" cx="135.41" cy="146.8" r="164.86"/></clipPath></defs><g class="cls-3"><g id="Ball"><g class="cls-4"><circle class="cls-5" cx="228.86" cy="117.21" r="48.12"/><circle class="cls-6" cx="222.58" cy="110.86" r="48.12"/><circle class="cls-7" cx="216.41" cy="104.81" r="48.12"/><circle class="cls-8" cx="210.38" cy="99.1" r="48.12"/><circle class="cls-9" cx="204.53" cy="93.78" r="48.12"/><circle class="cls-10" cx="198.88" cy="88.9" r="48.12"/><circle class="cls-11" cx="193.48" cy="84.51" r="48.12"/><circle class="cls-12" cx="188.34" cy="80.67" r="48.12"/><circle class="cls-13" cx="183.52" cy="77.42" r="48.12"/><circle class="cls-14" cx="179.03" cy="74.82" r="48.12"/><circle class="cls-15" cx="174.91" cy="72.9" r="48.12"/><circle class="cls-16" cx="171.2" cy="71.73" r="48.12"/><circle class="cls-17" cx="167.92" cy="71.36" r="48.12"/><circle class="cls-18" cx="165.11" cy="71.82" r="48.12"/><circle class="cls-19" cx="162.47" cy="73.48" r="48.12"/><circle class="cls-20" cx="160.22" cy="76.95" r="48.12"/><circle class="cls-21" cx="158.91" cy="81.74" r="48.12"/><circle class="cls-22" cx="158.53" cy="87.53" r="48.12"/><circle class="cls-23" cx="159.07" cy="93.99" r="48.12"/><circle class="cls-24" cx="160.5" cy="100.81" r="48.12"/><circle class="cls-25" cx="162.82" cy="107.65" r="48.12"/><circle class="cls-26" cx="166.01" cy="114.21" r="48.12"/><circle class="cls-27" cx="170.33" cy="120.52" r="48.12"/><circle class="cls-28" cx="175.44" cy="125.91" r="48.12"/><circle class="cls-29" cx="181.13" cy="130.38" r="48.12"/><circle class="cls-30" cx="187.27" cy="134.05" r="48.12"/><circle class="cls-31" cx="193.74" cy="137.02" r="48.12"/><circle class="cls-32" cx="200.39" cy="139.42" r="48.12"/><circle class="cls-33" cx="207.1" cy="141.37" r="48.12"/><circle class="cls-34" cx="213.74" cy="142.97" r="48.12"/><circle class="cls-35" cx="220.17" cy="144.34" r="48.12"/><circle class="cls-36" cx="226.26" cy="145.59" r="48.12"/><circle class="cls-37" cx="231.89" cy="146.85" r="48.12"/><circle class="cls-38" cx="236.91" cy="148.22" r="48.12"/><circle class="cls-39" cx="241.19" cy="149.83" r="48.12"/><circle class="cls-40" cx="244.61" cy="151.78" r="48.12"/><circle class="cls-41" cx="247.03" cy="154.19" r="48.12"/><circle class="cls-42" cx="248.32" cy="157.18" r="48.12"/><circle class="cls-43" cx="248.39" cy="160.59" r="48.12"/><circle class="cls-44" cx="247.33" cy="164.36" r="48.12"/><circle class="cls-45" cx="245.26" cy="168.4" r="48.12"/><circle class="cls-46" cx="242.26" cy="172.63" r="48.12"/><circle class="cls-47" cx="238.45" cy="176.96" r="48.12"/><circle class="cls-47" cx="233.93" cy="181.31" r="48.12"/><circle class="cls-48" cx="228.8" cy="185.6" r="48.12"/><circle class="cls-49" cx="223.16" cy="189.74" r="48.12"/><circle class="cls-50" cx="217.13" cy="193.65" r="48.12"/><circle class="cls-51" cx="210.79" cy="197.25" r="48.12"/><circle class="cls-52" cx="204.25" cy="200.45" r="48.12"/><circle class="cls-53" cx="197.62" cy="203.18" r="48.12"/><circle class="cls-54" cx="190.99" cy="205.33" r="48.12"/><circle class="cls-55" cx="184.48" cy="206.84" r="48.12"/><circle class="cls-56" cx="178.18" cy="207.62" r="48.12"/><circle class="cls-57" cx="172.2" cy="207.59" r="48.12"/><circle class="cls-58" cx="166.63" cy="206.65" r="48.12"/><circle class="cls-59" cx="161.59" cy="204.74" r="48.12"/><circle class="cls-60" cx="157.36" cy="201.92" r="48.12"/><circle class="cls-61" cx="154.05" cy="198.39" r="48.12"/><circle class="cls-62" cx="151.49" cy="194.18" r="48.12"/><circle class="cls-63" cx="149.61" cy="189.36" r="48.12"/><circle class="cls-64" cx="148.32" cy="184" r="48.12"/><circle class="cls-65" cx="147.56" cy="178.18" r="48.12"/><circle class="cls-66" cx="147.22" cy="171.97" r="48.12"/><circle class="cls-67" cx="147.25" cy="165.43" r="48.12"/><circle class="cls-68" cx="147.54" cy="158.64" r="48.12"/><circle class="cls-69" cx="148.03" cy="151.67" r="48.12"/><circle class="cls-70" cx="148.63" cy="144.59" r="48.12"/><circle class="cls-71" cx="149.27" cy="137.48" r="48.12"/><circle class="cls-72" cx="149.85" cy="130.39" r="48.12"/><circle class="cls-73" cx="150.31" cy="123.42" r="48.12"/><circle class="cls-74" cx="150.56" cy="116.61" r="48.12"/><circle class="cls-75" cx="150.51" cy="110.06" r="48.12"/><circle class="cls-76" cx="150.1" cy="103.82" r="48.12"/><circle class="cls-77" cx="149.23" cy="97.97" r="48.12"/><circle class="cls-78" cx="147.83" cy="92.58" r="48.12"/><circle class="cls-79" cx="145.81" cy="87.73" r="48.12"/><circle class="cls-80" cx="143.11" cy="83.48" r="48.12"/><circle class="cls-81" cx="139.62" cy="79.9" r="48.12"/><circle class="cls-82" cx="135.31" cy="77.08" r="48.12"/><circle class="cls-83" cx="130.36" cy="75.15" r="48.12"/><circle class="cls-84" cx="124.91" cy="74.07" r="48.12"/><circle class="cls-85" cx="119.06" cy="73.79" r="48.12"/><circle class="cls-86" cx="112.91" cy="74.25" r="48.12"/><circle class="cls-87" cx="106.55" cy="75.37" r="48.12"/><circle class="cls-88" cx="100.11" cy="77.11" r="48.12"/><circle class="cls-89" cx="93.67" cy="79.4" r="48.12"/><circle class="cls-90" cx="88.44" cy="81.66" r="48.12"/><circle class="cls-91" cx="84.93" cy="83.38" r="48.12"/><circle class="cls-92" cx="82.57" cy="84.63" r="48.12"/><circle class="cls-93" cx="80.26" cy="85.95" r="48.12"/><circle class="cls-94" cx="77.99" cy="87.31" r="48.12"/><circle class="cls-95" cx="75.77" cy="88.73" r="48.12"/><circle class="cls-96" cx="73.62" cy="90.19" r="48.12"/><circle class="cls-97" cx="71.53" cy="91.69" r="48.12"/><circle class="cls-98" cx="69.52" cy="93.24" r="48.12"/><circle class="cls-99" cx="67.58" cy="94.82" r="48.12"/><circle class="cls-100" cx="65.73" cy="96.43" r="48.12"/><circle class="cls-101" cx="63.97" cy="98.08" r="48.12"/><circle class="cls-102" cx="62.3" cy="99.75" r="48.12"/><circle class="cls-103" cx="60.74" cy="101.44" r="48.12"/><circle class="cls-104" cx="59.28" cy="103.15" r="48.12"/><circle class="cls-105" cx="57.94" cy="104.87" r="48.12"/><circle class="cls-106" cx="56.71" cy="106.61" r="48.12"/><circle class="cls-107" cx="55.61" cy="108.35" r="48.12"/><circle class="cls-108" cx="54.65" cy="110.1" r="48.12"/><circle class="cls-109" cx="53.82" cy="111.85" r="48.12"/><circle class="cls-110" cx="53.13" cy="113.6" r="48.12"/><circle class="cls-111" cx="52.59" cy="115.34" r="48.12"/><circle class="cls-112" cx="52.2" cy="117.08" r="48.12"/><circle class="cls-113" cx="51.98" cy="118.8" r="48.12"/><circle class="cls-114" cx="51.92" cy="120.44" r="48.12"/><circle class="cls-115" cx="52" cy="121.81" r="48.12"/><circle class="cls-116" cx="52.19" cy="123.13" r="48.12"/><circle class="cls-117" cx="52.5" cy="124.38" r="48.12"/><circle class="cls-118" cx="52.91" cy="125.59" r="48.12"/><circle class="cls-119" cx="53.44" cy="126.76" r="48.12"/><circle class="cls-120" cx="54.07" cy="127.89" r="48.12"/><circle class="cls-121" cx="54.8" cy="128.98" r="48.12"/><circle class="cls-122" cx="55.64" cy="130.05" r="48.12"/><circle class="cls-123" cx="56.57" cy="131.1" r="48.12"/><circle class="cls-124" cx="57.59" cy="132.14" r="48.12"/><circle class="cls-125" cx="58.71" cy="133.16" r="48.12"/><circle class="cls-126" cx="59.91" cy="134.19" r="48.12"/><circle class="cls-127" cx="61.2" cy="135.21" r="48.12"/><circle class="cls-128" cx="62.57" cy="136.25" r="48.12"/><circle class="cls-129" cx="64.02" cy="137.29" r="48.12"/><circle class="cls-130" cx="65.55" cy="138.36" r="48.12"/><circle class="cls-131" cx="67.16" cy="139.45" r="48.12"/><circle class="cls-132" cx="68.84" cy="140.58" r="48.12"/><circle class="cls-133" cx="70.58" cy="141.74" r="48.12"/><circle class="cls-134" cx="72.39" cy="142.95" r="48.12"/><circle class="cls-135" cx="74.27" cy="144.2" r="48.12"/><circle class="cls-136" cx="76.2" cy="145.51" r="48.12"/><circle class="cls-137" cx="78.2" cy="146.87" r="48.12"/><circle class="cls-138" cx="80.25" cy="148.31" r="48.12"/><circle class="cls-139" cx="82.35" cy="149.81" r="48.12"/><circle class="cls-140" cx="84.5" cy="151.39" r="48.12"/><circle class="cls-141" cx="86.7" cy="153.06" r="48.12"/><circle class="cls-142" cx="88.94" cy="154.81" r="48.12"/><circle class="cls-143" cx="91.22" cy="156.66" r="48.12"/><circle class="cls-144" cx="93.54" cy="158.61" r="48.12"/><circle class="cls-145" cx="95.9" cy="160.66" r="48.12"/><circle class="cls-146" cx="98.29" cy="162.83" r="48.12"/><circle class="cls-147" cx="100.71" cy="165.11" r="48.12"/><circle class="cls-148" cx="103.15" cy="167.52" r="48.12"/><circle class="cls-149" cx="105.62" cy="170.05" r="48.12"/><circle class="cls-150" cx="108.12" cy="172.72" r="48.12"/><circle class="cls-151" cx="110.63" cy="175.53" r="48.12"/><circle class="cls-152" cx="113.15" cy="178.49" r="48.12"/><circle class="cls-153" cx="115.7" cy="181.6" r="48.12"/><circle class="cls-154" cx="118" cy="184.54" r="48.12"/><circle class="cls-155" cx="119.9" cy="187.06" r="48.12"/><circle class="cls-156" cx="121.63" cy="189.46" r="48.12"/><circle class="cls-157" cx="123.2" cy="191.74" r="48.12"/><circle class="cls-158" cx="124.63" cy="193.91" r="48.12"/><circle class="cls-159" cx="125.94" cy="195.98" r="48.12"/><circle class="cls-160" cx="127.13" cy="197.96" r="48.12"/><circle class="cls-161" cx="128.22" cy="199.87" r="48.12"/><circle class="cls-162" cx="129.22" cy="201.7" r="48.12"/><circle class="cls-163" cx="130.14" cy="203.48" r="48.12"/><circle class="cls-164" cx="131" cy="205.21" r="48.12"/><circle class="cls-165" cx="131.81" cy="206.89" r="48.12"/><circle class="cls-166" cx="132.58" cy="208.55" r="48.12"/><circle class="cls-167" cx="133.34" cy="210.19" r="48.12"/><circle class="cls-168" cx="134.08" cy="211.81" r="48.12"/><circle class="cls-169" cx="134.82" cy="213.43" r="48.12"/><circle class="cls-170" cx="135.58" cy="215.07" r="48.12"/><circle class="cls-171" cx="136.37" cy="216.72" r="48.12"/><circle class="cls-172" cx="137.2" cy="218.4" r="48.12"/><circle class="cls-173" cx="138.08" cy="220.11" r="48.12"/><circle class="cls-174" cx="139.04" cy="221.87" r="48.12"/><circle class="cls-175" cx="140.07" cy="223.69" r="48.12"/><circle class="cls-176" cx="141.2" cy="225.58" r="48.12"/><circle class="cls-177" cx="142.44" cy="227.54" r="48.12"/><circle class="cls-178" cx="143.8" cy="229.59" r="48.12"/><circle class="cls-179" cx="145.29" cy="231.73" r="48.12"/><circle class="cls-180" cx="146.93" cy="233.98" r="48.12"/><circle class="cls-181" cx="148.73" cy="236.34" r="48.12"/><circle class="cls-182" cx="150.7" cy="238.83" r="48.12"/><circle class="cls-183" cx="152.86" cy="241.45" r="48.12"/><circle class="cls-184" cx="155.34" cy="244.36" r="48.12"/><circle class="cls-185" cx="157.82" cy="247.15" r="48.12"/><circle class="cls-186" cx="160.26" cy="249.81" r="48.12"/><circle class="cls-187" cx="162.67" cy="252.35" r="48.12"/><circle class="cls-188" cx="165.04" cy="254.77" r="48.12"/><circle class="cls-189" cx="167.36" cy="257.08" r="48.12"/><circle class="cls-190" cx="169.63" cy="259.28" r="48.12"/><circle class="cls-191" cx="171.85" cy="261.38" r="48.12"/><circle class="cls-192" cx="174.02" cy="263.39" r="48.12"/><circle class="cls-193" cx="176.12" cy="265.3" r="48.12"/><circle class="cls-194" cx="178.15" cy="267.13" r="48.12"/><circle class="cls-195" cx="180.11" cy="268.89" r="48.12"/><circle class="cls-196" cx="181.99" cy="270.57" r="48.12"/><circle class="cls-197" cx="183.79" cy="272.18" r="48.12"/><circle class="cls-198" cx="185.51" cy="273.73" r="48.12"/><circle class="cls-199" cx="187.14" cy="275.23" r="48.12"/><circle class="cls-200" cx="188.67" cy="276.68" r="48.12"/><circle class="cls-201" cx="190.1" cy="278.08" r="48.12"/><circle class="cls-202" cx="191.43" cy="279.45" r="48.12"/><circle class="cls-203" cx="192.64" cy="280.78" r="48.12"/><circle class="cls-204" cx="193.75" cy="282.09" r="48.12"/><circle class="cls-205" cx="194.74" cy="283.38" r="48.12"/><circle class="cls-206" cx="195.6" cy="284.65" r="48.12"/><circle class="cls-207" cx="196.34" cy="285.91" r="48.12"/><circle class="cls-208" cx="196.95" cy="287.17" r="48.12"/><circle class="cls-209" cx="197.42" cy="288.43" r="48.12"/><circle class="cls-210" cx="197.74" cy="289.7" r="48.12"/><circle class="cls-211" cx="197.93" cy="290.98" r="48.12"/><circle class="cls-212" cx="197.96" cy="292.28" r="48.12"/><circle class="cls-213" cx="197.84" cy="293.61" r="48.12"/><circle class="cls-214" cx="197.47" cy="295.28" r="48.12"/><circle class="cls-215" cx="196.79" cy="297.14" r="48.12"/><circle class="cls-216" cx="195.84" cy="298.93" r="48.12"/><circle class="cls-217" cx="194.64" cy="300.66" r="48.12"/><circle class="cls-218" cx="193.23" cy="302.31" r="48.12"/><circle class="cls-219" cx="191.62" cy="303.89" r="48.12"/><circle class="cls-220" cx="143.27" cy="303.81" r="48.12"/><circle class="cls-221" cx="141.66" cy="302.58" r="48.12"/><circle class="cls-222" cx="140.03" cy="301.28" r="48.12"/><circle class="cls-223" cx="138.38" cy="299.93" r="48.12"/><circle class="cls-224" cx="136.73" cy="298.51" r="48.12"/><circle class="cls-225" cx="135.05" cy="297.03" r="48.12"/><circle class="cls-226" cx="133.37" cy="295.5" r="48.12"/><circle class="cls-227" cx="131.67" cy="293.91" r="48.12"/><circle class="cls-228" cx="129.96" cy="292.26" r="48.12"/><circle class="cls-229" cx="128.24" cy="290.57" r="48.12"/><circle class="cls-230" cx="126.5" cy="288.81" r="48.12"/><circle class="cls-231" cx="124.76" cy="287.01" r="48.12"/><circle class="cls-232" cx="123.01" cy="285.16" r="48.12"/><circle class="cls-233" cx="121.25" cy="283.27" r="48.12"/><circle class="cls-234" cx="119.48" cy="281.32" r="48.12"/><circle class="cls-235" cx="117.7" cy="279.33" r="48.12"/><circle class="cls-236" cx="115.92" cy="277.3" r="48.12"/><circle class="cls-237" cx="114.13" cy="275.23" r="48.12"/><circle class="cls-238" cx="112.33" cy="273.12" r="48.12"/><circle class="cls-239" cx="110.53" cy="270.97" r="48.12"/><circle class="cls-240" cx="108.73" cy="268.78" r="48.12"/><circle class="cls-241" cx="106.92" cy="266.55" r="48.12"/><circle class="cls-242" cx="105.11" cy="264.3" r="48.12"/><circle class="cls-243" cx="103.3" cy="262.01" r="48.12"/><circle class="cls-244" cx="101.48" cy="259.69" r="48.12"/><circle class="cls-245" cx="99.66" cy="257.33" r="48.12"/><circle class="cls-246" cx="97.85" cy="254.96" r="48.12"/><circle class="cls-247" cx="96.03" cy="252.55" r="48.12"/><circle class="cls-248" cx="94.21" cy="250.12" r="48.12"/><circle class="cls-249" cx="92.4" cy="247.66" r="48.12"/><circle class="cls-250" cx="90.59" cy="245.19" r="48.12"/><circle class="cls-251" cx="88.78" cy="242.69" r="48.12"/><circle class="cls-252" cx="86.97" cy="240.17" r="48.12"/><circle class="cls-253" cx="85.17" cy="237.64" r="48.12"/><circle class="cls-254" cx="83.37" cy="235.09" r="48.12"/><circle class="cls-255" cx="81.58" cy="232.52" r="48.12"/><circle class="cls-256" cx="79.79" cy="229.95" r="48.12"/><circle class="cls-257" cx="78.01" cy="227.36" r="48.12"/><circle class="cls-258" cx="76.24" cy="224.76" r="48.12"/><circle class="cls-259" cx="74.48" cy="222.15" r="48.12"/><circle class="cls-260" cx="72.72" cy="219.53" r="48.12"/><circle class="cls-261" cx="70.97" cy="216.91" r="48.12"/><circle class="cls-262" cx="69.24" cy="214.28" r="48.12"/><circle class="cls-263" cx="67.51" cy="211.65" r="48.12"/><circle class="cls-264" cx="65.79" cy="209.02" r="48.12"/><circle class="cls-265" cx="64.09" cy="206.39" r="48.12"/><circle class="cls-266" cx="62.4" cy="203.77" r="48.12"/><circle class="cls-267" cx="60.72" cy="201.14" r="48.12"/><circle class="cls-268" cx="59.06" cy="198.52" r="48.12"/><circle class="cls-269" cx="57.4" cy="195.91" r="48.12"/><circle class="cls-270" cx="55.77" cy="193.3" r="48.12"/><circle class="cls-271" cx="54.15" cy="190.7" r="48.12"/><circle class="cls-272" cx="52.55" cy="188.12" r="48.12"/><circle class="cls-273" cx="50.96" cy="185.54" r="48.12"/><circle class="cls-274" cx="49.39" cy="182.98" r="48.12"/><circle class="cls-275" cx="47.84" cy="180.43" r="48.12"/><circle class="cls-276" cx="46.3" cy="177.9" r="48.12"/><circle class="cls-277" cx="44.79" cy="175.39" r="48.12"/><circle class="cls-278" cx="43.3" cy="172.9" r="48.12"/><circle class="cls-279" cx="41.83" cy="170.43" r="48.12"/><circle class="cls-280" cx="40.37" cy="167.98" r="48.12"/><circle class="cls-281" cx="38.95" cy="165.56" r="48.12"/><circle class="cls-282" cx="37.54" cy="163.16" r="48.12"/><circle class="cls-283" cx="36.16" cy="160.79" r="48.12"/><circle class="cls-284" cx="34.8" cy="158.44" r="48.12"/><circle class="cls-285" cx="33.46" cy="156.13" r="48.12"/><circle class="cls-286" cx="32.15" cy="153.85" r="48.12"/><circle class="cls-287" cx="30.87" cy="151.6" r="48.12"/><circle class="cls-288" cx="29.61" cy="149.39" r="48.12"/><circle class="cls-289" cx="28.38" cy="147.21" r="48.12"/><circle class="cls-290" cx="27.18" cy="145.07" r="48.12"/><circle class="cls-291" cx="26" cy="142.97" r="48.12"/><circle class="cls-292" cx="24.86" cy="140.9" r="48.12"/><circle class="cls-293" cx="23.74" cy="138.88" r="48.12"/><circle class="cls-294" cx="22.66" cy="136.91" r="48.12"/><circle class="cls-295" cx="21.6" cy="134.98" r="48.12"/><circle class="cls-296" cx="20.58" cy="133.09" r="48.12"/><circle class="cls-297" cx="19.59" cy="131.25" r="48.12"/><circle class="cls-298" cx="18.63" cy="129.47" r="48.12"/><circle class="cls-299" cx="17.71" cy="127.73" r="48.12"/><circle class="cls-300" cx="16.82" cy="126.05" r="48.12"/><circle class="cls-301" cx="15.97" cy="124.41" r="48.12"/><circle class="cls-302" cx="15.15" cy="122.84" r="48.12"/><circle class="cls-303" cx="14.36" cy="121.32" r="48.12"/><circle class="cls-304" cx="13.62" cy="119.86" r="48.12"/><circle class="cls-305" cx="12.91" cy="118.46" r="48.12"/><circle class="cls-306" cx="12.24" cy="117.12" r="48.12"/><circle class="cls-307" cx="11.6" cy="115.84" r="48.12"/><circle class="cls-308" cx="11.01" cy="114.63" r="48.12"/><circle class="cls-309" cx="10.46" cy="113.48" r="48.12"/><circle class="cls-310" cx="9.95" cy="112.41" r="48.12"/><circle class="cls-311" cx="9.47" cy="111.39" r="48.12"/><circle class="cls-312" cx="9.04" cy="110.45" r="48.12"/><circle class="cls-313" cx="8.66" cy="109.59" r="48.12"/><circle class="cls-314" cx="8.31" cy="108.79" r="48.12"/><circle class="cls-315" cx="8.01" cy="108.07" r="48.12"/><circle class="cls-316" cx="7.76" cy="107.42" r="48.12"/><circle class="cls-317" cx="7.55" cy="106.86" r="48.12"/><circle class="cls-318" cx="7.38" cy="106.37" r="48.12"/><circle class="cls-319" cx="7.26" cy="105.96" r="48.12"/></g></g></g><g class="cls-320"><g id="Ball-2" data-name="Ball"><g class="cls-321"><circle class="cls-5" cx="241.58" cy="92.99" r="70.15"/><circle class="cls-6" cx="232.42" cy="83.74" r="70.15"/><circle class="cls-7" cx="223.43" cy="74.91" r="70.15"/><circle class="cls-8" cx="214.64" cy="66.58" r="70.15"/><circle class="cls-9" cx="206.11" cy="58.83" r="70.15"/><circle class="cls-10" cx="197.88" cy="51.72" r="70.15"/><circle class="cls-11" cx="190" cy="45.32" r="70.15"/><circle class="cls-12" cx="182.52" cy="39.72" r="70.15"/><circle class="cls-13" cx="175.48" cy="34.99" r="70.15"/><circle class="cls-14" cx="168.94" cy="31.19" r="70.15"/><circle class="cls-15" cx="162.94" cy="28.4" r="70.15"/><circle class="cls-16" cx="157.52" cy="26.69" r="70.15"/><circle class="cls-17" cx="152.74" cy="26.14" r="70.15"/><circle class="cls-18" cx="148.65" cy="26.82" r="70.15"/><circle class="cls-19" cx="144.8" cy="29.24" r="70.15"/><circle class="cls-20" cx="141.52" cy="34.3" r="70.15"/><circle class="cls-21" cx="139.61" cy="41.28" r="70.15"/><circle class="cls-22" cx="139.06" cy="49.71" r="70.15"/><circle class="cls-23" cx="139.84" cy="59.14" r="70.15"/><circle class="cls-24" cx="141.93" cy="69.07" r="70.15"/><circle class="cls-25" cx="145.31" cy="79.05" r="70.15"/><circle class="cls-26" cx="149.96" cy="88.6" r="70.15"/><circle class="cls-27" cx="156.26" cy="97.81" r="70.15"/><circle class="cls-28" cx="163.7" cy="105.67" r="70.15"/><circle class="cls-29" cx="172" cy="112.19" r="70.15"/><circle class="cls-30" cx="180.95" cy="117.53" r="70.15"/><circle class="cls-31" cx="190.38" cy="121.87" r="70.15"/><circle class="cls-32" cx="200.08" cy="125.37" r="70.15"/><circle class="cls-33" cx="209.86" cy="128.21" r="70.15"/><circle class="cls-34" cx="219.54" cy="130.54" r="70.15"/><circle class="cls-35" cx="228.92" cy="132.53" r="70.15"/><circle class="cls-36" cx="237.8" cy="134.37" r="70.15"/><circle class="cls-37" cx="246" cy="136.2" r="70.15"/><circle class="cls-38" cx="253.32" cy="138.2" r="70.15"/><circle class="cls-39" cx="259.56" cy="140.54" r="70.15"/><circle class="cls-40" cx="264.55" cy="143.39" r="70.15"/><circle class="cls-41" cx="268.08" cy="146.91" r="70.15"/><circle class="cls-42" cx="269.96" cy="151.26" r="70.15"/><circle class="cls-43" cx="270.05" cy="156.24" r="70.15"/><circle class="cls-44" cx="268.51" cy="161.73" r="70.15"/><circle class="cls-45" cx="265.48" cy="167.62" r="70.15"/><circle class="cls-46" cx="261.11" cy="173.78" r="70.15"/><circle class="cls-47" cx="255.56" cy="180.1" r="70.15"/><circle class="cls-47" cx="248.97" cy="186.44" r="70.15"/><circle class="cls-48" cx="241.49" cy="192.69" r="70.15"/><circle class="cls-49" cx="233.27" cy="198.73" r="70.15"/><circle class="cls-50" cx="224.47" cy="204.43" r="70.15"/><circle class="cls-51" cx="215.23" cy="209.68" r="70.15"/><circle class="cls-52" cx="205.7" cy="214.35" r="70.15"/><circle class="cls-53" cx="196.03" cy="218.31" r="70.15"/><circle class="cls-54" cx="186.37" cy="221.46" r="70.15"/><circle class="cls-55" cx="176.88" cy="223.66" r="70.15"/><circle class="cls-56" cx="167.69" cy="224.79" r="70.15"/><circle class="cls-57" cx="158.97" cy="224.74" r="70.15"/><circle class="cls-58" cx="150.86" cy="223.38" r="70.15"/><circle class="cls-59" cx="143.51" cy="220.59" r="70.15"/><circle class="cls-60" cx="137.35" cy="216.47" r="70.15"/><circle class="cls-61" cx="132.51" cy="211.33" r="70.15"/><circle class="cls-62" cx="128.79" cy="205.19" r="70.15"/><circle class="cls-63" cx="126.05" cy="198.16" r="70.15"/><circle class="cls-64" cx="124.17" cy="190.35" r="70.15"/><circle class="cls-65" cx="123.06" cy="181.87" r="70.15"/><circle class="cls-66" cx="122.57" cy="172.81" r="70.15"/><circle class="cls-67" cx="122.6" cy="163.28" r="70.15"/><circle class="cls-68" cx="123.04" cy="153.38" r="70.15"/><circle class="cls-69" cx="123.75" cy="143.22" r="70.15"/><circle class="cls-70" cx="124.63" cy="132.9" r="70.15"/><circle class="cls-71" cx="125.55" cy="122.53" r="70.15"/><circle class="cls-72" cx="126.41" cy="112.2" r="70.15"/><circle class="cls-73" cx="127.07" cy="102.03" r="70.15"/><circle class="cls-74" cx="127.43" cy="92.11" r="70.15"/><circle class="cls-75" cx="127.36" cy="82.56" r="70.15"/><circle class="cls-76" cx="126.76" cy="73.46" r="70.15"/><circle class="cls-77" cx="125.49" cy="64.94" r="70.15"/><circle class="cls-78" cx="123.45" cy="57.09" r="70.15"/><circle class="cls-79" cx="120.51" cy="50.01" r="70.15"/><circle class="cls-80" cx="116.57" cy="43.81" r="70.15"/><circle class="cls-81" cx="111.49" cy="38.59" r="70.15"/><circle class="cls-82" cx="105.21" cy="34.48" r="70.15"/><circle class="cls-83" cx="97.99" cy="31.67" r="70.15"/><circle class="cls-84" cx="90.04" cy="30.1" r="70.15"/><circle class="cls-85" cx="81.51" cy="29.7" r="70.15"/><circle class="cls-86" cx="72.54" cy="30.36" r="70.15"/><circle class="cls-87" cx="63.28" cy="32" r="70.15"/><circle class="cls-88" cx="53.88" cy="34.53" r="70.15"/><circle class="cls-89" cx="44.49" cy="37.87" r="70.15"/><circle class="cls-90" cx="36.87" cy="41.16" r="70.15"/><circle class="cls-91" cx="31.76" cy="43.67" r="70.15"/><circle class="cls-92" cx="28.32" cy="45.5" r="70.15"/><circle class="cls-93" cx="24.94" cy="47.41" r="70.15"/><circle class="cls-94" cx="21.64" cy="49.4" r="70.15"/><circle class="cls-95" cx="18.41" cy="51.46" r="70.15"/><circle class="cls-96" cx="15.27" cy="53.59" r="70.15"/><circle class="cls-97" cx="12.23" cy="55.79" r="70.15"/><circle class="cls-98" cx="9.29" cy="58.04" r="70.15"/><circle class="cls-99" cx="6.47" cy="60.35" r="70.15"/><circle class="cls-100" cx="3.77" cy="62.7" r="70.15"/><circle class="cls-101" cx="1.2" cy="65.1" r="70.15"/><circle class="cls-102" cx="-1.23" cy="67.53" r="70.15"/><circle class="cls-103" cx="-3.51" cy="69.99" r="70.15"/><circle class="cls-104" cx="-5.63" cy="72.49" r="70.15"/><circle class="cls-105" cx="-7.59" cy="75" r="70.15"/><circle class="cls-106" cx="-9.38" cy="77.53" r="70.15"/><circle class="cls-107" cx="-10.98" cy="80.08" r="70.15"/><circle class="cls-108" cx="-12.39" cy="82.63" r="70.15"/><circle class="cls-109" cx="-13.6" cy="85.18" r="70.15"/><circle class="cls-110" cx="-14.6" cy="87.73" r="70.15"/><circle class="cls-111" cx="-15.39" cy="90.27" r="70.15"/><circle class="cls-112" cx="-15.95" cy="92.79" r="70.15"/><circle class="cls-113" cx="-16.28" cy="95.3" r="70.15"/><circle class="cls-114" cx="-16.36" cy="97.69" r="70.15"/><circle class="cls-115" cx="-16.25" cy="99.7" r="70.15"/><circle class="cls-116" cx="-15.97" cy="101.61" r="70.15"/><circle class="cls-117" cx="-15.52" cy="103.44" r="70.15"/><circle class="cls-118" cx="-14.92" cy="105.21" r="70.15"/><circle class="cls-119" cx="-14.15" cy="106.91" r="70.15"/><circle class="cls-120" cx="-13.23" cy="108.55" r="70.15"/><circle class="cls-121" cx="-12.16" cy="110.15" r="70.15"/><circle class="cls-122" cx="-10.95" cy="111.71" r="70.15"/><circle class="cls-123" cx="-9.59" cy="113.24" r="70.15"/><circle class="cls-124" cx="-8.1" cy="114.75" r="70.15"/><circle class="cls-125" cx="-6.47" cy="116.24" r="70.15"/><circle class="cls-126" cx="-4.72" cy="117.74" r="70.15"/><circle class="cls-127" cx="-2.84" cy="119.23" r="70.15"/><circle class="cls-128" cx="-0.84" cy="120.74" r="70.15"/><circle class="cls-129" cx="1.28" cy="122.27" r="70.15"/><circle class="cls-130" cx="3.51" cy="123.82" r="70.15"/><circle class="cls-131" cx="5.85" cy="125.42" r="70.15"/><circle class="cls-132" cx="8.3" cy="127.06" r="70.15"/><circle class="cls-133" cx="10.84" cy="128.75" r="70.15"/><circle class="cls-134" cx="13.48" cy="130.51" r="70.15"/><circle class="cls-135" cx="16.22" cy="132.33" r="70.15"/><circle class="cls-136" cx="19.04" cy="134.24" r="70.15"/><circle class="cls-137" cx="21.95" cy="136.23" r="70.15"/><circle class="cls-138" cx="24.93" cy="138.32" r="70.15"/><circle class="cls-139" cx="28" cy="140.52" r="70.15"/><circle class="cls-140" cx="31.13" cy="142.82" r="70.15"/><circle class="cls-141" cx="34.33" cy="145.25" r="70.15"/><circle class="cls-142" cx="37.6" cy="147.81" r="70.15"/><circle class="cls-143" cx="40.93" cy="150.5" r="70.15"/><circle class="cls-144" cx="44.31" cy="153.34" r="70.15"/><circle class="cls-145" cx="47.75" cy="156.33" r="70.15"/><circle class="cls-146" cx="51.23" cy="159.49" r="70.15"/><circle class="cls-147" cx="54.76" cy="162.82" r="70.15"/><circle class="cls-148" cx="58.33" cy="166.33" r="70.15"/><circle class="cls-149" cx="61.93" cy="170.02" r="70.15"/><circle class="cls-150" cx="65.56" cy="173.92" r="70.15"/><circle class="cls-151" cx="69.22" cy="178.01" r="70.15"/><circle class="cls-152" cx="72.91" cy="182.32" r="70.15"/><circle class="cls-153" cx="76.61" cy="186.85" r="70.15"/><circle class="cls-154" cx="79.97" cy="191.15" r="70.15"/><circle class="cls-155" cx="82.74" cy="194.82" r="70.15"/><circle class="cls-156" cx="85.26" cy="198.31" r="70.15"/><circle class="cls-157" cx="87.55" cy="201.63" r="70.15"/><circle class="cls-158" cx="89.64" cy="204.8" r="70.15"/><circle class="cls-159" cx="91.54" cy="207.82" r="70.15"/><circle class="cls-160" cx="93.28" cy="210.71" r="70.15"/><circle class="cls-161" cx="94.86" cy="213.49" r="70.15"/><circle class="cls-162" cx="96.32" cy="216.16" r="70.15"/><circle class="cls-163" cx="97.66" cy="218.75" r="70.15"/><circle class="cls-164" cx="98.92" cy="221.27" r="70.15"/><circle class="cls-165" cx="100.1" cy="223.73" r="70.15"/><circle class="cls-166" cx="101.23" cy="226.15" r="70.15"/><circle class="cls-167" cx="102.32" cy="228.53" r="70.15"/><circle class="cls-168" cx="103.4" cy="230.9" r="70.15"/><circle class="cls-169" cx="104.49" cy="233.27" r="70.15"/><circle class="cls-170" cx="105.6" cy="235.65" r="70.15"/><circle class="cls-171" cx="106.75" cy="238.05" r="70.15"/><circle class="cls-172" cx="107.96" cy="240.5" r="70.15"/><circle class="cls-173" cx="109.25" cy="243" r="70.15"/><circle class="cls-174" cx="110.64" cy="245.57" r="70.15"/><circle class="cls-175" cx="112.15" cy="248.22" r="70.15"/><circle class="cls-176" cx="113.8" cy="250.97" r="70.15"/><circle class="cls-177" cx="115.6" cy="253.83" r="70.15"/><circle class="cls-178" cx="117.58" cy="256.82" r="70.15"/><circle class="cls-179" cx="119.75" cy="259.94" r="70.15"/><circle class="cls-180" cx="122.14" cy="263.22" r="70.15"/><circle class="cls-181" cx="124.77" cy="266.66" r="70.15"/><circle class="cls-182" cx="127.64" cy="270.29" r="70.15"/><circle class="cls-183" cx="130.79" cy="274.11" r="70.15"/><circle class="cls-184" cx="134.41" cy="278.35" r="70.15"/><circle class="cls-185" cx="138.01" cy="282.42" r="70.15"/><circle class="cls-186" cx="141.58" cy="286.3" r="70.15"/><circle class="cls-187" cx="145.09" cy="290" r="70.15"/><circle class="cls-188" cx="148.54" cy="293.53" r="70.15"/><circle class="cls-189" cx="151.93" cy="296.9" r="70.15"/><circle class="cls-190" cx="155.24" cy="300.11" r="70.15"/><circle class="cls-191" cx="158.48" cy="303.17" r="70.15"/><circle class="cls-192" cx="161.63" cy="306.09" r="70.15"/><circle class="cls-193" cx="164.69" cy="308.88" r="70.15"/><circle class="cls-194" cx="167.66" cy="311.55" r="70.15"/><circle class="cls-195" cx="170.51" cy="314.11" r="70.15"/><circle class="cls-196" cx="173.26" cy="316.56" r="70.15"/><circle class="cls-197" cx="175.89" cy="318.91" r="70.15"/><circle class="cls-198" cx="178.39" cy="321.17" r="70.15"/><circle class="cls-199" cx="180.76" cy="323.35" r="70.15"/><circle class="cls-200" cx="182.99" cy="325.46" r="70.15"/><circle class="cls-237" cx="74.32" cy="323.35" r="70.15"/><circle class="cls-238" cx="71.71" cy="320.27" r="70.15"/><circle class="cls-239" cx="69.08" cy="317.14" r="70.15"/><circle class="cls-240" cx="66.45" cy="313.95" r="70.15"/><circle class="cls-241" cx="63.82" cy="310.7" r="70.15"/><circle class="cls-242" cx="61.18" cy="307.41" r="70.15"/><circle class="cls-243" cx="58.53" cy="304.07" r="70.15"/><circle class="cls-244" cx="55.88" cy="300.69" r="70.15"/><circle class="cls-245" cx="53.24" cy="297.26" r="70.15"/><circle class="cls-246" cx="50.59" cy="293.79" r="70.15"/><circle class="cls-247" cx="47.94" cy="290.29" r="70.15"/><circle class="cls-248" cx="45.29" cy="286.74" r="70.15"/><circle class="cls-249" cx="42.65" cy="283.17" r="70.15"/><circle class="cls-250" cx="40" cy="279.55" r="70.15"/><circle class="cls-251" cx="37.37" cy="275.91" r="70.15"/><circle class="cls-252" cx="34.73" cy="272.25" r="70.15"/><circle class="cls-253" cx="32.11" cy="268.55" r="70.15"/><circle class="cls-254" cx="29.49" cy="264.83" r="70.15"/><circle class="cls-255" cx="26.87" cy="261.09" r="70.15"/><circle class="cls-256" cx="24.27" cy="257.34" r="70.15"/><circle class="cls-257" cx="21.67" cy="253.56" r="70.15"/><circle class="cls-258" cx="19.09" cy="249.77" r="70.15"/><circle class="cls-259" cx="16.52" cy="245.97" r="70.15"/><circle class="cls-260" cx="13.96" cy="242.15" r="70.15"/><circle class="cls-261" cx="11.41" cy="238.33" r="70.15"/><circle class="cls-262" cx="8.88" cy="234.5" r="70.15"/><circle class="cls-263" cx="6.36" cy="230.67" r="70.15"/><circle class="cls-264" cx="3.86" cy="226.84" r="70.15"/><circle class="cls-265" cx="1.38" cy="223" r="70.15"/><circle class="cls-266" cx="-1.09" cy="219.17" r="70.15"/><circle class="cls-267" cx="-3.54" cy="215.34" r="70.15"/><circle class="cls-268" cx="-5.96" cy="211.52" r="70.15"/><circle class="cls-269" cx="-8.37" cy="207.71" r="70.15"/><circle class="cls-270" cx="-10.75" cy="203.91" r="70.15"/><circle class="cls-271" cx="-13.12" cy="200.13" r="70.15"/><circle class="cls-272" cx="-15.45" cy="196.35" r="70.15"/><circle class="cls-273" cx="-17.77" cy="192.6" r="70.15"/><circle class="cls-274" cx="-20.06" cy="188.87" r="70.15"/><circle class="cls-275" cx="-22.32" cy="185.16" r="70.15"/><circle class="cls-276" cx="-24.55" cy="181.47" r="70.15"/><circle class="cls-277" cx="-26.76" cy="177.81" r="70.15"/><circle class="cls-278" cx="-28.93" cy="174.17" r="70.15"/><circle class="cls-279" cx="-31.08" cy="170.57" r="70.15"/><circle class="cls-280" cx="-33.2" cy="167" r="70.15"/><circle class="cls-281" cx="-35.28" cy="163.47" r="70.15"/><circle class="cls-282" cx="-37.33" cy="159.97" r="70.15"/><circle class="cls-283" cx="-39.35" cy="156.52" r="70.15"/><circle class="cls-284" cx="-41.33" cy="153.1" r="70.15"/><circle class="cls-285" cx="-43.27" cy="149.73" r="70.15"/><circle class="cls-286" cx="-45.18" cy="146.4" r="70.15"/><circle class="cls-287" cx="-47.05" cy="143.12" r="70.15"/><circle class="cls-288" cx="-48.89" cy="139.9" r="70.15"/><circle class="cls-289" cx="-50.68" cy="136.72" r="70.15"/><circle class="cls-290" cx="-52.43" cy="133.6" r="70.15"/><circle class="cls-291" cx="-54.15" cy="130.53" r="70.15"/><circle class="cls-292" cx="-55.81" cy="127.53" r="70.15"/><circle class="cls-293" cx="-57.44" cy="124.58" r="70.15"/><circle class="cls-294" cx="-59.02" cy="121.7" r="70.15"/><circle class="cls-295" cx="-60.56" cy="118.89" r="70.15"/><circle class="cls-296" cx="-62.05" cy="116.14" r="70.15"/><circle class="cls-297" cx="-63.49" cy="113.46" r="70.15"/><circle class="cls-298" cx="-64.89" cy="110.86" r="70.15"/><circle class="cls-299" cx="-66.24" cy="108.32" r="70.15"/><circle class="cls-300" cx="-67.53" cy="105.87" r="70.15"/><circle class="cls-301" cx="-68.78" cy="103.49" r="70.15"/><circle class="cls-302" cx="-69.97" cy="101.19" r="70.15"/></g></g></g></svg>