<svg id="Layer_1" data-name="Layer 1" xmlns="http://www.w3.org/2000/svg" xmlns:xlink="http://www.w3.org/1999/xlink" viewBox="0 0 256 128"><defs><style>.cls-1{fill:none;}.cls-2{clip-path:url(#clip-path);}.cls-3{fill:#aa044f;}.cls-4{fill:#ab044f;}.cls-5{fill:#ac0450;}.cls-6{fill:#ad0450;}.cls-7{fill:#ae0450;}.cls-8{fill:#af0450;}.cls-9{fill:#b00451;}.cls-10{fill:#b10451;}.cls-11{fill:#b20451;}.cls-12{fill:#b30452;}.cls-13{fill:#b40452;}.cls-14{fill:#b50452;}.cls-15{fill:#b60452;}.cls-16{fill:#b70453;}.cls-17{fill:#b80453;}.cls-18{fill:#b90453;}.cls-19{fill:#ba0454;}.cls-20{fill:#bb0454;}.cls-21{fill:#bc0454;}.cls-22{fill:#bd0455;}.cls-23{fill:#be0455;}.cls-24{fill:#bf0455;}.cls-25{fill:#c00455;}.cls-26{fill:#c10456;}.cls-27{fill:#c20456;}.cls-28{fill:#c30456;}.cls-29{fill:#c40457;}.cls-30{fill:#c50457;}.cls-31{fill:#c60457;}.cls-32{fill:#c70457;}.cls-33{fill:#c80458;}.cls-34{fill:#c90458;}.cls-35{fill:#ca0458;}.cls-36{fill:#cb0459;}.cls-37{fill:#cc0459;}.cls-38{fill:#cd0459;}.cls-39{fill:#ce0459;}.cls-40{fill:#cf045a;}.cls-41{fill:#d0045a;}.cls-42{fill:#d1045a;}.cls-43{fill:#d2045b;}.cls-44{fill:#d3045b;}.cls-45{fill:#d4045b;}.cls-46{fill:#d5035c;}.cls-47{fill:#d6035c;}.cls-48{fill:#d7035c;}.cls-49{fill:#d8035d;}.cls-50{fill:#d9035d;}.cls-51{fill:#da035d;}.cls-52{fill:#db035e;}.cls-53{fill:#dc035e;}.cls-54{fill:#dd035e;}.cls-55{fill:#de035e;}.cls-56{fill:#df035f;}.cls-57{fill:#e0035f;}.cls-58{fill:#e1035f;}.cls-59{fill:#e20360;}.cls-60{fill:#e30360;}.cls-61{fill:#e40360;}.cls-62{fill:#e50360;}.cls-63{fill:#e60361;}.cls-64{fill:#e70361;}.cls-65{fill:#e80361;}.cls-66{fill:#e90362;}.cls-67{fill:#ea0362;}.cls-68{fill:#eb0362;}.cls-69{fill:#ec0362;}.cls-70{fill:#ed0363;}.cls-71{fill:#ee0363;}.cls-72{fill:#ef0363;}.cls-73{fill:#f00364;}.cls-74{fill:#f10364;}.cls-75{fill:#f20364;}.cls-76{fill:#f30365;}.cls-77{fill:#f40365;}.cls-78{fill:#f50365;}.cls-79{fill:#f60365;}.cls-80{fill:#f70366;}.cls-81{fill:#f80366;}.cls-82{fill:#f90366;}.cls-83{fill:#fa0367;}.cls-84{fill:#fb0367;}.cls-85{fill:#fc0367;}.cls-86{fill:#fd0367;}.cls-87{fill:#fe0368;}.cls-88{fill:#ff0368;}.cls-89{fill:#fe0468;}.cls-90{fill:#fd0568;}.cls-91{fill:#fc0669;}.cls-92{fill:#fb0769;}.cls-93{fill:#fa0869;}.cls-94{fill:#f90969;}.cls-95{fill:#f80a6a;}.cls-96{fill:#f70b6a;}.cls-97{fill:#f60c6a;}.cls-98{fill:#f50d6a;}.cls-99{fill:#f40e6b;}.cls-100{fill:#d92771;}.cls-101{fill:#d82871;}.cls-102{fill:#d72972;}.cls-103{fill:#d62a72;}.cls-104{fill:#d52b72;}.cls-105{fill:#d42c72;}.cls-106{fill:#d32d73;}.cls-107{fill:#d22e73;}.cls-108{fill:#d12f73;}.cls-109{fill:#d03073;}.cls-110{fill:#cf3173;}.cls-111{fill:#ce3274;}.cls-112{fill:#cd3374;}.cls-113{fill:#cc3474;}.cls-114{fill:#cb3574;}.cls-115{fill:#ca3675;}.cls-116{fill:#c93775;}.cls-117{fill:#c83875;}.cls-118{fill:#c73975;}.cls-119{fill:#c63a76;}.cls-120{fill:#c53a76;}.cls-121{fill:#c43b76;}.cls-122{fill:#c33c76;}.cls-123{fill:#c23d77;}.cls-124{fill:#c13e77;}.cls-125{fill:#c03f77;}.cls-126{fill:#bf4077;}.cls-127{fill:#be4178;}.cls-128{fill:#bd4278;}.cls-129{fill:#bc4378;}.cls-130{fill:#bb4478;}.cls-131{fill:#ba4579;}.cls-132{fill:#b94679;}.cls-133{fill:#b84779;}.cls-134{fill:#b74879;}.cls-135{fill:#b64979;}.cls-136{fill:#b54a7a;}.cls-137{fill:#b44b7a;}.cls-138{fill:#b34c7a;}.cls-139{fill:#b24d7a;}.cls-140{fill:#b14e7b;}.cls-141{fill:#b04f7b;}.cls-142{fill:#af507b;}.cls-143{fill:#ae517b;}.cls-144{fill:#ad517c;}.cls-145{fill:#ac527c;}.cls-146{fill:#ab537c;}.cls-147{fill:#aa547c;}.cls-148{fill:#a9557d;}.cls-149{fill:#a8567d;}.cls-150{fill:#a7577d;}.cls-151{fill:#a6587d;}.cls-152{fill:#a5597e;}.cls-153{fill:#a45a7e;}.cls-154{fill:#a35b7e;}.cls-155{fill:#a25c7e;}.cls-156{fill:#a15d7e;}.cls-157{fill:#a05e7f;}.cls-158{fill:#9f5f7f;}.cls-159{fill:#9e607f;}.cls-160{fill:#9d617f;}.cls-161{fill:#9c6280;}.cls-162{fill:#9b6380;}.cls-163{fill:#9a6480;}.cls-164{fill:#996580;}.cls-165{fill:#986681;}.cls-166{fill:#976781;}.cls-167{fill:#966781;}.cls-168{fill:#956881;}.cls-169{fill:#946982;}.cls-170{fill:#936a82;}.cls-171{fill:#926b82;}.cls-172{fill:#916c82;}.cls-173{fill:#906d83;}.cls-174{fill:#8f6e83;}.cls-175{fill:#8e6f83;}.cls-176{fill:#8d7083;}.cls-177{fill:#8c7184;}.cls-178{fill:#8b7284;}.cls-179{fill:#8a7384;}.cls-180{fill:#897484;}.cls-181{fill:#887584;}.cls-182{fill:#877685;}.cls-183{fill:#867785;}.cls-184{fill:#857885;}.cls-185{fill:#847985;}.cls-186{fill:#837a86;}.cls-187{fill:#827b86;}.cls-188{fill:#817c86;}.cls-189{fill:#5f9c8e;}.cls-190{fill:#5e9d8f;}.cls-191{fill:#5d9e8f;}.cls-192{fill:#5c9f8f;}.cls-193{fill:#5ba08f;}.cls-194{fill:#5aa18f;}.cls-195{fill:#59a290;}.cls-196{fill:#58a390;}.cls-197{fill:#57a490;}.cls-198{fill:#56a590;}.cls-199{fill:#55a691;}.cls-200{fill:#54a791;}.cls-201{fill:#53a891;}.cls-202{fill:#52a991;}.cls-203{fill:#51a992;}.cls-204{fill:#50aa92;}.cls-205{fill:#4fab92;}.cls-206{fill:#4eac92;}.cls-207{fill:#4dad93;}.cls-208{fill:#4cae93;}.cls-209{fill:#4baf93;}.cls-210{fill:#4ab093;}.cls-211{fill:#49b194;}.cls-212{fill:#48b294;}.cls-213{fill:#47b394;}.cls-214{fill:#46b494;}.cls-215{fill:#45b594;}.cls-216{fill:#44b695;}.cls-217{fill:#43b795;}.cls-218{fill:#42b895;}.cls-219{fill:#41b995;}.cls-220{fill:#40ba96;}.cls-221{fill:#3fbb96;}.cls-222{fill:#3ebc96;}.cls-223{fill:#3dbd96;}.cls-224{fill:#3cbe97;}.cls-225{fill:#3bbf97;}.cls-226{fill:#3ac097;}.cls-227{fill:#39c097;}.cls-228{fill:#38c198;}.cls-229{fill:#37c298;}.cls-230{fill:#36c398;}.cls-231{fill:#35c498;}</style><clipPath id="clip-path"><circle class="cls-1" cx="127.5" cy="67.55" r="150.14"/></clipPath></defs><g id="Ball"><g class="cls-2"><circle class="cls-3" cx="78.49" cy="-29.14" r="63.89"/><circle class="cls-4" cx="70.06" cy="-20.8" r="63.89"/><circle class="cls-5" cx="62.03" cy="-12.61" r="63.89"/><circle class="cls-6" cx="54.44" cy="-4.61" r="63.89"/><circle class="cls-7" cx="47.38" cy="3.16" r="63.89"/><circle class="cls-8" cx="40.9" cy="10.66" r="63.89"/><circle class="cls-9" cx="35.08" cy="17.84" r="63.89"/><circle class="cls-10" cx="29.98" cy="24.65" r="63.89"/><circle class="cls-11" cx="25.67" cy="31.06" r="63.89"/><circle class="cls-12" cx="22.21" cy="37.02" r="63.89"/><circle class="cls-13" cx="19.67" cy="42.49" r="63.89"/><circle class="cls-14" cx="18.11" cy="47.42" r="63.89"/><circle class="cls-15" cx="17.61" cy="51.77" r="63.89"/><circle class="cls-16" cx="18.23" cy="55.5" r="63.89"/><circle class="cls-17" cx="20.44" cy="59" r="63.89"/><circle class="cls-18" cx="25.04" cy="61.99" r="63.89"/><circle class="cls-19" cx="31.4" cy="63.72" r="63.89"/><circle class="cls-20" cx="39.08" cy="64.23" r="63.89"/><circle class="cls-21" cx="47.66" cy="63.52" r="63.89"/><circle class="cls-22" cx="56.71" cy="61.61" r="63.89"/><circle class="cls-23" cx="65.8" cy="58.54" r="63.89"/><circle class="cls-24" cx="74.5" cy="54.3" r="63.89"/><circle class="cls-25" cx="82.89" cy="48.56" r="63.89"/><circle class="cls-26" cx="90.04" cy="41.79" r="63.89"/><circle class="cls-27" cx="95.98" cy="34.23" r="63.89"/><circle class="cls-28" cx="100.84" cy="26.08" r="63.89"/><circle class="cls-29" cx="104.8" cy="17.49" r="63.89"/><circle class="cls-30" cx="107.98" cy="8.66" r="63.89"/><circle class="cls-31" cx="110.56" cy="-0.25" r="63.89"/><circle class="cls-32" cx="112.69" cy="-9.07" r="63.89"/><circle class="cls-33" cx="114.51" cy="-17.6" r="63.89"/><circle class="cls-34" cx="116.17" cy="-25.69" r="63.89"/><circle class="cls-35" cx="117.84" cy="-33.16" r="63.89"/><circle class="cls-36" cx="119.67" cy="-39.82" r="63.89"/><circle class="cls-37" cx="121.8" cy="-45.51" r="63.89"/><circle class="cls-38" cx="124.39" cy="-50.06" r="63.89"/><circle class="cls-39" cx="127.59" cy="-53.27" r="63.89"/><circle class="cls-40" cx="131.56" cy="-54.98" r="63.89"/><circle class="cls-41" cx="136.09" cy="-55.07" r="63.89"/><circle class="cls-42" cx="141.09" cy="-53.67" r="63.89"/><circle class="cls-43" cx="146.46" cy="-50.91" r="63.89"/><circle class="cls-44" cx="152.07" cy="-46.93" r="63.89"/><circle class="cls-45" cx="157.82" cy="-41.88" r="63.89"/><circle class="cls-45" cx="163.6" cy="-35.87" r="63.89"/><circle class="cls-46" cx="169.29" cy="-29.06" r="63.89"/><circle class="cls-47" cx="174.79" cy="-21.58" r="63.89"/><circle class="cls-48" cx="179.98" cy="-13.56" r="63.89"/><circle class="cls-49" cx="184.76" cy="-5.14" r="63.89"/><circle class="cls-50" cx="189.01" cy="3.54" r="63.89"/><circle class="cls-51" cx="192.63" cy="12.34" r="63.89"/><circle class="cls-52" cx="195.49" cy="21.14" r="63.89"/><circle class="cls-53" cx="197.49" cy="29.78" r="63.89"/><circle class="cls-54" cx="198.53" cy="38.15" r="63.89"/><circle class="cls-55" cx="198.48" cy="46.09" r="63.89"/><circle class="cls-56" cx="197.24" cy="53.48" r="63.89"/><circle class="cls-57" cx="194.7" cy="60.17" r="63.89"/><circle class="cls-58" cx="190.96" cy="65.79" r="63.89"/><circle class="cls-59" cx="186.27" cy="70.19" r="63.89"/><circle class="cls-60" cx="180.68" cy="73.58" r="63.89"/><circle class="cls-61" cx="174.28" cy="76.08" r="63.89"/><circle class="cls-62" cx="167.17" cy="77.78" r="63.89"/><circle class="cls-63" cx="159.44" cy="78.8" r="63.89"/><circle class="cls-64" cx="151.19" cy="79.24" r="63.89"/><circle class="cls-65" cx="142.51" cy="79.22" r="63.89"/><circle class="cls-66" cx="133.5" cy="78.82" r="63.89"/><circle class="cls-67" cx="124.24" cy="78.17" r="63.89"/><circle class="cls-68" cx="114.85" cy="77.37" r="63.89"/><circle class="cls-69" cx="105.4" cy="76.53" r="63.89"/><circle class="cls-70" cx="95.99" cy="75.75" r="63.89"/><circle class="cls-71" cx="86.73" cy="75.15" r="63.89"/><circle class="cls-72" cx="77.7" cy="74.82" r="63.89"/><circle class="cls-73" cx="68.99" cy="74.88" r="63.89"/><circle class="cls-74" cx="60.71" cy="75.43" r="63.89"/><circle class="cls-75" cx="52.95" cy="76.58" r="63.89"/><circle class="cls-76" cx="45.8" cy="78.44" r="63.89"/><circle class="cls-77" cx="39.35" cy="81.12" r="63.89"/><circle class="cls-78" cx="33.7" cy="84.71" r="63.89"/><circle class="cls-79" cx="28.95" cy="89.34" r="63.89"/><circle class="cls-80" cx="25.21" cy="95.06" r="63.89"/><circle class="cls-81" cx="22.65" cy="101.63" r="63.89"/><circle class="cls-82" cx="21.22" cy="108.87" r="63.89"/><circle class="cls-83" cx="20.85" cy="116.64" r="63.89"/><circle class="cls-84" cx="21.45" cy="124.81" r="63.89"/><circle class="cls-85" cx="22.95" cy="133.24" r="63.89"/><circle class="cls-86" cx="25.26" cy="141.8" r="63.89"/><circle class="cls-87" cx="28.3" cy="150.35" r="63.89"/><circle class="cls-88" cx="31.29" cy="157.29" r="63.89"/><circle class="cls-89" cx="33.57" cy="161.95" r="63.89"/><circle class="cls-90" cx="35.24" cy="165.08" r="63.89"/><circle class="cls-91" cx="36.98" cy="168.16" r="63.89"/><circle class="cls-92" cx="38.79" cy="171.17" r="63.89"/><circle class="cls-93" cx="40.67" cy="174.11" r="63.89"/><circle class="cls-94" cx="42.61" cy="176.97" r="63.89"/><circle class="cls-95" cx="44.61" cy="179.74" r="63.89"/><circle class="cls-96" cx="46.66" cy="182.41" r="63.89"/><circle class="cls-97" cx="48.76" cy="184.98" r="63.89"/><circle class="cls-98" cx="50.91" cy="187.44" r="63.89"/><circle class="cls-99" cx="53.09" cy="189.78" r="63.89"/><circle class="cls-100" cx="103.76" cy="191.64" r="63.89"/><circle class="cls-101" cx="105.15" cy="189.71" r="63.89"/><circle class="cls-102" cx="106.57" cy="187.68" r="63.89"/><circle class="cls-103" cx="108.02" cy="185.55" r="63.89"/><circle class="cls-104" cx="109.52" cy="183.32" r="63.89"/><circle class="cls-105" cx="111.06" cy="181" r="63.89"/><circle class="cls-106" cx="112.66" cy="178.6" r="63.89"/><circle class="cls-107" cx="114.32" cy="176.11" r="63.89"/><circle class="cls-108" cx="116.06" cy="173.54" r="63.89"/><circle class="cls-109" cx="117.87" cy="170.89" r="63.89"/><circle class="cls-110" cx="119.78" cy="168.17" r="63.89"/><circle class="cls-111" cx="121.77" cy="165.38" r="63.89"/><circle class="cls-112" cx="123.87" cy="162.52" r="63.89"/><circle class="cls-113" cx="126.08" cy="159.61" r="63.89"/><circle class="cls-114" cx="128.41" cy="156.63" r="63.89"/><circle class="cls-115" cx="130.87" cy="153.6" r="63.89"/><circle class="cls-116" cx="133.45" cy="150.52" r="63.89"/><circle class="cls-117" cx="136.18" cy="147.39" r="63.89"/><circle class="cls-118" cx="139.06" cy="144.22" r="63.89"/><circle class="cls-119" cx="142.09" cy="141.01" r="63.89"/><circle class="cls-120" cx="145.28" cy="137.76" r="63.89"/><circle class="cls-121" cx="148.65" cy="134.48" r="63.89"/><circle class="cls-122" cx="152.19" cy="131.17" r="63.89"/><circle class="cls-123" cx="155.92" cy="127.83" r="63.89"/><circle class="cls-124" cx="159.85" cy="124.48" r="63.89"/><circle class="cls-125" cx="163.97" cy="121.11" r="63.89"/><circle class="cls-126" cx="167.88" cy="118.04" r="63.89"/><circle class="cls-127" cx="171.23" cy="115.53" r="63.89"/><circle class="cls-128" cx="174.41" cy="113.23" r="63.89"/><circle class="cls-129" cx="177.44" cy="111.14" r="63.89"/><circle class="cls-130" cx="180.32" cy="109.24" r="63.89"/><circle class="cls-131" cx="183.07" cy="107.51" r="63.89"/><circle class="cls-132" cx="185.7" cy="105.93" r="63.89"/><circle class="cls-133" cx="188.23" cy="104.48" r="63.89"/><circle class="cls-134" cx="190.67" cy="103.16" r="63.89"/><circle class="cls-135" cx="193.03" cy="101.93" r="63.89"/><circle class="cls-136" cx="195.32" cy="100.79" r="63.89"/><circle class="cls-137" cx="197.56" cy="99.71" r="63.89"/><circle class="cls-138" cx="199.76" cy="98.68" r="63.89"/><circle class="cls-139" cx="201.93" cy="97.68" r="63.89"/><circle class="cls-140" cx="204.09" cy="96.7" r="63.89"/><circle class="cls-141" cx="206.25" cy="95.71" r="63.89"/><circle class="cls-142" cx="208.41" cy="94.71" r="63.89"/><circle class="cls-143" cx="210.6" cy="93.66" r="63.89"/><circle class="cls-144" cx="212.83" cy="92.56" r="63.89"/><circle class="cls-145" cx="215.11" cy="91.38" r="63.89"/><circle class="cls-146" cx="217.45" cy="90.11" r="63.89"/><circle class="cls-147" cx="219.86" cy="88.74" r="63.89"/><circle class="cls-148" cx="222.37" cy="87.24" r="63.89"/><circle class="cls-149" cx="224.97" cy="85.6" r="63.89"/><circle class="cls-150" cx="227.69" cy="83.79" r="63.89"/><circle class="cls-151" cx="230.54" cy="81.81" r="63.89"/><circle class="cls-152" cx="233.52" cy="79.64" r="63.89"/><circle class="cls-153" cx="236.66" cy="77.25" r="63.89"/><circle class="cls-154" cx="239.96" cy="74.63" r="63.89"/><circle class="cls-155" cx="243.44" cy="71.76" r="63.89"/><circle class="cls-156" cx="247.3" cy="68.47" r="63.89"/><circle class="cls-157" cx="251.01" cy="65.18" r="63.89"/><circle class="cls-158" cx="254.54" cy="61.94" r="63.89"/><circle class="cls-159" cx="257.92" cy="58.74" r="63.89"/><circle class="cls-160" cx="261.13" cy="55.6" r="63.89"/><circle class="cls-161" cx="264.19" cy="52.51" r="63.89"/><circle class="cls-162" cx="267.12" cy="49.49" r="63.89"/><circle class="cls-163" cx="269.91" cy="46.54" r="63.89"/><circle class="cls-164" cx="272.57" cy="43.67" r="63.89"/><circle class="cls-165" cx="275.11" cy="40.89" r="63.89"/><circle class="cls-166" cx="277.54" cy="38.19" r="63.89"/><circle class="cls-167" cx="279.87" cy="35.59" r="63.89"/><circle class="cls-168" cx="282.1" cy="33.08" r="63.89"/><circle class="cls-169" cx="284.24" cy="30.69" r="63.89"/><circle class="cls-170" cx="286.3" cy="28.41" r="63.89"/><circle class="cls-171" cx="288.29" cy="26.25" r="63.89"/><circle class="cls-172" cx="290.21" cy="24.22" r="63.89"/><circle class="cls-173" cx="292.08" cy="22.32" r="63.89"/><circle class="cls-174" cx="293.89" cy="20.56" r="63.89"/><circle class="cls-175" cx="295.66" cy="18.94" r="63.89"/><circle class="cls-176" cx="297.4" cy="17.47" r="63.89"/><circle class="cls-177" cx="299.1" cy="16.16" r="63.89"/><circle class="cls-178" cx="300.79" cy="15.02" r="63.89"/><circle class="cls-179" cx="302.47" cy="14.04" r="63.89"/><circle class="cls-180" cx="304.14" cy="13.23" r="63.89"/><circle class="cls-181" cx="305.81" cy="12.61" r="63.89"/><circle class="cls-182" cx="307.5" cy="12.17" r="63.89"/><circle class="cls-183" cx="309.2" cy="11.93" r="63.89"/><circle class="cls-184" cx="310.93" cy="11.88" r="63.89"/><circle class="cls-185" cx="312.69" cy="12.04" r="63.89"/><circle class="cls-186" cx="314.91" cy="12.53" r="63.89"/><circle class="cls-187" cx="317.37" cy="13.44" r="63.89"/><circle class="cls-188" cx="319.76" cy="14.7" r="63.89"/><circle class="cls-189" cx="319.2" cy="93.18" r="63.89"/><circle class="cls-190" cx="317.24" cy="95.4" r="63.89"/><circle class="cls-191" cx="315.2" cy="97.64" r="63.89"/><circle class="cls-192" cx="313.09" cy="99.9" r="63.89"/><circle class="cls-193" cx="310.91" cy="102.17" r="63.89"/><circle class="cls-194" cx="308.65" cy="104.45" r="63.89"/><circle class="cls-195" cx="306.33" cy="106.76" r="63.89"/><circle class="cls-196" cx="303.93" cy="109.07" r="63.89"/><circle class="cls-197" cx="301.48" cy="111.39" r="63.89"/><circle class="cls-198" cx="298.96" cy="113.73" r="63.89"/><circle class="cls-199" cx="296.38" cy="116.08" r="63.89"/><circle class="cls-200" cx="293.74" cy="118.44" r="63.89"/><circle class="cls-201" cx="291.04" cy="120.81" r="63.89"/><circle class="cls-202" cx="288.29" cy="123.18" r="63.89"/><circle class="cls-203" cx="285.49" cy="125.57" r="63.89"/><circle class="cls-204" cx="282.63" cy="127.96" r="63.89"/><circle class="cls-205" cx="279.72" cy="130.35" r="63.89"/><circle class="cls-206" cx="276.77" cy="132.75" r="63.89"/><circle class="cls-207" cx="273.77" cy="135.16" r="63.89"/><circle class="cls-208" cx="270.73" cy="137.57" r="63.89"/><circle class="cls-209" cx="267.65" cy="139.98" r="63.89"/><circle class="cls-210" cx="264.53" cy="142.39" r="63.89"/><circle class="cls-211" cx="261.37" cy="144.8" r="63.89"/><circle class="cls-212" cx="258.18" cy="147.21" r="63.89"/><circle class="cls-213" cx="254.95" cy="149.62" r="63.89"/><circle class="cls-214" cx="251.69" cy="152.03" r="63.89"/><circle class="cls-215" cx="248.4" cy="154.44" r="63.89"/><circle class="cls-216" cx="245.09" cy="156.84" r="63.89"/><circle class="cls-217" cx="241.75" cy="159.24" r="63.89"/><circle class="cls-218" cx="238.38" cy="161.63" r="63.89"/><circle class="cls-219" cx="235" cy="164.02" r="63.89"/><circle class="cls-220" cx="231.59" cy="166.4" r="63.89"/><circle class="cls-221" cx="228.17" cy="168.77" r="63.89"/><circle class="cls-222" cx="224.73" cy="171.13" r="63.89"/><circle class="cls-223" cx="221.28" cy="173.49" r="63.89"/><circle class="cls-224" cx="217.81" cy="175.83" r="63.89"/><circle class="cls-225" cx="214.34" cy="178.16" r="63.89"/><circle class="cls-226" cx="210.86" cy="180.48" r="63.89"/><circle class="cls-227" cx="207.37" cy="182.79" r="63.89"/><circle class="cls-228" cx="203.88" cy="185.08" r="63.89"/><circle class="cls-229" cx="200.39" cy="187.36" r="63.89"/><circle class="cls-230" cx="196.9" cy="189.62" r="63.89"/><circle class="cls-231" cx="193.41" cy="191.87" r="63.89"/></g></g></svg>