<?xml version="1.0" encoding="utf-8"?>
<!-- Generator: Adobe Illustrator 25.2.3, SVG Export Plug-In . SVG Version: 6.00 Build 0)  -->
<svg version="1.1" id="Layer_1" xmlns="http://www.w3.org/2000/svg" xmlns:xlink="http://www.w3.org/1999/xlink" x="0px" y="0px"
	 viewBox="0 0 24 24" style="enable-background:new 0 0 24 24;" xml:space="preserve">
<style type="text/css">
	.st0{fill:none;}
	.st1{fill:#F8F7FF;}
</style>
<path class="st0" d="M0,0h24v24H0V0z"/>
<path class="st1" d="M12,0C5.4,0,0,5.4,0,12s5.4,12,12,12s12-5.4,12-12S18.6,0,12,0z M13.2,20.4h-2.4V18h2.4V20.4z M15.7,11.1
	l-1.1,1.1c-0.6,0.6-1,1.2-1.2,2c-0.1,0.4-0.2,0.8-0.2,1.4h-2.4V15c0-0.6,0.1-1.1,0.3-1.6c0.2-0.7,0.6-1.3,1.1-1.8l1.5-1.5
	c0.6-0.5,0.8-1.3,0.7-2.2c-0.2-0.9-0.8-1.6-1.7-1.8c-1.3-0.4-2.6,0.4-3,1.5c-0.1,0.4-0.5,0.8-1,0.8H8.4c-0.7,0-1.2-0.7-1-1.3
	c0.5-1.8,2-3.1,3.9-3.4c1.8-0.3,3.6,0.7,4.6,2.2C17.3,7.8,16.9,9.9,15.7,11.1z"/>
</svg>
