<?xml version="1.0" encoding="utf-8"?>
<!-- Generator: Adobe Illustrator 25.2.3, SVG Export Plug-In . SVG Version: 6.00 Build 0)  -->
<svg version="1.1" id="Layer_1" xmlns="http://www.w3.org/2000/svg" xmlns:xlink="http://www.w3.org/1999/xlink" x="0px" y="0px"
	 viewBox="0 0 24 24" style="enable-background:new 0 0 24 24;" xml:space="preserve">
<style type="text/css">
	.st0{fill:none;}
	.st1{fill:#F8F7FF;}
</style>
<path class="st0" d="M0,0h24v24H0V0z"/>
<path class="st1" d="M12,24c1.4,0,2.5-1.1,2.5-2.5H9.5C9.5,22.9,10.6,24,12,24z M19.4,16.6v-6.2c0-3.8-2-6.9-5.5-7.8V1.8
	C13.8,0.8,13,0,12,0s-1.8,0.8-1.8,1.8v0.8c-3.5,0.8-5.5,4-5.5,7.8v6.2L3,18.2c-0.8,0.8-0.2,2.1,0.9,2.1h16.2c1.1,0,1.6-1.3,0.9-2.1
	L19.4,16.6z"/>
</svg>
