<svg xmlns="http://www.w3.org/2000/svg" viewBox="0 0 1024 1024"><defs><style>.cls-1{fill:#121212;}.cls-2{fill:#393939;}</style></defs><g id="Layer_1" data-name="Layer 1"><rect class="cls-1" width="1024" height="1024"/></g><g id="Layer_2" data-name="Layer 2"><path class="cls-2" d="M512,640a25.68,25.68,0,0,0,25.6-25.6H486.4A25.68,25.68,0,0,0,512,640Z"/><path class="cls-2" d="M473.6,601.6h76.8a12.84,12.84,0,0,0,12.8-12.8h0A12.84,12.84,0,0,0,550.4,576H473.6a12.84,12.84,0,0,0-12.8,12.8h0A12.84,12.84,0,0,0,473.6,601.6Z"/><path class="cls-2" d="M512,384a96,96,0,0,0-96,96c0,48.9,34.05,75,48.26,83.2h95.48C574,555,608,528.9,608,480A96,96,0,0,0,512,384Z"/></g></svg>