<svg id="Layer_1" data-name="Layer 1" xmlns="http://www.w3.org/2000/svg" viewBox="0 0 180 64"><defs><style>.cls-1{font-size:32.09px;font-family:Cunia-Bold, Cunia;font-weight:700;letter-spacing:0.1em;}.cls-1,.cls-2{fill:#f8f7ff;}</style></defs><text class="cls-1" transform="translate(62.23 41.55)">TUTTI</text><path class="cls-2" d="M78.25,21.78H73.39V24.2H73v3.88h2.5V25.3a1,1,0,0,1,1-1h1.72Z"/><path class="cls-2" d="M128.41,21.78h-4.86V24.2h-.38v3.88h2.5V25.3a1,1,0,0,1,1-1h1.72Z"/><path class="cls-2" d="M152,21.78h-4.86V24.2h-.38v3.88h2.5V25.3a1,1,0,0,1,1-1H152Z"/><path class="cls-2" d="M36.71,23.25,22.41,33.61a7.64,7.64,0,0,1-7.47.82,24.28,24.28,0,0,0-7.78-1.91A.51.51,0,0,1,6.68,32a.5.5,0,0,1,.48-.52,24.38,24.38,0,0,0,15.42-7.09A24.32,24.32,0,0,0,29.66,9a.52.52,0,0,1,1,0A24.36,24.36,0,0,0,36.71,23.25Z"/><path class="cls-2" d="M53.2,32.52A24.43,24.43,0,0,0,30.7,55a.52.52,0,0,1-1,0,24.4,24.4,0,0,0-1.91-7.79,7.62,7.62,0,0,1,.83-7.46l10.35-14.3a24.36,24.36,0,0,0,14.27,6A.52.52,0,0,1,53.2,32.52Z"/><path class="cls-2" d="M43.08,19.73l-4.15,5.74a23.26,23.26,0,0,1-2.22-2.22l5.74-4.15A.45.45,0,0,1,43.08,19.73Z"/><path class="cls-2" d="M35.45,24.16s1.21-.9,2-.06.38-1.69.38-1.69-1.35.7-2-.17l.84,1"/><path class="cls-2" d="M38.93,25.47l-.65-.59A2.08,2.08,0,0,1,38,26.72C37.4,27.59,38.93,25.47,38.93,25.47Z"/><path class="cls-2" d="M39.69,24.43s-.64,1.23.31,1.93l-1.07-.89Z"/><path class="cls-2" d="M44.35,17.89a2.77,2.77,0,0,1,.7,1.22c.05.18.29.2.45,0l.24-.24a1.42,1.42,0,0,0,.35-.56l.29-1a.4.4,0,0,1,.09-.15A5.8,5.8,0,0,0,48,14.46a.23.23,0,0,0,0-.21.21.21,0,0,0-.21-.05A5.93,5.93,0,0,0,45,15.77a.38.38,0,0,1-.15.09l-1,.28a1.39,1.39,0,0,0-.56.35l-.24.24c-.16.16-.14.4,0,.46A2.83,2.83,0,0,1,44.35,17.89Z"/></svg>