<svg id="Layer_1" data-name="Layer 1" xmlns="http://www.w3.org/2000/svg" xmlns:xlink="http://www.w3.org/1999/xlink" viewBox="0 0 124 124"><defs><style>.cls-1{fill:none;}.cls-2{clip-path:url(#clip-path);}.cls-3{fill:#aa044f;}.cls-4{fill:#ab044f;}.cls-5{fill:#ac0450;}.cls-6{fill:#ad0450;}.cls-7{fill:#ae0450;}.cls-8{fill:#af0450;}.cls-9{fill:#b00451;}.cls-10{fill:#b10451;}.cls-11{fill:#b20451;}.cls-12{fill:#b30452;}.cls-13{fill:#b40452;}.cls-14{fill:#b50452;}.cls-15{fill:#b60452;}.cls-16{fill:#b70453;}.cls-17{fill:#b80453;}.cls-18{fill:#b90453;}.cls-19{fill:#ba0454;}.cls-20{fill:#bb0454;}.cls-21{fill:#bc0454;}.cls-22{fill:#bd0455;}.cls-23{fill:#be0455;}.cls-24{fill:#bf0455;}.cls-25{fill:#c00455;}.cls-26{fill:#c10456;}.cls-27{fill:#c20456;}.cls-28{fill:#c30456;}.cls-29{fill:#c40457;}.cls-30{fill:#c50457;}.cls-31{fill:#c60457;}.cls-32{fill:#c70457;}.cls-33{fill:#c80458;}.cls-34{fill:#c90458;}.cls-35{fill:#ca0458;}.cls-36{fill:#cb0459;}.cls-37{fill:#cc0459;}.cls-38{fill:#cd0459;}.cls-39{fill:#ce0459;}.cls-40{fill:#cf045a;}.cls-41{fill:#d0045a;}.cls-42{fill:#d1045a;}.cls-43{fill:#d2045b;}.cls-44{fill:#d3045b;}.cls-45{fill:#d4045b;}.cls-46{fill:#d5035c;}.cls-47{fill:#d6035c;}.cls-48{fill:#d7035c;}.cls-49{fill:#d8035d;}.cls-50{fill:#d9035d;}.cls-51{fill:#da035d;}.cls-52{fill:#db035e;}.cls-53{fill:#dc035e;}.cls-54{fill:#dd035e;}.cls-55{fill:#de035e;}.cls-56{fill:#df035f;}.cls-57{fill:#e0035f;}.cls-58{fill:#e1035f;}.cls-59{fill:#e20360;}.cls-60{fill:#e30360;}.cls-61{fill:#e40360;}.cls-62{fill:#e50360;}.cls-63{fill:#e60361;}.cls-64{fill:#e70361;}.cls-65{fill:#e80361;}.cls-66{fill:#e90362;}.cls-67{fill:#ea0362;}.cls-68{fill:#eb0362;}.cls-69{fill:#ec0362;}.cls-70{fill:#ed0363;}.cls-71{fill:#ee0363;}.cls-72{fill:#ef0363;}.cls-73{fill:#f00364;}.cls-74{fill:#f10364;}.cls-75{fill:#f20364;}.cls-76{fill:#f30365;}.cls-77{fill:#f40365;}.cls-78{fill:#f50365;}.cls-79{fill:#f60365;}.cls-80{fill:#f70366;}.cls-81{fill:#f80366;}.cls-82{fill:#f90366;}.cls-83{fill:#fa0367;}.cls-84{fill:#fb0367;}.cls-85{fill:#fc0367;}.cls-86{fill:#fd0367;}.cls-87{fill:#fe0368;}.cls-88{fill:#ff0368;}.cls-89{fill:#fe0468;}.cls-90{fill:#fd0568;}.cls-91{fill:#fc0669;}.cls-92{fill:#fb0769;}.cls-93{fill:#fa0869;}.cls-94{fill:#f90969;}.cls-95{fill:#f80a6a;}.cls-96{fill:#f70b6a;}.cls-97{fill:#f60c6a;}.cls-98{fill:#f50d6a;}.cls-99{fill:#f40e6b;}.cls-100{fill:#f30e6b;}.cls-101{fill:#f20f6b;}.cls-102{fill:#f1106b;}.cls-103{fill:#f0116c;}.cls-104{fill:#ef126c;}.cls-105{fill:#ee136c;}.cls-106{fill:#ed146c;}.cls-107{fill:#ec156d;}.cls-108{fill:#eb166d;}.cls-109{fill:#ea176d;}.cls-110{fill:#e9186d;}.cls-111{fill:#e8196e;}.cls-112{fill:#e71a6e;}.cls-113{fill:#e61b6e;}.cls-114{fill:#e51c6e;}.cls-115{fill:#e41d6e;}.cls-116{fill:#e31e6f;}.cls-117{fill:#e21f6f;}.cls-118{fill:#e1206f;}.cls-119{fill:#e0216f;}.cls-120{fill:#df2270;}.cls-121{fill:#de2370;}.cls-122{fill:#dd2470;}.cls-123{fill:#dc2470;}.cls-124{fill:#db2571;}.cls-125{fill:#da2671;}.cls-126{fill:#d92771;}.cls-127{fill:#d82871;}.cls-128{fill:#d72972;}.cls-129{fill:#d62a72;}.cls-130{fill:#d52b72;}.cls-131{fill:#d42c72;}.cls-132{fill:#d32d73;}.cls-133{fill:#d22e73;}.cls-134{fill:#d12f73;}.cls-135{fill:#d03073;}.cls-136{fill:#cf3173;}.cls-137{fill:#ce3274;}.cls-138{fill:#cd3374;}.cls-139{fill:#cc3474;}.cls-140{fill:#cb3574;}.cls-141{fill:#ca3675;}.cls-142{fill:#c93775;}.cls-143{fill:#c83875;}.cls-144{fill:#c73975;}.cls-145{fill:#c63a76;}.cls-146{fill:#c53a76;}.cls-147{fill:#c43b76;}.cls-148{fill:#c33c76;}.cls-149{fill:#c23d77;}.cls-150{fill:#c13e77;}.cls-151{fill:#c03f77;}.cls-152{fill:#bf4077;}.cls-153{fill:#be4178;}.cls-154{fill:#bd4278;}.cls-155{fill:#bc4378;}.cls-156{fill:#bb4478;}.cls-157{fill:#ba4579;}.cls-158{fill:#b94679;}.cls-159{fill:#b84779;}.cls-160{fill:#b74879;}.cls-161{fill:#b64979;}.cls-162{fill:#b54a7a;}.cls-163{fill:#b44b7a;}.cls-164{fill:#b34c7a;}.cls-165{fill:#b24d7a;}.cls-166{fill:#b14e7b;}.cls-167{fill:#b04f7b;}.cls-168{fill:#af507b;}.cls-169{fill:#ae517b;}.cls-170{fill:#ad517c;}.cls-171{fill:#ac527c;}.cls-172{fill:#ab537c;}.cls-173{fill:#aa547c;}.cls-174{fill:#a9557d;}.cls-175{fill:#a8567d;}.cls-176{fill:#a7577d;}.cls-177{fill:#a6587d;}.cls-178{fill:#a5597e;}.cls-179{fill:#a45a7e;}.cls-180{fill:#a35b7e;}.cls-181{fill:#a25c7e;}.cls-182{fill:#a15d7e;}.cls-183{fill:#a05e7f;}.cls-184{fill:#9f5f7f;}.cls-185{fill:#9e607f;}.cls-186{fill:#9d617f;}.cls-187{fill:#9c6280;}.cls-188{fill:#9b6380;}.cls-189{fill:#9a6480;}.cls-190{fill:#996580;}.cls-191{fill:#986681;}.cls-192{fill:#976781;}.cls-193{fill:#966781;}.cls-194{fill:#956881;}.cls-195{fill:#946982;}.cls-196{fill:#936a82;}.cls-197{fill:#926b82;}.cls-198{fill:#916c82;}.cls-199{fill:#906d83;}.cls-200{fill:#8f6e83;}.cls-201{fill:#8e6f83;}.cls-202{fill:#8d7083;}.cls-203{fill:#8c7184;}.cls-204{fill:#8b7284;}.cls-205{fill:#8a7384;}.cls-206{fill:#897484;}.cls-207{fill:#887584;}.cls-208{fill:#877685;}.cls-209{fill:#867785;}.cls-210{fill:#857885;}.cls-211{fill:#847985;}.cls-212{fill:#837a86;}.cls-213{fill:#827b86;}.cls-214{fill:#817c86;}.cls-215{fill:#807d86;}.cls-216{fill:#7f7d87;}.cls-217{fill:#7e7e87;}.cls-218{fill:#7d7f87;}.cls-219{fill:#7c8087;}.cls-220{fill:#7b8188;}.cls-221{fill:#7a8288;}.cls-222{fill:#798388;}.cls-223{fill:#788488;}.cls-224{fill:#778589;}.cls-225{fill:#768689;}.cls-226{fill:#758789;}.cls-227{fill:#748889;}.cls-228{fill:#738989;}.cls-229{fill:#728a8a;}.cls-230{fill:#718b8a;}.cls-231{fill:#708c8a;}.cls-232{fill:#6f8d8a;}.cls-233{fill:#6e8e8b;}.cls-234{fill:#6d8f8b;}.cls-235{fill:#6c908b;}.cls-236{fill:#6b918b;}.cls-237{fill:#6a928c;}.cls-238{fill:#69938c;}.cls-239{fill:#68938c;}.cls-240{fill:#67948c;}.cls-241{fill:#66958d;}.cls-242{fill:#65968d;}.cls-243{fill:#64978d;}.cls-244{fill:#63988d;}.cls-245{fill:#62998e;}.cls-246{fill:#619a8e;}.cls-247{fill:#609b8e;}.cls-248{fill:#5f9c8e;}.cls-249{fill:#5e9d8f;}.cls-250{fill:#5d9e8f;}.cls-251{fill:#5c9f8f;}.cls-252{fill:#5ba08f;}.cls-253{fill:#5aa18f;}.cls-254{fill:#59a290;}.cls-255{fill:#58a390;}.cls-256{fill:#57a490;}.cls-257{fill:#56a590;}.cls-258{fill:#55a691;}.cls-259{fill:#54a791;}.cls-260{fill:#53a891;}.cls-261{fill:#52a991;}.cls-262{fill:#51a992;}.cls-263{fill:#50aa92;}.cls-264{fill:#4fab92;}.cls-265{fill:#4eac92;}.cls-266{fill:#4dad93;}.cls-267{fill:#4cae93;}.cls-268{fill:#4baf93;}.cls-269{fill:#4ab093;}.cls-270{fill:#49b194;}.cls-271{fill:#48b294;}.cls-272{fill:#47b394;}.cls-273{fill:#46b494;}.cls-274{fill:#45b594;}.cls-275{fill:#44b695;}.cls-276{fill:#43b795;}.cls-277{fill:#42b895;}.cls-278{fill:#41b995;}.cls-279{fill:#40ba96;}.cls-280{fill:#3fbb96;}.cls-281{fill:#3ebc96;}.cls-282{fill:#3dbd96;}.cls-283{fill:#3cbe97;}.cls-284{fill:#3bbf97;}.cls-285{fill:#3ac097;}.cls-286{fill:#39c097;}.cls-287{fill:#38c198;}.cls-288{fill:#37c298;}.cls-289{fill:#36c398;}.cls-290{fill:#35c498;}.cls-291{fill:#34c599;}.cls-292{fill:#33c699;}.cls-293{fill:#32c799;}.cls-294{fill:#31c899;}.cls-295{fill:#30c99a;}.cls-296{fill:#2fca9a;}.cls-297{fill:#2ecb9a;}.cls-298{fill:#2dcc9a;}.cls-299{fill:#2ccd9a;}.cls-300{fill:#2bce9b;}.cls-301{fill:#2acf9b;}.cls-302{fill:#29d09b;}.cls-303{fill:#28d19b;}.cls-304{fill:#27d29c;}.cls-305{fill:#26d39c;}.cls-306{fill:#25d49c;}.cls-307{fill:#24d59c;}.cls-308{fill:#23d69d;}.cls-309{fill:#22d69d;}.cls-310{fill:#21d79d;}.cls-311{fill:#20d89d;}.cls-312{fill:#1fd99e;}.cls-313{fill:#1eda9e;}.cls-314{fill:#1ddb9e;}.cls-315{fill:#1cdc9e;}.cls-316{fill:#1bdd9f;}.cls-317{fill:#1ade9f;}.cls-318{fill:#19df9f;}.cls-319{fill:#18e09f;}.cls-320{fill:#17e19f;}.cls-321{fill:#16e2a0;}.cls-322{fill:#15e3a0;}.cls-323{fill:#14e4a0;}.cls-324{fill:#13e5a0;}.cls-325{fill:#12e6a1;}.cls-326{fill:#11e7a1;}.cls-327{fill:#10e8a1;}.cls-328{fill:#0fe9a1;}.cls-329{fill:#0eeaa2;}.cls-330{fill:#0deba2;}.cls-331{fill:#0ceca2;}.cls-332{fill:#0beca2;}.cls-333{fill:#0aeda3;}.cls-334{fill:#09eea3;}.cls-335{fill:#08efa3;}.cls-336{fill:#07f0a3;}.cls-337{fill:#06f1a4;}.cls-338{fill:#05f2a4;}.cls-339{fill:#04f3a4;}.cls-340{fill:#03f4a4;}.cls-341{fill:#02f5a5;}.cls-342{fill:#01f6a5;}.cls-343{fill:#00f7a5;}.cls-344{fill:#f8f7ff;}</style><clipPath id="clip-path"><circle class="cls-1" cx="62" cy="62" r="62"/></clipPath></defs><g id="Ball"><g class="cls-2"><circle class="cls-3" cx="41.76" cy="22.07" r="26.38"/><circle class="cls-4" cx="38.29" cy="25.52" r="26.38"/><circle class="cls-5" cx="34.97" cy="28.9" r="26.38"/><circle class="cls-6" cx="31.83" cy="32.2" r="26.38"/><circle class="cls-7" cx="28.92" cy="35.41" r="26.38"/><circle class="cls-8" cx="26.24" cy="38.51" r="26.38"/><circle class="cls-9" cx="23.84" cy="41.47" r="26.38"/><circle class="cls-10" cx="21.73" cy="44.29" r="26.38"/><circle class="cls-11" cx="19.95" cy="46.93" r="26.38"/><circle class="cls-12" cx="18.52" cy="49.39" r="26.38"/><circle class="cls-13" cx="17.47" cy="51.65" r="26.38"/><circle class="cls-14" cx="16.83" cy="53.69" r="26.38"/><circle class="cls-15" cx="16.62" cy="55.48" r="26.38"/><circle class="cls-16" cx="16.88" cy="57.02" r="26.38"/><circle class="cls-17" cx="17.79" cy="58.47" r="26.38"/><circle class="cls-18" cx="19.69" cy="59.7" r="26.38"/><circle class="cls-19" cx="22.32" cy="60.42" r="26.38"/><circle class="cls-20" cx="25.49" cy="60.63" r="26.38"/><circle class="cls-21" cx="29.03" cy="60.34" r="26.38"/><circle class="cls-22" cx="32.77" cy="59.55" r="26.38"/><circle class="cls-23" cx="36.52" cy="58.28" r="26.38"/><circle class="cls-24" cx="40.12" cy="56.53" r="26.38"/><circle class="cls-25" cx="43.58" cy="54.16" r="26.38"/><circle class="cls-26" cx="46.53" cy="51.36" r="26.38"/><circle class="cls-27" cx="48.98" cy="48.24" r="26.38"/><circle class="cls-28" cx="50.99" cy="44.88" r="26.38"/><circle class="cls-29" cx="52.63" cy="41.33" r="26.38"/><circle class="cls-30" cx="53.94" cy="37.68" r="26.38"/><circle class="cls-31" cx="55.01" cy="34" r="26.38"/><circle class="cls-32" cx="55.88" cy="30.36" r="26.38"/><circle class="cls-33" cx="56.64" cy="26.84" r="26.38"/><circle class="cls-34" cx="57.32" cy="23.5" r="26.38"/><circle class="cls-35" cx="58.01" cy="20.41" r="26.38"/><circle class="cls-36" cx="58.77" cy="17.66" r="26.38"/><circle class="cls-37" cx="59.65" cy="15.31" r="26.38"/><circle class="cls-38" cx="60.72" cy="13.44" r="26.38"/><circle class="cls-39" cx="62.04" cy="12.11" r="26.38"/><circle class="cls-40" cx="63.68" cy="11.4" r="26.38"/><circle class="cls-41" cx="65.55" cy="11.37" r="26.38"/><circle class="cls-42" cx="67.62" cy="11.95" r="26.38"/><circle class="cls-43" cx="69.83" cy="13.09" r="26.38"/><circle class="cls-44" cx="72.15" cy="14.73" r="26.38"/><circle class="cls-45" cx="74.52" cy="16.82" r="26.38"/><circle class="cls-45" cx="76.91" cy="19.3" r="26.38"/><circle class="cls-46" cx="79.26" cy="22.11" r="26.38"/><circle class="cls-47" cx="81.53" cy="25.2" r="26.38"/><circle class="cls-48" cx="83.68" cy="28.51" r="26.38"/><circle class="cls-49" cx="85.65" cy="31.99" r="26.38"/><circle class="cls-50" cx="87.4" cy="35.57" r="26.38"/><circle class="cls-51" cx="88.9" cy="39.2" r="26.38"/><circle class="cls-52" cx="90.08" cy="42.84" r="26.38"/><circle class="cls-53" cx="90.91" cy="46.41" r="26.38"/><circle class="cls-54" cx="91.33" cy="49.86" r="26.38"/><circle class="cls-55" cx="91.31" cy="53.14" r="26.38"/><circle class="cls-56" cx="90.8" cy="56.19" r="26.38"/><circle class="cls-57" cx="89.75" cy="58.96" r="26.38"/><circle class="cls-58" cx="88.2" cy="61.27" r="26.38"/><circle class="cls-59" cx="86.27" cy="63.09" r="26.38"/><circle class="cls-60" cx="83.96" cy="64.49" r="26.38"/><circle class="cls-61" cx="81.32" cy="65.52" r="26.38"/><circle class="cls-62" cx="78.38" cy="66.23" r="26.38"/><circle class="cls-63" cx="75.19" cy="66.65" r="26.38"/><circle class="cls-64" cx="71.78" cy="66.83" r="26.38"/><circle class="cls-65" cx="68.2" cy="66.82" r="26.38"/><circle class="cls-66" cx="64.48" cy="66.66" r="26.38"/><circle class="cls-67" cx="60.66" cy="66.39" r="26.38"/><circle class="cls-68" cx="56.78" cy="66.06" r="26.38"/><circle class="cls-69" cx="52.87" cy="65.71" r="26.38"/><circle class="cls-70" cx="48.99" cy="65.39" r="26.38"/><circle class="cls-71" cx="45.16" cy="65.14" r="26.38"/><circle class="cls-72" cx="41.44" cy="65" r="26.38"/><circle class="cls-73" cx="37.84" cy="65.03" r="26.38"/><circle class="cls-74" cx="34.42" cy="65.25" r="26.38"/><circle class="cls-75" cx="31.22" cy="65.73" r="26.38"/><circle class="cls-76" cx="28.26" cy="66.5" r="26.38"/><circle class="cls-77" cx="25.6" cy="67.6" r="26.38"/><circle class="cls-78" cx="23.27" cy="69.09" r="26.38"/><circle class="cls-79" cx="21.31" cy="71" r="26.38"/><circle class="cls-80" cx="19.76" cy="73.36" r="26.38"/><circle class="cls-81" cx="18.7" cy="76.07" r="26.38"/><circle class="cls-82" cx="18.11" cy="79.06" r="26.38"/><circle class="cls-83" cx="17.96" cy="82.27" r="26.38"/><circle class="cls-84" cx="18.21" cy="85.64" r="26.38"/><circle class="cls-85" cx="18.83" cy="89.13" r="26.38"/><circle class="cls-86" cx="19.78" cy="92.66" r="26.38"/><circle class="cls-87" cx="21.04" cy="96.19" r="26.38"/><circle class="cls-88" cx="22.27" cy="99.06" r="26.38"/><circle class="cls-89" cx="23.22" cy="100.98" r="26.38"/><circle class="cls-90" cx="23.9" cy="102.28" r="26.38"/><circle class="cls-91" cx="24.62" cy="103.55" r="26.38"/><circle class="cls-92" cx="25.37" cy="104.79" r="26.38"/><circle class="cls-93" cx="26.15" cy="106" r="26.38"/><circle class="cls-94" cx="26.95" cy="107.18" r="26.38"/><circle class="cls-95" cx="27.77" cy="108.33" r="26.38"/><circle class="cls-96" cx="28.62" cy="109.43" r="26.38"/><circle class="cls-97" cx="29.49" cy="110.49" r="26.38"/><circle class="cls-98" cx="30.37" cy="111.51" r="26.38"/><circle class="cls-99" cx="31.27" cy="112.47" r="26.38"/><circle class="cls-100" cx="32.19" cy="113.39" r="26.38"/><circle class="cls-101" cx="33.12" cy="114.25" r="26.38"/><circle class="cls-102" cx="34.05" cy="115.05" r="26.38"/><circle class="cls-103" cx="35" cy="115.78" r="26.38"/><circle class="cls-104" cx="35.95" cy="116.45" r="26.38"/><circle class="cls-105" cx="36.91" cy="117.05" r="26.38"/><circle class="cls-106" cx="37.87" cy="117.59" r="26.38"/><circle class="cls-107" cx="38.83" cy="118.04" r="26.38"/><circle class="cls-108" cx="39.79" cy="118.42" r="26.38"/><circle class="cls-109" cx="40.74" cy="118.71" r="26.38"/><circle class="cls-110" cx="41.69" cy="118.93" r="26.38"/><circle class="cls-111" cx="42.63" cy="119.05" r="26.38"/><circle class="cls-112" cx="43.53" cy="119.08" r="26.38"/><circle class="cls-113" cx="44.29" cy="119.04" r="26.38"/><circle class="cls-114" cx="45.01" cy="118.93" r="26.38"/><circle class="cls-115" cx="45.7" cy="118.76" r="26.38"/><circle class="cls-116" cx="46.36" cy="118.54" r="26.38"/><circle class="cls-117" cx="47" cy="118.25" r="26.38"/><circle class="cls-118" cx="47.62" cy="117.9" r="26.38"/><circle class="cls-119" cx="48.22" cy="117.5" r="26.38"/><circle class="cls-120" cx="48.8" cy="117.04" r="26.38"/><circle class="cls-121" cx="49.38" cy="116.53" r="26.38"/><circle class="cls-122" cx="49.95" cy="115.97" r="26.38"/><circle class="cls-123" cx="50.51" cy="115.36" r="26.38"/><circle class="cls-124" cx="51.07" cy="114.7" r="26.38"/><circle class="cls-125" cx="51.63" cy="113.99" r="26.38"/><circle class="cls-126" cx="52.2" cy="113.24" r="26.38"/><circle class="cls-127" cx="52.77" cy="112.45" r="26.38"/><circle class="cls-128" cx="53.36" cy="111.61" r="26.38"/><circle class="cls-129" cx="53.96" cy="110.73" r="26.38"/><circle class="cls-130" cx="54.58" cy="109.81" r="26.38"/><circle class="cls-131" cx="55.21" cy="108.85" r="26.38"/><circle class="cls-132" cx="55.87" cy="107.86" r="26.38"/><circle class="cls-133" cx="56.56" cy="106.83" r="26.38"/><circle class="cls-134" cx="57.28" cy="105.77" r="26.38"/><circle class="cls-135" cx="58.03" cy="104.67" r="26.38"/><circle class="cls-136" cx="58.81" cy="103.55" r="26.38"/><circle class="cls-137" cx="59.64" cy="102.4" r="26.38"/><circle class="cls-138" cx="60.51" cy="101.22" r="26.38"/><circle class="cls-139" cx="61.42" cy="100.01" r="26.38"/><circle class="cls-140" cx="62.38" cy="98.79" r="26.38"/><circle class="cls-141" cx="63.39" cy="97.53" r="26.38"/><circle class="cls-142" cx="64.46" cy="96.26" r="26.38"/><circle class="cls-143" cx="65.59" cy="94.97" r="26.38"/><circle class="cls-144" cx="66.77" cy="93.66" r="26.38"/><circle class="cls-145" cx="68.03" cy="92.33" r="26.38"/><circle class="cls-146" cx="69.34" cy="90.99" r="26.38"/><circle class="cls-147" cx="70.74" cy="89.64" r="26.38"/><circle class="cls-148" cx="72.2" cy="88.27" r="26.38"/><circle class="cls-149" cx="73.74" cy="86.89" r="26.38"/><circle class="cls-150" cx="75.36" cy="85.51" r="26.38"/><circle class="cls-151" cx="77.06" cy="84.12" r="26.38"/><circle class="cls-152" cx="78.68" cy="82.85" r="26.38"/><circle class="cls-153" cx="80.06" cy="81.81" r="26.38"/><circle class="cls-154" cx="81.37" cy="80.86" r="26.38"/><circle class="cls-155" cx="82.62" cy="80" r="26.38"/><circle class="cls-156" cx="83.81" cy="79.22" r="26.38"/><circle class="cls-157" cx="84.95" cy="78.5" r="26.38"/><circle class="cls-158" cx="86.04" cy="77.85" r="26.38"/><circle class="cls-159" cx="87.08" cy="77.25" r="26.38"/><circle class="cls-160" cx="88.09" cy="76.7" r="26.38"/><circle class="cls-161" cx="89.06" cy="76.2" r="26.38"/><circle class="cls-162" cx="90.01" cy="75.72" r="26.38"/><circle class="cls-163" cx="90.93" cy="75.28" r="26.38"/><circle class="cls-164" cx="91.84" cy="74.86" r="26.38"/><circle class="cls-165" cx="92.74" cy="74.44" r="26.38"/><circle class="cls-166" cx="93.63" cy="74.04" r="26.38"/><circle class="cls-167" cx="94.52" cy="73.63" r="26.38"/><circle class="cls-168" cx="95.41" cy="73.21" r="26.38"/><circle class="cls-169" cx="96.32" cy="72.78" r="26.38"/><circle class="cls-170" cx="97.24" cy="72.33" r="26.38"/><circle class="cls-171" cx="98.18" cy="71.84" r="26.38"/><circle class="cls-172" cx="99.15" cy="71.32" r="26.38"/><circle class="cls-173" cx="100.14" cy="70.75" r="26.38"/><circle class="cls-174" cx="101.18" cy="70.13" r="26.38"/><circle class="cls-175" cx="102.25" cy="69.45" r="26.38"/><circle class="cls-176" cx="103.38" cy="68.71" r="26.38"/><circle class="cls-177" cx="104.55" cy="67.89" r="26.38"/><circle class="cls-178" cx="105.78" cy="66.99" r="26.38"/><circle class="cls-179" cx="107.08" cy="66" r="26.38"/><circle class="cls-180" cx="108.44" cy="64.92" r="26.38"/><circle class="cls-181" cx="109.88" cy="63.74" r="26.38"/><circle class="cls-182" cx="111.47" cy="62.38" r="26.38"/><circle class="cls-183" cx="113.01" cy="61.02" r="26.38"/><circle class="cls-184" cx="114.46" cy="59.68" r="26.38"/><circle class="cls-185" cx="115.86" cy="58.36" r="26.38"/><circle class="cls-186" cx="117.18" cy="57.06" r="26.38"/><circle class="cls-187" cx="118.45" cy="55.79" r="26.38"/><circle class="cls-188" cx="119.66" cy="54.54" r="26.38"/><circle class="cls-189" cx="120.81" cy="53.33" r="26.38"/><circle class="cls-190" cx="121.91" cy="52.14" r="26.38"/><circle class="cls-191" cx="122.96" cy="50.99" r="26.38"/><circle class="cls-192" cx="123.96" cy="49.87" r="26.38"/><circle class="cls-193" cx="124.92" cy="48.8" r="26.38"/><circle class="cls-194" cx="125.84" cy="47.77" r="26.38"/><circle class="cls-195" cx="126.73" cy="46.78" r="26.38"/><circle class="cls-196" cx="127.58" cy="45.84" r="26.38"/><circle class="cls-197" cx="128.4" cy="44.95" r="26.38"/><circle class="cls-198" cx="129.19" cy="44.11" r="26.38"/><circle class="cls-199" cx="129.96" cy="43.32" r="26.38"/><circle class="cls-200" cx="130.71" cy="42.6" r="26.38"/><circle class="cls-201" cx="131.44" cy="41.93" r="26.38"/><circle class="cls-202" cx="132.16" cy="41.32" r="26.38"/><circle class="cls-203" cx="132.86" cy="40.78" r="26.38"/><circle class="cls-204" cx="133.56" cy="40.31" r="26.38"/><circle class="cls-205" cx="134.25" cy="39.9" r="26.38"/><circle class="cls-206" cx="134.94" cy="39.57" r="26.38"/><circle class="cls-207" cx="135.63" cy="39.31" r="26.38"/><circle class="cls-208" cx="136.33" cy="39.13" r="26.38"/><circle class="cls-209" cx="137.03" cy="39.03" r="26.38"/><circle class="cls-210" cx="137.75" cy="39.01" r="26.38"/><circle class="cls-211" cx="138.47" cy="39.08" r="26.38"/><circle class="cls-212" cx="139.39" cy="39.28" r="26.38"/><circle class="cls-213" cx="140.41" cy="39.66" r="26.38"/><circle class="cls-214" cx="141.39" cy="40.18" r="26.38"/><circle class="cls-215" cx="142.34" cy="40.83" r="26.38"/><circle class="cls-216" cx="143.25" cy="41.61" r="26.38"/><circle class="cls-217" cx="144.11" cy="42.49" r="26.38"/><circle class="cls-218" cx="144.92" cy="43.47" r="26.38"/><circle class="cls-219" cx="145.68" cy="44.54" r="26.38"/><circle class="cls-220" cx="146.38" cy="45.67" r="26.38"/><circle class="cls-221" cx="147.02" cy="46.87" r="26.38"/><circle class="cls-222" cx="147.6" cy="48.12" r="26.38"/><circle class="cls-223" cx="148.1" cy="49.41" r="26.38"/><circle class="cls-224" cx="148.53" cy="50.72" r="26.38"/><circle class="cls-225" cx="148.88" cy="52.05" r="26.38"/><circle class="cls-226" cx="149.15" cy="53.37" r="26.38"/><circle class="cls-227" cx="149.33" cy="54.69" r="26.38"/><circle class="cls-228" cx="149.42" cy="55.99" r="26.38"/><circle class="cls-229" cx="149.42" cy="57.02" r="26.38"/><circle class="cls-230" cx="149.37" cy="57.73" r="26.38"/><circle class="cls-231" cx="149.27" cy="58.45" r="26.38"/><circle class="cls-232" cx="149.13" cy="59.19" r="26.38"/><circle class="cls-233" cx="148.94" cy="59.95" r="26.38"/><circle class="cls-234" cx="148.7" cy="60.71" r="26.38"/><circle class="cls-235" cx="148.42" cy="61.49" r="26.38"/><circle class="cls-236" cx="148.1" cy="62.28" r="26.38"/><circle class="cls-237" cx="147.74" cy="63.08" r="26.38"/><circle class="cls-238" cx="147.33" cy="63.89" r="26.38"/><circle class="cls-239" cx="146.88" cy="64.72" r="26.38"/><circle class="cls-240" cx="146.4" cy="65.56" r="26.38"/><circle class="cls-241" cx="145.87" cy="66.4" r="26.38"/><circle class="cls-242" cx="145.31" cy="67.26" r="26.38"/><circle class="cls-243" cx="144.7" cy="68.12" r="26.38"/><circle class="cls-244" cx="144.07" cy="69" r="26.38"/><circle class="cls-245" cx="143.39" cy="69.88" r="26.38"/><circle class="cls-246" cx="142.68" cy="70.78" r="26.38"/><circle class="cls-247" cx="141.94" cy="71.68" r="26.38"/><circle class="cls-248" cx="141.16" cy="72.59" r="26.38"/><circle class="cls-249" cx="140.35" cy="73.5" r="26.38"/><circle class="cls-250" cx="139.51" cy="74.43" r="26.38"/><circle class="cls-251" cx="138.64" cy="75.36" r="26.38"/><circle class="cls-252" cx="137.74" cy="76.3" r="26.38"/><circle class="cls-253" cx="136.81" cy="77.24" r="26.38"/><circle class="cls-254" cx="135.85" cy="78.19" r="26.38"/><circle class="cls-255" cx="134.86" cy="79.15" r="26.38"/><circle class="cls-256" cx="133.84" cy="80.11" r="26.38"/><circle class="cls-257" cx="132.8" cy="81.07" r="26.38"/><circle class="cls-258" cx="131.74" cy="82.04" r="26.38"/><circle class="cls-259" cx="130.65" cy="83.02" r="26.38"/><circle class="cls-260" cx="129.53" cy="83.99" r="26.38"/><circle class="cls-261" cx="128.4" cy="84.97" r="26.38"/><circle class="cls-262" cx="127.24" cy="85.96" r="26.38"/><circle class="cls-263" cx="126.06" cy="86.95" r="26.38"/><circle class="cls-264" cx="124.86" cy="87.94" r="26.38"/><circle class="cls-265" cx="123.64" cy="88.93" r="26.38"/><circle class="cls-266" cx="122.4" cy="89.92" r="26.38"/><circle class="cls-267" cx="121.15" cy="90.91" r="26.38"/><circle class="cls-268" cx="119.88" cy="91.91" r="26.38"/><circle class="cls-269" cx="118.59" cy="92.91" r="26.38"/><circle class="cls-270" cx="117.28" cy="93.9" r="26.38"/><circle class="cls-271" cx="115.96" cy="94.9" r="26.38"/><circle class="cls-272" cx="114.63" cy="95.89" r="26.38"/><circle class="cls-273" cx="113.29" cy="96.89" r="26.38"/><circle class="cls-274" cx="111.93" cy="97.88" r="26.38"/><circle class="cls-275" cx="110.56" cy="98.87" r="26.38"/><circle class="cls-276" cx="109.18" cy="99.86" r="26.38"/><circle class="cls-277" cx="107.79" cy="100.85" r="26.38"/><circle class="cls-278" cx="106.39" cy="101.84" r="26.38"/><circle class="cls-279" cx="104.98" cy="102.82" r="26.38"/><circle class="cls-280" cx="103.57" cy="103.8" r="26.38"/><circle class="cls-281" cx="102.15" cy="104.78" r="26.38"/><circle class="cls-282" cx="100.73" cy="105.75" r="26.38"/><circle class="cls-283" cx="99.3" cy="106.71" r="26.38"/><circle class="cls-284" cx="97.86" cy="107.68" r="26.38"/><circle class="cls-285" cx="96.42" cy="108.63" r="26.38"/><circle class="cls-286" cx="94.98" cy="109.59" r="26.38"/><circle class="cls-287" cx="93.54" cy="110.53" r="26.38"/><circle class="cls-288" cx="92.1" cy="111.47" r="26.38"/><circle class="cls-289" cx="90.66" cy="112.41" r="26.38"/><circle class="cls-290" cx="89.22" cy="113.34" r="26.38"/><circle class="cls-291" cx="87.78" cy="114.26" r="26.38"/><circle class="cls-292" cx="86.34" cy="115.17" r="26.38"/><circle class="cls-293" cx="84.91" cy="116.07" r="26.38"/><circle class="cls-294" cx="83.48" cy="116.97" r="26.38"/><circle class="cls-295" cx="82.06" cy="117.86" r="26.38"/><circle class="cls-296" cx="80.64" cy="118.74" r="26.38"/><circle class="cls-297" cx="79.23" cy="119.61" r="26.38"/><circle class="cls-298" cx="77.82" cy="120.47" r="26.38"/><circle class="cls-299" cx="76.43" cy="121.32" r="26.38"/><circle class="cls-300" cx="75.04" cy="122.16" r="26.38"/><circle class="cls-301" cx="73.66" cy="122.99" r="26.38"/><circle class="cls-302" cx="72.3" cy="123.81" r="26.38"/><circle class="cls-303" cx="70.94" cy="124.62" r="26.38"/><circle class="cls-304" cx="69.6" cy="125.41" r="26.38"/><circle class="cls-305" cx="68.27" cy="126.19" r="26.38"/><circle class="cls-306" cx="66.96" cy="126.97" r="26.38"/><circle class="cls-307" cx="65.66" cy="127.72" r="26.38"/><circle class="cls-308" cx="64.37" cy="128.47" r="26.38"/><circle class="cls-309" cx="63.1" cy="129.2" r="26.38"/><circle class="cls-310" cx="61.85" cy="129.92" r="26.38"/><circle class="cls-311" cx="60.62" cy="130.62" r="26.38"/><circle class="cls-312" cx="59.41" cy="131.31" r="26.38"/><circle class="cls-313" cx="58.21" cy="131.99" r="26.38"/><circle class="cls-314" cx="57.04" cy="132.65" r="26.38"/><circle class="cls-315" cx="55.88" cy="133.29" r="26.38"/><circle class="cls-316" cx="54.75" cy="133.92" r="26.38"/><circle class="cls-317" cx="53.65" cy="134.53" r="26.38"/><circle class="cls-318" cx="52.56" cy="135.12" r="26.38"/><circle class="cls-319" cx="51.5" cy="135.7" r="26.38"/><circle class="cls-320" cx="50.47" cy="136.26" r="26.38"/><circle class="cls-321" cx="49.46" cy="136.8" r="26.38"/><circle class="cls-322" cx="48.48" cy="137.33" r="26.38"/><circle class="cls-323" cx="47.53" cy="137.84" r="26.38"/><circle class="cls-324" cx="46.61" cy="138.32" r="26.38"/><circle class="cls-325" cx="45.71" cy="138.79" r="26.38"/><circle class="cls-326" cx="44.85" cy="139.24" r="26.38"/><circle class="cls-327" cx="44.02" cy="139.67" r="26.38"/><circle class="cls-328" cx="43.22" cy="140.08" r="26.38"/><circle class="cls-329" cx="42.45" cy="140.47" r="26.38"/><circle class="cls-330" cx="41.71" cy="140.84" r="26.38"/><circle class="cls-331" cx="41.02" cy="141.18" r="26.38"/><circle class="cls-332" cx="40.35" cy="141.51" r="26.38"/><circle class="cls-333" cx="39.72" cy="141.81" r="26.38"/><circle class="cls-334" cx="39.13" cy="142.09" r="26.38"/><circle class="cls-335" cx="38.58" cy="142.35" r="26.38"/><circle class="cls-336" cx="38.06" cy="142.59" r="26.38"/><circle class="cls-337" cx="37.58" cy="142.8" r="26.38"/><circle class="cls-338" cx="37.15" cy="142.99" r="26.38"/><circle class="cls-339" cx="36.75" cy="143.15" r="26.38"/><circle class="cls-340" cx="36.4" cy="143.29" r="26.38"/><circle class="cls-341" cx="36.09" cy="143.41" r="26.38"/><circle class="cls-342" cx="35.82" cy="143.5" r="26.38"/><circle class="cls-343" cx="35.6" cy="143.56" r="26.38"/></g></g><path class="cls-344" d="M74.86,44.74,46.66,65.16A15,15,0,0,1,31.93,66.8,47.93,47.93,0,0,0,16.57,63a1,1,0,0,1,0-2.08A48.13,48.13,0,0,0,61,16.59a1,1,0,1,1,2.07,0A48,48,0,0,0,74.86,44.74Z"/><path class="cls-344" d="M107.4,63A48.14,48.14,0,0,0,63,107.41a1,1,0,1,1-2.07,0h0A48,48,0,0,0,57.19,92a15,15,0,0,1,1.63-14.73l20.43-28.2A48.14,48.14,0,0,0,107.4,60.91a1.07,1.07,0,0,1,0,2.13Z"/><path class="cls-344" d="M87.43,37.81,79.25,49.13a49.16,49.16,0,0,1-4.39-4.39l11.32-8.19a.9.9,0,0,1,1.25,1.26Z"/><path class="cls-344" d="M72.38,46.54s2.4-1.78,4-.14.74-3.33.74-3.33-2.73,1.39-4-.33l1.66,2"/><path class="cls-344" d="M79.25,49.13,78,48a4.07,4.07,0,0,1-.52,3.63C76.22,53.3,79.25,49.13,79.25,49.13Z"/><path class="cls-344" d="M80.75,47.05s-1.25,2.43.63,3.82l-2.13-1.74Z"/><path class="cls-344" d="M89.94,34.15a5.5,5.5,0,0,1,1.37,2.4.51.51,0,0,0,.7.2.64.64,0,0,0,.2-.2l.49-.46A2.75,2.75,0,0,0,93.38,35L94,33.09a.69.69,0,0,1,.17-.3,11.6,11.6,0,0,0,3.08-5.46.41.41,0,0,0,0-.4.49.49,0,0,0-.41,0A11.77,11.77,0,0,0,91.33,30a.64.64,0,0,1-.3.17l-1.88.57a2.65,2.65,0,0,0-1.12.68l-.57.55c-.33.3-.3.79,0,.87A5.56,5.56,0,0,1,89.94,34.15Z"/></svg>