<svg id="Layer_1" data-name="Layer 1" xmlns="http://www.w3.org/2000/svg" viewBox="0 0 2500 2500"><defs><style>.cls-1{fill:#f8f7ff;}</style></defs><path class="cls-1" d="M2500,474.66a1027.31,1027.31,0,0,1-294.53,80.7c105.92-63.42,187.18-164,225.49-283.85a1023.78,1023.78,0,0,1-325.68,124.42,512.66,512.66,0,0,0-374.35-161.85c-283.19,0-512.86,229.68-512.86,513.08a523.8,523.8,0,0,0,13.21,116.71c-426.43-21.47-804.19-225.71-1057.21-536a512.77,512.77,0,0,0-69.36,257.86c0,177.92,90.62,335,228.13,427a511.7,511.7,0,0,1-232.32-64.19v6.6c0,248.5,176.72,455.83,411.46,503a520.72,520.72,0,0,1-231.65,8.8C345.62,1670.59,535,1819,759.49,1823c-175.61,137.63-396.81,219.66-637.06,219.66A1044.91,1044.91,0,0,1,0,2035.47c227,145.67,496.57,230.45,786.14,230.45,943.58,0,1459.41-781.51,1459.41-1459.3,0-22-.55-44.27-1.54-66.29A1042.81,1042.81,0,0,0,2499.77,475Z"/></svg>