<svg id="Layer_1" data-name="Layer 1" xmlns="http://www.w3.org/2000/svg" viewBox="0 0 2496 2500"><defs><style>.cls-1{fill:none;}.cls-2{fill:#f8f7ff;}</style></defs><path class="cls-1" d="M.23.76H2495.77V2496.29H.23Z"/><path class="cls-2" d="M1303.24,2108.62l-511.38-9.36C626.29,2096,460.3,2102.51,298,2068.75,51,2018.3,33.55,1771,15.24,1563.48-10,1271.79-.22,974.81,47.38,685.55,74.25,523.25,180,426.41,343.54,415.87,895.6,377.62,1451.33,382.15,2002.16,400c58.18,1.63,116.75,10.57,174.12,20.75,283.16,49.64,290.06,329.93,308.42,565.89,18.3,238.4,10.57,478-24.42,714.79-28.07,196-81.77,360.44-308.42,376.31-284,20.75-561.42,37.46-846.19,32.14C1305.68,2108.62,1304.05,2108.62,1303.24,2108.62ZM1002.6,1612.3c214-122.87,423.9-243.69,636.68-365.73-214.4-122.87-423.91-243.69-636.68-365.74Z"/></svg>