<svg id="Layer_1" data-name="Layer 1" xmlns="http://www.w3.org/2000/svg" xmlns:xlink="http://www.w3.org/1999/xlink" viewBox="0 0 1440 1080"><defs><style>.cls-1{fill:none;}.cls-2{clip-path:url(#clip-path);}.cls-3{clip-path:url(#clip-path-2);}.cls-4{fill:#ac0450;}.cls-5{fill:#ad0450;}.cls-6{fill:#ae0450;}.cls-7{fill:#af0450;}.cls-8{fill:#b00451;}.cls-9{fill:#b10451;}.cls-10{fill:#b20451;}.cls-11{fill:#b30452;}.cls-12{fill:#b40452;}.cls-13{fill:#b50452;}.cls-14{fill:#b60452;}.cls-15{fill:#b70453;}.cls-16{fill:#b80453;}.cls-17{fill:#b90453;}.cls-18{fill:#ba0454;}.cls-19{fill:#bb0454;}.cls-20{fill:#bc0454;}.cls-21{fill:#bd0455;}.cls-22{fill:#be0455;}.cls-23{fill:#bf0455;}.cls-24{fill:#c00455;}.cls-25{fill:#c10456;}.cls-26{fill:#c20456;}.cls-27{fill:#c30456;}.cls-28{fill:#c40457;}.cls-29{fill:#c50457;}.cls-30{fill:#c60457;}.cls-31{fill:#dc035e;}.cls-32{fill:#dd035e;}.cls-33{fill:#de035e;}.cls-34{fill:#df035f;}.cls-35{fill:#e0035f;}.cls-36{fill:#e1035f;}.cls-37{fill:#e20360;}.cls-38{fill:#e30360;}.cls-39{fill:#e40360;}.cls-40{fill:#e50360;}.cls-41{fill:#e60361;}.cls-42{fill:#e70361;}.cls-43{fill:#e80361;}.cls-44{fill:#e90362;}.cls-45{fill:#ea0362;}.cls-46{fill:#eb0362;}.cls-47{fill:#ec0362;}.cls-48{fill:#ed0363;}.cls-49{fill:#ee0363;}.cls-50{fill:#ef0363;}.cls-51{fill:#f00364;}.cls-52{fill:#f10364;}.cls-53{fill:#f20364;}.cls-54{fill:#f30365;}.cls-55{fill:#f40365;}.cls-56{fill:#f50365;}.cls-57{fill:#f60365;}.cls-58{fill:#f70366;}.cls-59{fill:#f80366;}.cls-60{fill:#f90366;}.cls-61{fill:#fa0367;}.cls-62{fill:#fb0367;}.cls-63{fill:#fc0367;}.cls-64{fill:#fd0367;}.cls-65{fill:#fe0368;}.cls-66{fill:#ff0368;}.cls-67{fill:#fe0468;}.cls-68{fill:#fd0568;}.cls-69{fill:#fc0669;}.cls-70{fill:#fb0769;}.cls-71{fill:#fa0869;}.cls-72{fill:#f90969;}.cls-73{fill:#f80a6a;}.cls-74{fill:#f70b6a;}.cls-75{fill:#f60c6a;}.cls-76{fill:#f50d6a;}.cls-77{fill:#f40e6b;}.cls-78{fill:#f30e6b;}.cls-79{fill:#f20f6b;}.cls-80{fill:#f1106b;}.cls-81{fill:#f0116c;}.cls-82{fill:#ef126c;}.cls-83{fill:#ee136c;}.cls-84{fill:#ed146c;}.cls-85{fill:#ec156d;}.cls-86{fill:#eb166d;}.cls-87{fill:#ea176d;}.cls-88{fill:#e9186d;}.cls-89{fill:#e8196e;}.cls-90{fill:#e71a6e;}.cls-91{fill:#e61b6e;}.cls-92{fill:#e51c6e;}.cls-93{fill:#e41d6e;}.cls-94{fill:#e31e6f;}.cls-95{fill:#e21f6f;}.cls-96{fill:#e1206f;}.cls-97{fill:#e0216f;}.cls-98{fill:#df2270;}.cls-99{fill:#de2370;}.cls-100{fill:#dd2470;}.cls-101{fill:#dc2470;}.cls-102{fill:#db2571;}.cls-103{fill:#da2671;}.cls-104{fill:#d92771;}.cls-105{fill:#d82871;}.cls-106{fill:#d72972;}.cls-107{fill:#d62a72;}.cls-108{fill:#d52b72;}.cls-109{fill:#d42c72;}.cls-110{fill:#d32d73;}.cls-111{fill:#d22e73;}.cls-112{fill:#d12f73;}.cls-113{fill:#d03073;}.cls-114{fill:#cf3173;}.cls-115{fill:#ce3274;}.cls-116{fill:#cd3374;}.cls-117{fill:#cc3474;}.cls-118{fill:#cb3574;}.cls-119{fill:#ca3675;}.cls-120{fill:#c93775;}.cls-121{fill:#c83875;}.cls-122{fill:#c73975;}.cls-123{fill:#c63a76;}.cls-124{fill:#c53a76;}.cls-125{fill:#c43b76;}.cls-126{fill:#c33c76;}.cls-127{fill:#c23d77;}.cls-128{fill:#c13e77;}.cls-129{fill:#c03f77;}.cls-130{fill:#bf4077;}.cls-131{fill:#be4178;}.cls-132{fill:#bd4278;}.cls-133{fill:#bc4378;}.cls-134{fill:#bb4478;}.cls-135{fill:#ba4579;}.cls-136{fill:#b94679;}.cls-137{fill:#b84779;}.cls-138{fill:#b74879;}.cls-139{fill:#b64979;}.cls-140{fill:#b54a7a;}.cls-141{fill:#b44b7a;}.cls-142{fill:#b34c7a;}.cls-143{fill:#b24d7a;}.cls-144{fill:#b14e7b;}.cls-145{fill:#b04f7b;}.cls-146{fill:#af507b;}.cls-147{fill:#ae517b;}.cls-148{fill:#ad517c;}.cls-149{fill:#ac527c;}.cls-150{fill:#ab537c;}.cls-151{fill:#aa547c;}.cls-152{fill:#a9557d;}.cls-153{fill:#a8567d;}.cls-154{fill:#a7577d;}.cls-155{fill:#a6587d;}.cls-156{fill:#a5597e;}.cls-157{fill:#a45a7e;}.cls-158{fill:#a35b7e;}.cls-159{fill:#a25c7e;}.cls-160{fill:#39c097;}.cls-161{fill:#38c198;}.cls-162{fill:#37c298;}.cls-163{fill:#36c398;}.cls-164{fill:#35c498;}.cls-165{fill:#34c599;}.cls-166{fill:#33c699;}.cls-167{fill:#32c799;}.cls-168{fill:#31c899;}.cls-169{fill:#30c99a;}.cls-170{fill:#2fca9a;}.cls-171{fill:#2ecb9a;}.cls-172{fill:#2dcc9a;}.cls-173{fill:#2ccd9a;}.cls-174{fill:#2bce9b;}.cls-175{fill:#2acf9b;}.cls-176{fill:#29d09b;}.cls-177{fill:#28d19b;}.cls-178{fill:#27d29c;}.cls-179{fill:#26d39c;}.cls-180{fill:#25d49c;}.cls-181{fill:#24d59c;}.cls-182{fill:#23d69d;}.cls-183{fill:#22d69d;}.cls-184{fill:#21d79d;}.cls-185{fill:#20d89d;}.cls-186{fill:#1fd99e;}.cls-187{fill:#1eda9e;}.cls-188{fill:#1ddb9e;}.cls-189{fill:#1cdc9e;}.cls-190{fill:#1bdd9f;}.cls-191{fill:#1ade9f;}.cls-192{fill:#19df9f;}.cls-193{fill:#18e09f;}.cls-194{fill:#17e19f;}.cls-195{fill:#16e2a0;}.cls-196{fill:#15e3a0;}.cls-197{fill:#14e4a0;}.cls-198{fill:#13e5a0;}.cls-199{fill:#12e6a1;}.cls-200{fill:#11e7a1;}.cls-201{fill:#10e8a1;}.cls-202{fill:#0fe9a1;}.cls-203{fill:#0eeaa2;}.cls-204{fill:#0deba2;}.cls-205{fill:#0ceca2;}.cls-206{fill:#0beca2;}.cls-207{fill:#0aeda3;}</style><clipPath id="clip-path"><path class="cls-1" d="M1340,0c7,56.7,37,313.44,9.19,470.89-6.32,35.74-15.32,67.41-15.32,67.41s-32.76,115.25-95,199.15c-145.36,196-570.9,149.86-625,144-103.45-11.22-104.52-25.52-199.15-30.64C241.52,841.43,97.39,881.31,0,918.21V1080H1440V0Z"/></clipPath><clipPath id="clip-path-2"><ellipse class="cls-1" cx="-27.05" cy="503.17" rx="1603.13" ry="1563.03" transform="translate(-152.13 15.05) rotate(-17.45)"/></clipPath></defs><g class="cls-2"><g id="Ball"><g class="cls-3"><ellipse class="cls-4" cx="-639.83" cy="1409.68" rx="682.2" ry="665.14" transform="translate(-452.18 -126.99) rotate(-17.45)"/><ellipse class="cls-5" cx="-534.95" cy="1459.25" rx="682.2" ry="665.14" transform="translate(-462.21 -93.26) rotate(-17.45)"/><ellipse class="cls-6" cx="-434.02" cy="1504.42" rx="682.2" ry="665.14" transform="translate(-471.12 -60.92) rotate(-17.45)"/><ellipse class="cls-7" cx="-337.7" cy="1544.68" rx="682.2" ry="665.14" transform="translate(-478.75 -30.18) rotate(-17.45)"/><ellipse class="cls-8" cx="-246.62" cy="1579.51" rx="682.2" ry="665.14" transform="translate(-485.01 -1.26) rotate(-17.45)"/><ellipse class="cls-9" cx="-161.43" cy="1608.39" rx="682.2" ry="665.14" transform="translate(-489.75 25.61) rotate(-17.45)"/><ellipse class="cls-10" cx="-82.77" cy="1630.81" rx="682.2" ry="665.14" transform="translate(-492.85 50.23) rotate(-17.45)"/><ellipse class="cls-11" cx="-11.29" cy="1646.24" rx="682.2" ry="665.14" transform="translate(-494.19 72.38) rotate(-17.45)"/><ellipse class="cls-12" cx="52.37" cy="1654.18" rx="682.2" ry="665.14" transform="translate(-493.64 91.83) rotate(-17.45)"/><ellipse class="cls-13" cx="107.57" cy="1654.11" rx="682.2" ry="665.14" transform="translate(-491.08 108.38) rotate(-17.45)"/><ellipse class="cls-14" cx="153.67" cy="1645.51" rx="682.2" ry="665.14" transform="translate(-486.38 121.81) rotate(-17.45)"/><ellipse class="cls-15" cx="190.01" cy="1627.86" rx="682.2" ry="665.14" transform="translate(-479.41 131.9) rotate(-17.45)"/><ellipse class="cls-16" cx="219.03" cy="1595.63" rx="682.2" ry="665.14" transform="translate(-468.41 139.12) rotate(-17.45)"/><ellipse class="cls-17" cx="235.95" cy="1540.33" rx="682.2" ry="665.14" transform="translate(-451.05 141.64) rotate(-17.45)"/><ellipse class="cls-18" cx="234.21" cy="1471.21" rx="682.2" ry="665.14" transform="translate(-430.4 137.94) rotate(-17.45)"/><ellipse class="cls-19" cx="215.4" cy="1392.61" rx="682.2" ry="665.14" transform="translate(-407.7 128.68) rotate(-17.45)"/><ellipse class="cls-20" cx="181.1" cy="1308.85" rx="682.2" ry="665.14" transform="translate(-384.16 114.54) rotate(-17.45)"/><ellipse class="cls-21" cx="132.89" cy="1224.24" rx="682.2" ry="665.14" transform="translate(-361 96.19) rotate(-17.45)"/><ellipse class="cls-22" cx="72.38" cy="1143.11" rx="682.2" ry="665.14" transform="translate(-339.46 74.31) rotate(-17.45)"/><ellipse class="cls-23" cx="1.13" cy="1069.78" rx="682.2" ry="665.14" transform="translate(-320.75 49.57) rotate(-17.45)"/><ellipse class="cls-24" cx="-83.61" cy="1005.43" rx="682.2" ry="665.14" transform="translate(-305.35 21.2) rotate(-17.45)"/><ellipse class="cls-25" cx="-174.54" cy="956.74" rx="682.2" ry="665.14" transform="translate(-294.94 -8.31) rotate(-17.45)"/><ellipse class="cls-26" cx="-269.49" cy="922.44" rx="682.2" ry="665.14" transform="translate(-289.02 -38.36) rotate(-17.45)"/><ellipse class="cls-27" cx="-367.2" cy="900.5" rx="682.2" ry="665.14" transform="translate(-286.94 -68.67) rotate(-17.45)"/><ellipse class="cls-28" cx="-466.36" cy="888.86" rx="682.2" ry="665.14" transform="translate(-288.01 -98.94) rotate(-17.45)"/><ellipse class="cls-29" cx="-565.71" cy="885.5" rx="682.2" ry="665.14" transform="translate(-291.58 -128.89) rotate(-17.45)"/><ellipse class="cls-30" cx="-663.95" cy="888.37" rx="682.2" ry="665.14" transform="translate(-296.96 -158.22) rotate(-17.45)"/><ellipse class="cls-31" cx="-640.45" cy="-65.7" rx="682.2" ry="665.14" transform="translate(-9.77 -195.08) rotate(-17.45)"/><ellipse class="cls-32" cx="-558.8" cy="-104" rx="682.2" ry="665.14" transform="translate(5.47 -172.36) rotate(-17.45)"/><ellipse class="cls-33" cx="-477.92" cy="-130.52" rx="682.2" ry="665.14" transform="translate(17.14 -149.32) rotate(-17.45)"/><ellipse class="cls-34" cx="-398.83" cy="-143.74" rx="682.2" ry="665.14" transform="translate(24.75 -126.21) rotate(-17.45)"/><ellipse class="cls-35" cx="-322.56" cy="-142.14" rx="682.2" ry="665.14" transform="translate(27.78 -103.27) rotate(-17.45)"/><ellipse class="cls-36" cx="-252.01" cy="-124.9" rx="682.2" ry="665.14" transform="translate(25.86 -81.32) rotate(-17.45)"/><ellipse class="cls-37" cx="-190.84" cy="-93.83" rx="682.2" ry="665.14" transform="matrix(0.95, -0.3, 0.3, 0.95, 19.35, -61.55)"/><ellipse class="cls-38" cx="-137.37" cy="-50.16" rx="682.2" ry="665.14" transform="translate(8.72 -43.5) rotate(-17.45)"/><ellipse class="cls-39" cx="-90.77" cy="4.79" rx="682.2" ry="665.14" transform="translate(-5.61 -27) rotate(-17.45)"/><ellipse class="cls-40" cx="-50.23" cy="69.7" rx="682.2" ry="665.14" transform="translate(-23.21 -11.85) rotate(-17.45)"/><ellipse class="cls-41" cx="-14.92" cy="143.24" rx="682.2" ry="665.14" transform="translate(-43.64 2.12) rotate(-17.45)"/><ellipse class="cls-42" cx="15.97" cy="224.08" rx="682.2" ry="665.14" transform="translate(-66.46 15.1) rotate(-17.45)"/><ellipse class="cls-43" cx="43.26" cy="310.92" rx="682.2" ry="665.14" transform="translate(-91.25 27.28) rotate(-17.45)"/><ellipse class="cls-44" cx="67.79" cy="402.41" rx="682.2" ry="665.14" transform="translate(-117.55 38.85) rotate(-17.45)"/><ellipse class="cls-45" cx="90.36" cy="497.25" rx="682.2" ry="665.14" transform="translate(-144.95 49.98) rotate(-17.45)"/><ellipse class="cls-46" cx="111.81" cy="594.1" rx="682.2" ry="665.14" transform="translate(-173.01 60.87) rotate(-17.45)"/><ellipse class="cls-47" cx="132.94" cy="691.65" rx="682.2" ry="665.14" transform="translate(-201.29 71.7) rotate(-17.45)"/><ellipse class="cls-48" cx="154.59" cy="788.57" rx="682.2" ry="665.14" transform="translate(-229.36 82.65) rotate(-17.45)"/><ellipse class="cls-49" cx="177.58" cy="883.53" rx="682.2" ry="665.14" transform="translate(-256.78 93.91) rotate(-17.45)"/><ellipse class="cls-50" cx="202.72" cy="975.22" rx="682.2" ry="665.14" transform="translate(-283.12 105.67) rotate(-17.45)"/><ellipse class="cls-51" cx="230.83" cy="1062.31" rx="682.2" ry="665.14" transform="translate(-307.94 118.11) rotate(-17.45)"/><ellipse class="cls-52" cx="262.74" cy="1143.47" rx="682.2" ry="665.14" transform="translate(-330.81 131.41) rotate(-17.45)"/><ellipse class="cls-53" cx="299.27" cy="1217.39" rx="682.2" ry="665.14" transform="translate(-351.29 145.77) rotate(-17.45)"/><ellipse class="cls-54" cx="341.24" cy="1282.74" rx="682.2" ry="665.14" transform="translate(-368.96 161.36) rotate(-17.45)"/><ellipse class="cls-55" cx="389.47" cy="1338.2" rx="682.2" ry="665.14" transform="translate(-383.37 178.38) rotate(-17.45)"/><ellipse class="cls-56" cx="444.79" cy="1382.45" rx="682.2" ry="665.14" transform="translate(-394.09 197) rotate(-17.45)"/><ellipse class="cls-57" cx="508" cy="1414.15" rx="682.2" ry="665.14" transform="translate(-400.69 217.42) rotate(-17.45)"/><ellipse class="cls-58" cx="578.68" cy="1431.82" rx="682.2" ry="665.14" transform="translate(-402.74 239.43) rotate(-17.45)"/><ellipse class="cls-59" cx="653.57" cy="1435.07" rx="682.2" ry="665.14" transform="translate(-400.26 262.03) rotate(-17.45)"/><ellipse class="cls-60" cx="731.6" cy="1425.12" rx="682.2" ry="665.14" transform="translate(-393.69 284.98) rotate(-17.45)"/><ellipse class="cls-61" cx="811.67" cy="1403.19" rx="682.2" ry="665.14" transform="translate(-383.43 307.98) rotate(-17.45)"/><ellipse class="cls-62" cx="892.67" cy="1370.49" rx="682.2" ry="665.14" transform="translate(-369.9 330.76) rotate(-17.45)"/><ellipse class="cls-63" cx="973.47" cy="1328.25" rx="682.2" ry="665.14" transform="translate(-353.51 353.05) rotate(-17.45)"/><ellipse class="cls-64" cx="1052.99" cy="1277.67" rx="682.2" ry="665.14" transform="translate(-334.68 374.57) rotate(-17.45)"/><ellipse class="cls-65" cx="1130.1" cy="1219.98" rx="682.2" ry="665.14" transform="matrix(0.95, -0.3, 0.3, 0.95, -313.83, 395.04)"/><ellipse class="cls-66" cx="1187.43" cy="1171.21" rx="682.2" ry="665.14" transform="translate(-296.57 409.98) rotate(-17.45)"/><ellipse class="cls-67" cx="1230.9" cy="1130.56" rx="682.2" ry="665.14" transform="matrix(0.95, -0.3, 0.3, 0.95, -282.38, 421.15)"/><ellipse class="cls-68" cx="1257.35" cy="1104.1" rx="682.2" ry="665.14" transform="translate(-273.23 427.86) rotate(-17.45)"/><ellipse class="cls-69" cx="1282.98" cy="1077.09" rx="682.2" ry="665.14" transform="translate(-263.95 434.31) rotate(-17.45)"/><ellipse class="cls-70" cx="1307.74" cy="1049.58" rx="682.2" ry="665.14" transform="translate(-254.56 440.46) rotate(-17.45)"/><ellipse class="cls-71" cx="1331.56" cy="1021.67" rx="682.2" ry="665.14" transform="matrix(0.95, -0.3, 0.3, 0.95, -245.09, 446.32)"/><ellipse class="cls-72" cx="1354.37" cy="993.4" rx="682.2" ry="665.14" transform="translate(-235.57 451.86) rotate(-17.45)"/><ellipse class="cls-73" cx="1376.11" cy="964.86" rx="682.2" ry="665.14" transform="translate(-226.01 457.07) rotate(-17.45)"/><ellipse class="cls-74" cx="1396.72" cy="936.11" rx="682.2" ry="665.14" transform="translate(-216.44 461.92) rotate(-17.45)"/><ellipse class="cls-75" cx="1416.13" cy="907.22" rx="682.2" ry="665.14" transform="translate(-206.88 466.42) rotate(-17.45)"/><ellipse class="cls-76" cx="1434.28" cy="878.26" rx="682.2" ry="665.14" transform="translate(-197.36 470.53) rotate(-17.45)"/><ellipse class="cls-77" cx="1451.11" cy="849.31" rx="682.2" ry="665.14" transform="translate(-187.9 474.24) rotate(-17.45)"/><ellipse class="cls-78" cx="1466.56" cy="820.42" rx="682.2" ry="665.14" transform="translate(-178.53 477.54) rotate(-17.45)"/><ellipse class="cls-79" cx="1480.55" cy="791.68" rx="682.2" ry="665.14" transform="translate(-169.27 480.42) rotate(-17.45)"/><ellipse class="cls-80" cx="1493.03" cy="763.15" rx="682.2" ry="665.14" transform="translate(-160.14 482.85) rotate(-17.45)"/><ellipse class="cls-81" cx="1503.93" cy="734.9" rx="682.2" ry="665.14" transform="translate(-151.16 484.82) rotate(-17.45)"/><ellipse class="cls-82" cx="1513.2" cy="706.99" rx="682.2" ry="665.14" transform="translate(-142.37 486.31) rotate(-17.45)"/><ellipse class="cls-83" cx="1520.75" cy="679.51" rx="682.2" ry="665.14" transform="matrix(0.95, -0.3, 0.3, 0.95, -133.78, 487.31)"/><ellipse class="cls-84" cx="1526.54" cy="652.52" rx="682.2" ry="665.14" transform="translate(-125.42 487.8) rotate(-17.45)"/><ellipse class="cls-85" cx="1530.5" cy="626.09" rx="682.2" ry="665.14" transform="translate(-117.31 487.77) rotate(-17.45)"/><ellipse class="cls-86" cx="1532.56" cy="600.28" rx="682.2" ry="665.14" transform="translate(-109.48 487.2) rotate(-17.45)"/><ellipse class="cls-87" cx="1532.66" cy="575.18" rx="682.2" ry="665.14" transform="translate(-101.95 486.08) rotate(-17.45)"/><ellipse class="cls-88" cx="1530.74" cy="550.84" rx="682.2" ry="665.14" transform="translate(-94.74 484.38) rotate(-17.45)"/><ellipse class="cls-89" cx="1526.74" cy="527.34" rx="682.2" ry="665.14" transform="translate(-87.87 482.1) rotate(-17.45)"/><ellipse class="cls-90" cx="1520.79" cy="505.41" rx="682.2" ry="665.14" transform="matrix(0.95, -0.3, 0.3, 0.95, -81.57, 479.31)"/><ellipse class="cls-91" cx="1514.13" cy="487.61" rx="682.2" ry="665.14" transform="translate(-76.54 476.49) rotate(-17.45)"/><ellipse class="cls-92" cx="1506.16" cy="471.11" rx="682.2" ry="665.14" transform="translate(-71.96 473.34) rotate(-17.45)"/><ellipse class="cls-93" cx="1496.88" cy="455.81" rx="682.2" ry="665.14" transform="translate(-67.8 469.86) rotate(-17.45)"/><ellipse class="cls-94" cx="1486.31" cy="441.63" rx="682.2" ry="665.14" transform="translate(-64.03 466.03) rotate(-17.45)"/><ellipse class="cls-95" cx="1474.46" cy="428.48" rx="682.2" ry="665.14" transform="translate(-60.63 461.88) rotate(-17.45)"/><ellipse class="cls-96" cx="1461.36" cy="416.27" rx="682.2" ry="665.14" transform="translate(-57.57 457.38) rotate(-17.45)"/><ellipse class="cls-97" cx="1447" cy="404.92" rx="682.2" ry="665.14" transform="translate(-54.83 452.56) rotate(-17.45)"/><ellipse class="cls-98" cx="1431.41" cy="394.33" rx="682.2" ry="665.14" transform="translate(-52.37 447.39) rotate(-17.45)"/><ellipse class="cls-99" cx="1414.6" cy="384.43" rx="682.2" ry="665.14" transform="translate(-50.18 441.9) rotate(-17.45)"/><ellipse class="cls-100" cx="1396.58" cy="375.12" rx="682.2" ry="665.14" transform="translate(-48.22 436.07) rotate(-17.45)"/><ellipse class="cls-101" cx="1377.37" cy="366.33" rx="682.2" ry="665.14" transform="matrix(0.95, -0.3, 0.3, 0.95, -46.46, 429.9)"/><ellipse class="cls-102" cx="1356.98" cy="357.95" rx="682.2" ry="665.14" transform="translate(-44.89 423.4) rotate(-17.45)"/><ellipse class="cls-103" cx="1335.42" cy="349.91" rx="682.2" ry="665.14" transform="translate(-43.47 416.56) rotate(-17.45)"/><ellipse class="cls-104" cx="1312.71" cy="342.11" rx="682.2" ry="665.14" transform="translate(-42.18 409.4) rotate(-17.45)"/><ellipse class="cls-105" cx="1288.87" cy="334.48" rx="682.2" ry="665.14" transform="translate(-40.99 401.89) rotate(-17.45)"/><ellipse class="cls-106" cx="1263.9" cy="326.92" rx="682.2" ry="665.14" transform="translate(-39.87 394.06) rotate(-17.45)"/><ellipse class="cls-107" cx="1237.82" cy="319.35" rx="682.2" ry="665.14" transform="translate(-38.8 385.89) rotate(-17.45)"/><ellipse class="cls-108" cx="1210.64" cy="311.68" rx="682.2" ry="665.14" transform="translate(-37.75 377.39) rotate(-17.45)"/><ellipse class="cls-109" cx="1182.38" cy="303.82" rx="682.2" ry="665.14" transform="translate(-36.69 368.55) rotate(-17.45)"/><ellipse class="cls-110" cx="1153.05" cy="295.69" rx="682.2" ry="665.14" transform="translate(-35.6 359.38) rotate(-17.45)"/><ellipse class="cls-111" cx="1122.66" cy="287.19" rx="682.2" ry="665.14" transform="translate(-34.46 349.88) rotate(-17.45)"/><ellipse class="cls-112" cx="1091.24" cy="278.25" rx="682.2" ry="665.14" transform="translate(-33.22 340.04) rotate(-17.45)"/><ellipse class="cls-113" cx="1058.78" cy="268.78" rx="682.2" ry="665.14" transform="translate(-31.87 329.87) rotate(-17.45)"/><ellipse class="cls-114" cx="1025.32" cy="258.68" rx="682.2" ry="665.14" transform="translate(-30.39 319.37) rotate(-17.45)"/><ellipse class="cls-115" cx="990.85" cy="247.88" rx="682.2" ry="665.14" transform="translate(-28.73 308.54) rotate(-17.45)"/><ellipse class="cls-116" cx="955.39" cy="236.28" rx="682.2" ry="665.14" transform="translate(-26.88 297.37) rotate(-17.45)"/><ellipse class="cls-117" cx="918.97" cy="223.8" rx="682.2" ry="665.14" transform="translate(-24.82 285.88) rotate(-17.45)"/><ellipse class="cls-118" cx="881.58" cy="210.35" rx="682.2" ry="665.14" transform="translate(-22.51 274.05) rotate(-17.45)"/><ellipse class="cls-119" cx="843.25" cy="195.84" rx="682.2" ry="665.14" transform="translate(-19.92 261.88) rotate(-17.45)"/><ellipse class="cls-120" cx="803.99" cy="180.19" rx="682.2" ry="665.14" transform="translate(-17.03 249.39) rotate(-17.45)"/><ellipse class="cls-121" cx="763.81" cy="163.31" rx="682.2" ry="665.14" transform="translate(-13.82 236.57) rotate(-17.45)"/><ellipse class="cls-122" cx="722.73" cy="145.12" rx="682.2" ry="665.14" transform="translate(-10.26 223.41) rotate(-17.45)"/><ellipse class="cls-123" cx="680.76" cy="125.52" rx="682.2" ry="665.14" transform="matrix(0.95, -0.3, 0.3, 0.95, -6.31, 209.92)"/><ellipse class="cls-124" cx="637.91" cy="104.43" rx="682.2" ry="665.14" transform="translate(-1.96 196.1) rotate(-17.45)"/><ellipse class="cls-125" cx="594.2" cy="81.77" rx="682.2" ry="665.14" transform="translate(2.83 181.95) rotate(-17.45)"/><ellipse class="cls-126" cx="549.65" cy="57.44" rx="682.2" ry="665.14" transform="translate(8.07 167.47) rotate(-17.45)"/><ellipse class="cls-127" cx="504.25" cy="31.36" rx="682.2" ry="665.14" transform="translate(13.8 152.66) rotate(-17.45)"/><ellipse class="cls-128" cx="458.04" cy="3.44" rx="682.2" ry="665.14" transform="translate(20.05 137.51) rotate(-17.45)"/><ellipse class="cls-129" cx="411.02" cy="-26.4" rx="682.2" ry="665.14" transform="translate(26.83 122.04) rotate(-17.45)"/><ellipse class="cls-130" cx="366.32" cy="-56.13" rx="682.2" ry="665.14" transform="translate(33.69 107.27) rotate(-17.45)"/><ellipse class="cls-131" cx="329.7" cy="-81.55" rx="682.2" ry="665.14" transform="translate(39.63 95.12) rotate(-17.45)"/><ellipse class="cls-132" cx="295.93" cy="-105.99" rx="682.2" ry="665.14" transform="translate(45.4 83.86) rotate(-17.45)"/><ellipse class="cls-133" cx="264.77" cy="-129.52" rx="682.2" ry="665.14" transform="translate(51.03 73.44) rotate(-17.45)"/><ellipse class="cls-134" cx="236.01" cy="-152.22" rx="682.2" ry="665.14" transform="translate(56.51 63.77) rotate(-17.45)"/><ellipse class="cls-135" cx="209.44" cy="-174.16" rx="682.2" ry="665.14" transform="translate(61.86 54.79) rotate(-17.45)"/><ellipse class="cls-136" cx="184.82" cy="-195.41" rx="682.2" ry="665.14" transform="matrix(0.95, -0.3, 0.3, 0.95, 67.1, 46.43)"/><ellipse class="cls-137" cx="161.95" cy="-216.04" rx="682.2" ry="665.14" transform="translate(72.24 38.62) rotate(-17.45)"/><ellipse class="cls-138" cx="140.6" cy="-236.13" rx="682.2" ry="665.14" transform="translate(77.28 31.3) rotate(-17.45)"/><ellipse class="cls-139" cx="120.56" cy="-255.75" rx="682.2" ry="665.14" transform="translate(82.24 24.38) rotate(-17.45)"/><ellipse class="cls-140" cx="101.6" cy="-274.97" rx="682.2" ry="665.14" transform="translate(87.13 17.81) rotate(-17.45)"/><ellipse class="cls-141" cx="83.5" cy="-293.86" rx="682.2" ry="665.14" transform="matrix(0.95, -0.3, 0.3, 0.95, 91.97, 11.51)"/><ellipse class="cls-142" cx="66.04" cy="-312.5" rx="682.2" ry="665.14" transform="translate(96.75 5.42) rotate(-17.45)"/><ellipse class="cls-143" cx="49.01" cy="-330.97" rx="682.2" ry="665.14" transform="matrix(0.95, -0.3, 0.3, 0.95, 101.5, -0.53)"/><ellipse class="cls-144" cx="32.19" cy="-349.32" rx="682.2" ry="665.14" transform="translate(106.23 -6.42) rotate(-17.45)"/><ellipse class="cls-145" cx="15.35" cy="-367.64" rx="682.2" ry="665.14" transform="matrix(0.95, -0.3, 0.3, 0.95, 110.95, -12.32)"/><ellipse class="cls-146" cx="-1.72" cy="-386" rx="682.2" ry="665.14" transform="translate(115.67 -18.28) rotate(-17.45)"/><ellipse class="cls-147" cx="-19.25" cy="-404.46" rx="682.2" ry="665.14" transform="translate(120.4 -24.39) rotate(-17.45)"/><ellipse class="cls-148" cx="-37.45" cy="-423.11" rx="682.2" ry="665.14" transform="translate(125.16 -30.7) rotate(-17.45)"/><ellipse class="cls-149" cx="-56.54" cy="-442.02" rx="682.2" ry="665.14" transform="translate(129.95 -37.3) rotate(-17.45)"/><ellipse class="cls-150" cx="-76.75" cy="-461.25" rx="682.2" ry="665.14" transform="matrix(0.95, -0.3, 0.3, 0.95, 134.79, -44.24)"/><ellipse class="cls-151" cx="-98.29" cy="-480.88" rx="682.2" ry="665.14" transform="translate(139.68 -51.6) rotate(-17.45)"/><ellipse class="cls-152" cx="-121.38" cy="-500.99" rx="682.2" ry="665.14" transform="translate(144.65 -59.45) rotate(-17.45)"/><ellipse class="cls-153" cx="-146.24" cy="-521.64" rx="682.2" ry="665.14" transform="translate(149.7 -67.86) rotate(-17.45)"/><ellipse class="cls-154" cx="-173.09" cy="-542.91" rx="682.2" ry="665.14" transform="translate(154.84 -76.89) rotate(-17.45)"/><ellipse class="cls-155" cx="-202.15" cy="-564.87" rx="682.2" ry="665.14" transform="translate(160.09 -86.62) rotate(-17.45)"/><ellipse class="cls-156" cx="-233.65" cy="-587.6" rx="682.2" ry="665.14" transform="matrix(0.95, -0.3, 0.3, 0.95, 165.45, -97.11)"/><ellipse class="cls-157" cx="-267.79" cy="-611.16" rx="682.2" ry="665.14" transform="translate(170.95 -108.43) rotate(-17.45)"/><ellipse class="cls-158" cx="-304.8" cy="-635.63" rx="682.2" ry="665.14" transform="translate(176.58 -120.66) rotate(-17.45)"/><ellipse class="cls-159" cx="-344.91" cy="-661.08" rx="682.2" ry="665.14" transform="translate(182.37 -133.85) rotate(-17.45)"/><ellipse class="cls-160" cx="894.79" cy="-661.17" rx="682.2" ry="665.14" transform="translate(239.45 237.9) rotate(-17.45)"/><ellipse class="cls-161" cx="929.1" cy="-633.82" rx="682.2" ry="665.14" transform="translate(232.83 249.44) rotate(-17.45)"/><ellipse class="cls-162" cx="963.26" cy="-606.4" rx="682.2" ry="665.14" transform="translate(226.18 260.95) rotate(-17.45)"/><ellipse class="cls-163" cx="997.26" cy="-578.93" rx="682.2" ry="665.14" transform="translate(219.5 272.41) rotate(-17.45)"/><ellipse class="cls-164" cx="1031.09" cy="-551.43" rx="682.2" ry="665.14" transform="translate(212.81 283.82) rotate(-17.45)"/><ellipse class="cls-165" cx="1064.73" cy="-523.92" rx="682.2" ry="665.14" transform="matrix(0.95, -0.3, 0.3, 0.95, 206.11, 295.17)"/><ellipse class="cls-166" cx="1098.16" cy="-496.41" rx="682.2" ry="665.14" transform="translate(199.4 306.47) rotate(-17.45)"/><ellipse class="cls-167" cx="1131.38" cy="-468.92" rx="682.2" ry="665.14" transform="translate(192.68 317.69) rotate(-17.45)"/><ellipse class="cls-168" cx="1164.36" cy="-441.46" rx="682.2" ry="665.14" transform="translate(185.97 328.85) rotate(-17.45)"/><ellipse class="cls-169" cx="1197.1" cy="-414.06" rx="682.2" ry="665.14" transform="translate(179.26 339.93) rotate(-17.45)"/><ellipse class="cls-170" cx="1229.57" cy="-386.72" rx="682.2" ry="665.14" transform="translate(172.56 350.92) rotate(-17.45)"/><ellipse class="cls-171" cx="1261.77" cy="-359.48" rx="682.2" ry="665.14" transform="translate(165.87 361.83) rotate(-17.45)"/><ellipse class="cls-172" cx="1293.67" cy="-332.34" rx="682.2" ry="665.14" transform="matrix(0.95, -0.3, 0.3, 0.95, 159.2, 372.65)"/><ellipse class="cls-173" cx="1325.26" cy="-305.32" rx="682.2" ry="665.14" transform="translate(152.55 383.36) rotate(-17.45)"/><ellipse class="cls-174" cx="1356.53" cy="-278.44" rx="682.2" ry="665.14" transform="translate(145.93 393.98) rotate(-17.45)"/><ellipse class="cls-175" cx="1387.47" cy="-251.71" rx="682.2" ry="665.14" transform="matrix(0.95, -0.3, 0.3, 0.95, 139.34, 404.48)"/><ellipse class="cls-176" cx="1418.05" cy="-225.16" rx="682.2" ry="665.14" transform="translate(132.78 414.88) rotate(-17.45)"/><ellipse class="cls-177" cx="1448.26" cy="-198.8" rx="682.2" ry="665.14" transform="translate(126.27 425.15) rotate(-17.45)"/><ellipse class="cls-178" cx="1478.1" cy="-172.64" rx="682.2" ry="665.14" transform="matrix(0.95, -0.3, 0.3, 0.95, 119.79, 435.3)"/><ellipse class="cls-179" cx="1507.53" cy="-146.7" rx="682.2" ry="665.14" transform="translate(113.37 445.32) rotate(-17.45)"/><ellipse class="cls-180" cx="1536.55" cy="-121.01" rx="682.2" ry="665.14" transform="translate(107 455.21) rotate(-17.45)"/><ellipse class="cls-181" cx="1565.15" cy="-95.57" rx="682.2" ry="665.14" transform="translate(100.69 464.95) rotate(-17.45)"/><ellipse class="cls-182" cx="1593.3" cy="-70.41" rx="682.2" ry="665.14" transform="translate(94.44 474.55) rotate(-17.45)"/><ellipse class="cls-183" cx="1621" cy="-45.53" rx="682.2" ry="665.14" transform="translate(88.26 484) rotate(-17.45)"/><ellipse class="cls-184" cx="1648.23" cy="-20.97" rx="682.2" ry="665.14" transform="translate(82.14 493.3) rotate(-17.45)"/><ellipse class="cls-185" cx="1674.97" cy="3.27" rx="682.2" ry="665.14" transform="matrix(0.95, -0.3, 0.3, 0.95, 76.1, 502.43)"/><ellipse class="cls-186" cx="1701.2" cy="27.17" rx="682.2" ry="665.14" transform="matrix(0.95, -0.3, 0.3, 0.95, 70.14, 511.4)"/><ellipse class="cls-187" cx="1726.93" cy="50.71" rx="682.2" ry="665.14" transform="translate(64.27 520.2) rotate(-17.45)"/><ellipse class="cls-188" cx="1752.11" cy="73.87" rx="682.2" ry="665.14" transform="translate(58.48 528.82) rotate(-17.45)"/><ellipse class="cls-189" cx="1776.76" cy="96.64" rx="682.2" ry="665.14" transform="translate(52.79 537.25) rotate(-17.45)"/><ellipse class="cls-190" cx="1800.84" cy="119" rx="682.2" ry="665.14" transform="translate(47.19 545.51) rotate(-17.45)"/><ellipse class="cls-191" cx="1824.35" cy="140.93" rx="682.2" ry="665.14" transform="translate(41.7 553.56) rotate(-17.45)"/><ellipse class="cls-192" cx="1847.26" cy="162.42" rx="682.2" ry="665.14" transform="translate(36.31 561.42) rotate(-17.45)"/><ellipse class="cls-193" cx="1869.57" cy="183.45" rx="682.2" ry="665.14" transform="translate(31.03 569.08) rotate(-17.45)"/><ellipse class="cls-194" cx="1891.26" cy="204" rx="682.2" ry="665.14" transform="translate(25.86 576.53) rotate(-17.45)"/><ellipse class="cls-195" cx="1912.31" cy="224.06" rx="682.2" ry="665.14" transform="translate(20.82 583.77) rotate(-17.45)"/><ellipse class="cls-196" cx="1932.72" cy="243.6" rx="682.2" ry="665.14" transform="translate(15.9 590.79) rotate(-17.45)"/><ellipse class="cls-197" cx="1952.45" cy="262.62" rx="682.2" ry="665.14" transform="matrix(0.95, -0.3, 0.3, 0.95, 11.1, 597.58)"/><ellipse class="cls-198" cx="1971.51" cy="281.09" rx="682.2" ry="665.14" transform="translate(6.44 604.15) rotate(-17.45)"/><ellipse class="cls-199" cx="1989.87" cy="298.99" rx="682.2" ry="665.14" transform="translate(1.92 610.48) rotate(-17.45)"/><ellipse class="cls-200" cx="2007.52" cy="316.32" rx="682.2" ry="665.14" transform="translate(-2.47 616.57) rotate(-17.45)"/><ellipse class="cls-201" cx="2024.45" cy="333.05" rx="682.2" ry="665.14" transform="translate(-6.7 622.41) rotate(-17.45)"/><ellipse class="cls-202" cx="2040.64" cy="349.17" rx="682.2" ry="665.14" transform="translate(-10.79 628.01) rotate(-17.45)"/><ellipse class="cls-203" cx="2056.07" cy="364.65" rx="682.2" ry="665.14" transform="matrix(0.95, -0.3, 0.3, 0.95, -14.73, 633.35)"/><ellipse class="cls-204" cx="2070.73" cy="379.49" rx="682.2" ry="665.14" transform="translate(-18.5 638.43) rotate(-17.45)"/><ellipse class="cls-205" cx="2084.61" cy="393.66" rx="682.2" ry="665.14" transform="translate(-22.11 643.24) rotate(-17.45)"/><ellipse class="cls-206" cx="2097.68" cy="407.16" rx="682.2" ry="665.14" transform="translate(-25.56 647.78) rotate(-17.45)"/><ellipse class="cls-207" cx="2109.95" cy="419.95" rx="682.2" ry="665.14" transform="translate(-28.83 652.05) rotate(-17.45)"/></g></g></g></svg>