<svg id="Layer_1" data-name="Layer 1" xmlns="http://www.w3.org/2000/svg" xmlns:xlink="http://www.w3.org/1999/xlink" viewBox="0 0 1440 1080"><defs><style>.cls-1{fill:none;}.cls-2{clip-path:url(#clip-path);}.cls-3{clip-path:url(#clip-path-2);}.cls-4{fill:#d6035c;}.cls-5{fill:#d7035c;}.cls-6{fill:#d8035d;}.cls-7{fill:#d9035d;}.cls-8{fill:#da035d;}.cls-9{fill:#db035e;}.cls-10{fill:#dc035e;}.cls-11{fill:#dd035e;}.cls-12{fill:#de035e;}.cls-13{fill:#df035f;}.cls-14{fill:#e0035f;}.cls-15{fill:#e1035f;}.cls-16{fill:#e20360;}.cls-17{fill:#e30360;}.cls-18{fill:#e40360;}.cls-19{fill:#e50360;}.cls-20{fill:#e60361;}.cls-21{fill:#e70361;}.cls-22{fill:#e80361;}.cls-23{fill:#e90362;}.cls-24{fill:#ea0362;}.cls-25{fill:#eb0362;}.cls-26{fill:#ec0362;}.cls-27{fill:#ed0363;}.cls-28{fill:#ee0363;}.cls-29{fill:#ef0363;}.cls-30{fill:#f00364;}.cls-31{fill:#fb0367;}.cls-32{fill:#fc0367;}.cls-33{fill:#fd0367;}.cls-34{fill:#fe0368;}.cls-35{fill:#ff0368;}.cls-36{fill:#fe0468;}.cls-37{fill:#fd0568;}.cls-38{fill:#fc0669;}.cls-39{fill:#fb0769;}.cls-40{fill:#fa0869;}.cls-41{fill:#f90969;}.cls-42{fill:#f80a6a;}.cls-43{fill:#f70b6a;}.cls-44{fill:#f60c6a;}.cls-45{fill:#f50d6a;}.cls-46{fill:#f40e6b;}.cls-47{fill:#f30e6b;}.cls-48{fill:#f20f6b;}.cls-49{fill:#f1106b;}.cls-50{fill:#f0116c;}.cls-51{fill:#ef126c;}.cls-52{fill:#ee136c;}.cls-53{fill:#ed146c;}.cls-54{fill:#ec156d;}.cls-55{fill:#eb166d;}.cls-56{fill:#ea176d;}.cls-57{fill:#e9186d;}.cls-58{fill:#e8196e;}.cls-59{fill:#e71a6e;}.cls-60{fill:#e61b6e;}.cls-61{fill:#e51c6e;}.cls-62{fill:#e41d6e;}.cls-63{fill:#e31e6f;}.cls-64{fill:#e21f6f;}.cls-65{fill:#e1206f;}.cls-66{fill:#e0216f;}.cls-67{fill:#df2270;}.cls-68{fill:#de2370;}.cls-69{fill:#dd2470;}.cls-70{fill:#dc2470;}.cls-71{fill:#db2571;}.cls-72{fill:#da2671;}.cls-73{fill:#d92771;}.cls-74{fill:#d82871;}.cls-75{fill:#d72972;}.cls-76{fill:#d62a72;}.cls-77{fill:#d52b72;}.cls-78{fill:#d42c72;}.cls-79{fill:#d32d73;}.cls-80{fill:#d22e73;}.cls-81{fill:#d12f73;}.cls-82{fill:#d03073;}.cls-83{fill:#cf3173;}.cls-84{fill:#ce3274;}.cls-85{fill:#cd3374;}.cls-86{fill:#cc3474;}.cls-87{fill:#cb3574;}.cls-88{fill:#ca3675;}.cls-89{fill:#c93775;}.cls-90{fill:#c83875;}.cls-91{fill:#c73975;}.cls-92{fill:#c63a76;}.cls-93{fill:#c53a76;}.cls-94{fill:#c43b76;}.cls-95{fill:#c33c76;}.cls-96{fill:#c23d77;}.cls-97{fill:#c13e77;}.cls-98{fill:#c03f77;}.cls-99{fill:#bf4077;}.cls-100{fill:#be4178;}.cls-101{fill:#bd4278;}.cls-102{fill:#bc4378;}.cls-103{fill:#bb4478;}.cls-104{fill:#ba4579;}.cls-105{fill:#b94679;}.cls-106{fill:#b84779;}.cls-107{fill:#b74879;}.cls-108{fill:#b64979;}.cls-109{fill:#b54a7a;}.cls-110{fill:#b44b7a;}.cls-111{fill:#b34c7a;}.cls-112{fill:#b24d7a;}.cls-113{fill:#b14e7b;}.cls-114{fill:#b04f7b;}.cls-115{fill:#af507b;}.cls-116{fill:#ae517b;}.cls-117{fill:#ad517c;}.cls-118{fill:#ac527c;}.cls-119{fill:#ab537c;}.cls-120{fill:#aa547c;}.cls-121{fill:#a9557d;}.cls-122{fill:#a8567d;}.cls-123{fill:#a7577d;}.cls-124{fill:#a6587d;}.cls-125{fill:#a5597e;}.cls-126{fill:#a45a7e;}.cls-127{fill:#a35b7e;}.cls-128{fill:#a25c7e;}.cls-129{fill:#a15d7e;}.cls-130{fill:#a05e7f;}.cls-131{fill:#9f5f7f;}.cls-132{fill:#9e607f;}.cls-133{fill:#9d617f;}.cls-134{fill:#9c6280;}.cls-135{fill:#9b6380;}.cls-136{fill:#9a6480;}.cls-137{fill:#996580;}.cls-138{fill:#986681;}.cls-139{fill:#976781;}.cls-140{fill:#966781;}.cls-141{fill:#956881;}.cls-142{fill:#946982;}.cls-143{fill:#936a82;}.cls-144{fill:#926b82;}.cls-145{fill:#916c82;}.cls-146{fill:#906d83;}.cls-147{fill:#8f6e83;}.cls-148{fill:#8e6f83;}.cls-149{fill:#8d7083;}.cls-150{fill:#8c7184;}.cls-151{fill:#8b7284;}.cls-152{fill:#8a7384;}.cls-153{fill:#897484;}.cls-154{fill:#887584;}.cls-155{fill:#877685;}.cls-156{fill:#867785;}.cls-157{fill:#857885;}.cls-158{fill:#847985;}.cls-159{fill:#837a86;}.cls-160{fill:#827b86;}.cls-161{fill:#817c86;}.cls-162{fill:#807d86;}.cls-163{fill:#7f7d87;}.cls-164{fill:#7e7e87;}.cls-165{fill:#7d7f87;}.cls-166{fill:#7c8087;}.cls-167{fill:#7b8188;}.cls-168{fill:#7a8288;}.cls-169{fill:#798388;}.cls-170{fill:#788488;}.cls-171{fill:#778589;}.cls-172{fill:#768689;}.cls-173{fill:#758789;}.cls-174{fill:#748889;}.cls-175{fill:#738989;}.cls-176{fill:#728a8a;}.cls-177{fill:#718b8a;}.cls-178{fill:#708c8a;}.cls-179{fill:#6f8d8a;}.cls-180{fill:#6e8e8b;}.cls-181{fill:#6d8f8b;}.cls-182{fill:#6c908b;}.cls-183{fill:#6b918b;}.cls-184{fill:#6a928c;}.cls-185{fill:#69938c;}.cls-186{fill:#68938c;}.cls-187{fill:#67948c;}.cls-188{fill:#66958d;}.cls-189{fill:#65968d;}.cls-190{fill:#64978d;}.cls-191{fill:#63988d;}.cls-192{fill:#62998e;}.cls-193{fill:#619a8e;}.cls-194{fill:#609b8e;}.cls-195{fill:#5f9c8e;}.cls-196{fill:#5e9d8f;}.cls-197{fill:#5d9e8f;}.cls-198{fill:#5c9f8f;}.cls-199{fill:#5ba08f;}.cls-200{fill:#5aa18f;}.cls-201{fill:#59a290;}.cls-202{fill:#58a390;}.cls-203{fill:#57a490;}.cls-204{fill:#56a590;}.cls-205{fill:#55a691;}.cls-206{fill:#54a791;}.cls-207{fill:#53a891;}.cls-208{fill:#52a991;}.cls-209{fill:#51a992;}.cls-210{fill:#50aa92;}.cls-211{fill:#4fab92;}.cls-212{fill:#4eac92;}.cls-213{fill:#4dad93;}.cls-214{fill:#4cae93;}.cls-215{fill:#4baf93;}.cls-216{fill:#4ab093;}.cls-217{fill:#49b194;}.cls-218{fill:#48b294;}.cls-219{fill:#47b394;}.cls-220{fill:#46b494;}.cls-221{fill:#45b594;}.cls-222{fill:#44b695;}.cls-223{fill:#43b795;}.cls-224{fill:#42b895;}.cls-225{fill:#41b995;}.cls-226{fill:#40ba96;}.cls-227{fill:#3fbb96;}.cls-228{fill:#3ebc96;}.cls-229{fill:#3dbd96;}.cls-230{fill:#3cbe97;}.cls-231{fill:#3bbf97;}.cls-232{fill:#3ac097;}.cls-233{fill:#39c097;}.cls-234{fill:#38c198;}.cls-235{fill:#37c298;}.cls-236{fill:#36c398;}.cls-237{fill:#35c498;}.cls-238{fill:#34c599;}.cls-239{fill:#33c699;}.cls-240{fill:#32c799;}.cls-241{fill:#31c899;}.cls-242{fill:#30c99a;}.cls-243{fill:#2fca9a;}.cls-244{fill:#2ecb9a;}.cls-245{fill:#2dcc9a;}.cls-246{fill:#2ccd9a;}.cls-247{fill:#2bce9b;}.cls-248{fill:#2acf9b;}.cls-249{fill:#29d09b;}.cls-250{fill:#28d19b;}.cls-251{fill:#27d29c;}.cls-252{fill:#26d39c;}.cls-253{fill:#25d49c;}.cls-254{fill:#24d59c;}.cls-255{fill:#23d69d;}.cls-256{fill:#22d69d;}.cls-257{fill:#21d79d;}.cls-258{fill:#20d89d;}.cls-259{fill:#1fd99e;}.cls-260{fill:#1eda9e;}.cls-261{fill:#1ddb9e;}.cls-262{fill:#1cdc9e;}.cls-263{fill:#1bdd9f;}.cls-264{fill:#1ade9f;}.cls-265{fill:#19df9f;}.cls-266{fill:#18e09f;}.cls-267{fill:#17e19f;}.cls-268{fill:#16e2a0;}.cls-269{fill:#15e3a0;}.cls-270{fill:#14e4a0;}.cls-271{fill:#13e5a0;}.cls-272{fill:#12e6a1;}.cls-273{fill:#11e7a1;}.cls-274{fill:#10e8a1;}.cls-275{fill:#0fe9a1;}.cls-276{fill:#0eeaa2;}.cls-277{fill:#0deba2;}.cls-278{fill:#0ceca2;}.cls-279{clip-path:url(#clip-path-3);}.cls-280{fill:#aa044f;}.cls-281{fill:#ab044f;}.cls-282{fill:#ac0450;}.cls-283{fill:#ad0450;}.cls-284{fill:#ae0450;}.cls-285{fill:#af0450;}.cls-286{fill:#b00451;}.cls-287{fill:#b10451;}.cls-288{fill:#b20451;}.cls-289{fill:#b30452;}.cls-290{fill:#b40452;}.cls-291{fill:#b50452;}.cls-292{fill:#b60452;}.cls-293{fill:#b70453;}.cls-294{fill:#b80453;}.cls-295{fill:#b90453;}.cls-296{fill:#ba0454;}.cls-297{fill:#bb0454;}.cls-298{fill:#bc0454;}.cls-299{fill:#bd0455;}.cls-300{fill:#be0455;}.cls-301{fill:#bf0455;}.cls-302{fill:#c00455;}.cls-303{fill:#c10456;}.cls-304{fill:#c20456;}.cls-305{fill:#c30456;}.cls-306{fill:#c40457;}.cls-307{fill:#c50457;}.cls-308{fill:#c60457;}.cls-309{fill:#c70457;}.cls-310{fill:#c80458;}.cls-311{fill:#c90458;}.cls-312{fill:#ca0458;}.cls-313{fill:#cb0459;}.cls-314{fill:#cc0459;}.cls-315{fill:#cd0459;}.cls-316{fill:#ce0459;}.cls-317{fill:#cf045a;}.cls-318{fill:#d0045a;}.cls-319{fill:#d1045a;}.cls-320{fill:#d2045b;}.cls-321{fill:#d3045b;}.cls-322{fill:#d4045b;}.cls-323{fill:#d5035c;}.cls-324{fill:#f10364;}.cls-325{fill:#f20364;}.cls-326{fill:#f30365;}.cls-327{fill:#f40365;}.cls-328{fill:#f50365;}.cls-329{fill:#f60365;}.cls-330{fill:#f70366;}.cls-331{fill:#f80366;}.cls-332{fill:#f90366;}.cls-333{fill:#fa0367;}</style><clipPath id="clip-path"><path class="cls-1" d="M0,722.45c223.33-40.26,390.71-33.31,510.28-15.32,9.42,1.41,7.83,1.29,29.1,4.59,21.86,3.4,293.52,45.26,433.53,50.56,96.84,3.66,255.65-5.43,467.09-85.79V1080H0Z"/></clipPath><clipPath id="clip-path-2"><circle class="cls-1" cx="879.57" cy="1213.22" r="785.45"/></clipPath><clipPath id="clip-path-3"><circle class="cls-1" cx="524.77" cy="1239.11" r="785.45"/></clipPath></defs><g class="cls-2"><g id="Ball"><g class="cls-3"><circle class="cls-4" cx="377.61" cy="1376.39" r="334.24"/><circle class="cls-5" cx="387.23" cy="1327.35" r="334.24"/><circle class="cls-6" cx="399.87" cy="1278.32" r="334.24"/><circle class="cls-7" cx="415.45" cy="1230.22" r="334.24"/><circle class="cls-8" cx="433.89" cy="1183.97" r="334.24"/><circle class="cls-9" cx="455.1" cy="1140.48" r="334.24"/><circle class="cls-10" cx="479.01" cy="1100.68" r="334.24"/><circle class="cls-11" cx="505.53" cy="1065.47" r="334.24"/><circle class="cls-12" cx="534.6" cy="1035.77" r="334.24"/><circle class="cls-13" cx="566.12" cy="1012.5" r="334.24"/><circle class="cls-14" cx="600.03" cy="996.57" r="334.24"/><circle class="cls-15" cx="634.53" cy="989.08" r="334.24"/><circle class="cls-16" cx="668.17" cy="989.58" r="334.24"/><circle class="cls-17" cx="701.54" cy="997.14" r="334.24"/><circle class="cls-18" cx="734.67" cy="1011.02" r="334.24"/><circle class="cls-19" cx="767.61" cy="1030.46" r="334.24"/><circle class="cls-20" cx="800.38" cy="1054.73" r="334.24"/><circle class="cls-21" cx="833.01" cy="1083.08" r="334.24"/><circle class="cls-22" cx="865.54" cy="1114.75" r="334.24"/><circle class="cls-23" cx="898.01" cy="1149.01" r="334.24"/><circle class="cls-24" cx="930.44" cy="1185.1" r="334.24"/><circle class="cls-25" cx="962.88" cy="1222.29" r="334.24"/><circle class="cls-26" cx="995.35" cy="1259.81" r="334.24"/><circle class="cls-27" cx="1027.88" cy="1296.93" r="334.24"/><circle class="cls-28" cx="1060.52" cy="1332.9" r="334.24"/><circle class="cls-29" cx="1093.3" cy="1366.97" r="334.24"/><circle class="cls-30" cx="1126.25" cy="1398.4" r="334.24"/><circle class="cls-31" cx="1486.6" cy="1383.51" r="334.24"/><circle class="cls-32" cx="1511.64" cy="1346.36" r="334.24"/><circle class="cls-33" cx="1534.09" cy="1305.77" r="334.24"/><circle class="cls-34" cx="1553.75" cy="1262.55" r="334.24"/><circle class="cls-35" cx="1567.72" cy="1225.55" r="334.24"/><circle class="cls-36" cx="1576.06" cy="1199.76" r="334.24"/><circle class="cls-37" cx="1581.2" cy="1181.92" r="334.24"/><circle class="cls-38" cx="1585.84" cy="1164.01" r="334.24"/><circle class="cls-39" cx="1589.97" cy="1146.09" r="334.24"/><circle class="cls-40" cx="1593.59" cy="1128.21" r="334.24"/><circle class="cls-41" cx="1596.69" cy="1110.4" r="334.24"/><circle class="cls-42" cx="1599.25" cy="1092.71" r="334.24"/><circle class="cls-43" cx="1601.26" cy="1075.19" r="334.24"/><circle class="cls-44" cx="1602.71" cy="1057.89" r="334.24"/><circle class="cls-45" cx="1603.59" cy="1040.85" r="334.24"/><circle class="cls-46" cx="1603.9" cy="1024.12" r="334.24"/><circle class="cls-47" cx="1603.61" cy="1007.74" r="334.24"/><circle class="cls-48" cx="1602.72" cy="991.77" r="334.24"/><circle class="cls-49" cx="1601.22" cy="976.24" r="334.24"/><circle class="cls-50" cx="1599.09" cy="961.2" r="334.24"/><circle class="cls-51" cx="1596.33" cy="946.7" r="334.24"/><circle class="cls-52" cx="1592.92" cy="932.79" r="334.24"/><circle class="cls-53" cx="1588.86" cy="919.51" r="334.24"/><circle class="cls-54" cx="1584.13" cy="906.91" r="334.24"/><circle class="cls-55" cx="1578.73" cy="895.04" r="334.24"/><circle class="cls-56" cx="1572.63" cy="883.93" r="334.24"/><circle class="cls-57" cx="1565.83" cy="873.64" r="334.24"/><circle class="cls-58" cx="1558.33" cy="864.22" r="334.24"/><circle class="cls-59" cx="1550.42" cy="856" r="334.24"/><circle class="cls-60" cx="1543.19" cy="849.75" r="334.24"/><circle class="cls-61" cx="1535.7" cy="844.38" r="334.24"/><circle class="cls-62" cx="1527.94" cy="839.83" r="334.24"/><circle class="cls-63" cx="1519.89" cy="836.08" r="334.24"/><circle class="cls-64" cx="1511.53" cy="833.08" r="334.24"/><circle class="cls-65" cx="1502.85" cy="830.78" r="334.24"/><circle class="cls-66" cx="1493.84" cy="829.15" r="334.24"/><circle class="cls-67" cx="1484.48" cy="828.14" r="334.24"/><circle class="cls-68" cx="1474.74" cy="827.72" r="334.24"/><circle class="cls-69" cx="1464.63" cy="827.83" r="334.24"/><circle class="cls-70" cx="1454.12" cy="828.45" r="334.24"/><circle class="cls-71" cx="1443.2" cy="829.52" r="334.24"/><circle class="cls-72" cx="1431.86" cy="831" r="334.24"/><circle class="cls-73" cx="1420.07" cy="832.87" r="334.24"/><circle class="cls-74" cx="1407.82" cy="835.06" r="334.24"/><circle class="cls-75" cx="1395.1" cy="837.54" r="334.24"/><circle class="cls-76" cx="1381.89" cy="840.28" r="334.24"/><circle class="cls-77" cx="1368.18" cy="843.22" r="334.24"/><circle class="cls-78" cx="1353.95" cy="846.32" r="334.24"/><circle class="cls-79" cx="1339.19" cy="849.55" r="334.24"/><circle class="cls-80" cx="1323.88" cy="852.87" r="334.24"/><circle class="cls-81" cx="1308.01" cy="856.22" r="334.24"/><circle class="cls-82" cx="1291.55" cy="859.57" r="334.24"/><circle class="cls-83" cx="1274.51" cy="862.88" r="334.24"/><circle class="cls-84" cx="1256.85" cy="866.11" r="334.24"/><circle class="cls-85" cx="1238.57" cy="869.21" r="334.24"/><circle class="cls-86" cx="1219.64" cy="872.15" r="334.24"/><circle class="cls-87" cx="1200.07" cy="874.87" r="334.24"/><circle class="cls-88" cx="1179.82" cy="877.35" r="334.24"/><circle class="cls-89" cx="1158.89" cy="879.53" r="334.24"/><circle class="cls-90" cx="1137.25" cy="881.38" r="334.24"/><circle class="cls-91" cx="1114.91" cy="882.85" r="334.24"/><circle class="cls-92" cx="1091.82" cy="883.91" r="334.24"/><circle class="cls-93" cx="1068" cy="884.51" r="334.24"/><circle class="cls-94" cx="1043.41" cy="884.6" r="334.24"/><circle class="cls-95" cx="1018.04" cy="884.16" r="334.24"/><circle class="cls-96" cx="991.89" cy="883.13" r="334.24"/><circle class="cls-97" cx="964.92" cy="881.48" r="334.24"/><circle class="cls-98" cx="937.14" cy="879.16" r="334.24"/><circle class="cls-99" cx="911.3" cy="876.45" r="334.24"/><circle class="cls-100" cx="889.55" cy="873.74" r="334.24"/><circle class="cls-101" cx="869.25" cy="870.81" r="334.24"/><circle class="cls-102" cx="850.28" cy="867.67" r="334.24"/><circle class="cls-103" cx="832.53" cy="864.35" r="334.24"/><circle class="cls-104" cx="815.88" cy="860.86" r="334.24"/><circle class="cls-105" cx="800.23" cy="857.23" r="334.24"/><circle class="cls-106" cx="785.47" cy="853.46" r="334.24"/><circle class="cls-107" cx="771.48" cy="849.59" r="334.24"/><circle class="cls-108" cx="758.15" cy="845.62" r="334.24"/><circle class="cls-109" cx="745.37" cy="841.58" r="334.24"/><circle class="cls-110" cx="733.03" cy="837.48" r="334.24"/><circle class="cls-111" cx="721.02" cy="833.35" r="334.24"/><circle class="cls-112" cx="709.22" cy="829.2" r="334.24"/><circle class="cls-113" cx="697.53" cy="825.05" r="334.24"/><circle class="cls-114" cx="685.83" cy="820.92" r="334.24"/><circle class="cls-115" cx="674.02" cy="816.83" r="334.24"/><circle class="cls-116" cx="661.97" cy="812.8" r="334.24"/><circle class="cls-117" cx="649.58" cy="808.85" r="334.24"/><circle class="cls-118" cx="636.74" cy="804.99" r="334.24"/><circle class="cls-119" cx="623.33" cy="801.24" r="334.24"/><circle class="cls-120" cx="609.24" cy="797.63" r="334.24"/><circle class="cls-121" cx="594.37" cy="794.16" r="334.24"/><circle class="cls-122" cx="578.6" cy="790.87" r="334.24"/><circle class="cls-123" cx="561.82" cy="787.77" r="334.24"/><circle class="cls-124" cx="543.92" cy="784.87" r="334.24"/><circle class="cls-125" cx="524.78" cy="782.2" r="334.24"/><circle class="cls-126" cx="504.3" cy="779.77" r="334.24"/><circle class="cls-127" cx="482.36" cy="777.61" r="334.24"/><circle class="cls-128" cx="458.85" cy="775.73" r="334.24"/><circle class="cls-129" cx="432.35" cy="774.09" r="334.24"/><circle class="cls-130" cx="406.45" cy="772.96" r="334.24"/><circle class="cls-131" cx="381.36" cy="772.3" r="334.24"/><circle class="cls-132" cx="357.05" cy="772.07" r="334.24"/><circle class="cls-133" cx="333.53" cy="772.2" r="334.24"/><circle class="cls-134" cx="310.78" cy="772.66" r="334.24"/><circle class="cls-135" cx="288.81" cy="773.39" r="334.24"/><circle class="cls-136" cx="267.6" cy="774.34" r="334.24"/><circle class="cls-137" cx="247.16" cy="775.46" r="334.24"/><circle class="cls-138" cx="227.46" cy="776.69" r="334.24"/><circle class="cls-139" cx="208.51" cy="778" r="334.24"/><circle class="cls-140" cx="190.29" cy="779.33" r="334.24"/><circle class="cls-141" cx="172.81" cy="780.62" r="334.24"/><circle class="cls-142" cx="156.05" cy="781.82" r="334.24"/><circle class="cls-143" cx="140.02" cy="782.9" r="334.24"/><circle class="cls-144" cx="124.69" cy="783.79" r="334.24"/><circle class="cls-145" cx="110.07" cy="784.44" r="334.24"/><circle class="cls-146" cx="96.15" cy="784.81" r="334.24"/><circle class="cls-147" cx="82.93" cy="784.84" r="334.24"/><circle class="cls-148" cx="70.38" cy="784.49" r="334.24"/><circle class="cls-149" cx="58.52" cy="783.69" r="334.24"/><circle class="cls-150" cx="47.33" cy="782.41" r="334.24"/><circle class="cls-151" cx="36.81" cy="780.59" r="334.24"/><circle class="cls-152" cx="26.95" cy="778.18" r="334.24"/><circle class="cls-153" cx="17.74" cy="775.13" r="334.24"/><circle class="cls-154" cx="9.18" cy="771.39" r="334.24"/><circle class="cls-155" cx="1.26" cy="766.91" r="334.24"/><circle class="cls-156" cx="-6.03" cy="761.64" r="334.24"/><circle class="cls-157" cx="-12.69" cy="755.52" r="334.24"/><circle class="cls-158" cx="-18.73" cy="748.51" r="334.24"/><circle class="cls-159" cx="-25.32" cy="738.58" r="334.24"/><circle class="cls-160" cx="-31.27" cy="726.2" r="334.24"/><circle class="cls-161" cx="-35.64" cy="712.79" r="334.24"/><circle class="cls-162" cx="-38.52" cy="698.49" r="334.24"/><circle class="cls-163" cx="-39.96" cy="683.46" r="334.24"/><circle class="cls-164" cx="-40.03" cy="667.82" r="334.24"/><circle class="cls-165" cx="-38.8" cy="651.74" r="334.24"/><circle class="cls-166" cx="-36.33" cy="635.35" r="334.24"/><circle class="cls-167" cx="-32.7" cy="618.8" r="334.24"/><circle class="cls-168" cx="-27.96" cy="602.24" r="334.24"/><circle class="cls-169" cx="-22.19" cy="585.81" r="334.24"/><circle class="cls-170" cx="-15.45" cy="569.66" r="334.24"/><circle class="cls-171" cx="-7.81" cy="553.93" r="334.24"/><circle class="cls-172" cx="0.67" cy="538.76" r="334.24"/><circle class="cls-173" cx="9.91" cy="524.31" r="334.24"/><circle class="cls-174" cx="19.86" cy="510.72" r="334.24"/><circle class="cls-175" cx="30.45" cy="498.13" r="334.24"/><circle class="cls-176" cx="39.5" cy="488.73" r="334.24"/><circle class="cls-177" cx="46.23" cy="482.7" r="334.24"/><circle class="cls-178" cx="53.52" cy="476.96" r="334.24"/><circle class="cls-179" cx="61.35" cy="471.5" r="334.24"/><circle class="cls-180" cx="69.71" cy="466.33" r="334.24"/><circle class="cls-181" cx="78.6" cy="461.43" r="334.24"/><circle class="cls-182" cx="87.99" cy="456.8" r="334.24"/><circle class="cls-183" cx="97.89" cy="452.44" r="334.24"/><circle class="cls-184" cx="108.28" cy="448.35" r="334.24"/><circle class="cls-185" cx="119.14" cy="444.52" r="334.24"/><circle class="cls-186" cx="130.48" cy="440.95" r="334.24"/><circle class="cls-187" cx="142.27" cy="437.62" r="334.24"/><circle class="cls-188" cx="154.51" cy="434.55" r="334.24"/><circle class="cls-189" cx="167.19" cy="431.73" r="334.24"/><circle class="cls-190" cx="180.3" cy="429.14" r="334.24"/><circle class="cls-191" cx="193.82" cy="426.79" r="334.24"/><circle class="cls-192" cx="207.75" cy="424.67" r="334.24"/><circle class="cls-193" cx="222.07" cy="422.79" r="334.24"/><circle class="cls-194" cx="236.78" cy="421.13" r="334.24"/><circle class="cls-195" cx="251.86" cy="419.68" r="334.24"/><circle class="cls-196" cx="267.31" cy="418.46" r="334.24"/><circle class="cls-197" cx="283.11" cy="417.45" r="334.24"/><circle class="cls-198" cx="299.25" cy="416.65" r="334.24"/><circle class="cls-199" cx="315.72" cy="416.05" r="334.24"/><circle class="cls-200" cx="332.52" cy="415.66" r="334.24"/><circle class="cls-201" cx="349.62" cy="415.46" r="334.24"/><circle class="cls-202" cx="367.03" cy="415.46" r="334.24"/><circle class="cls-203" cx="384.73" cy="415.64" r="334.24"/><circle class="cls-204" cx="402.7" cy="416.01" r="334.24"/><circle class="cls-205" cx="420.95" cy="416.56" r="334.24"/><circle class="cls-206" cx="439.45" cy="417.29" r="334.24"/><circle class="cls-207" cx="458.21" cy="418.19" r="334.24"/><circle class="cls-208" cx="477.19" cy="419.26" r="334.24"/><circle class="cls-209" cx="496.41" cy="420.5" r="334.24"/><circle class="cls-210" cx="515.84" cy="421.89" r="334.24"/><circle class="cls-211" cx="535.48" cy="423.45" r="334.24"/><circle class="cls-212" cx="555.31" cy="425.16" r="334.24"/><circle class="cls-213" cx="575.33" cy="427.01" r="334.24"/><circle class="cls-214" cx="595.52" cy="429.02" r="334.24"/><circle class="cls-215" cx="615.88" cy="431.16" r="334.24"/><circle class="cls-216" cx="636.39" cy="433.44" r="334.24"/><circle class="cls-217" cx="657.04" cy="435.86" r="334.24"/><circle class="cls-218" cx="677.82" cy="438.4" r="334.24"/><circle class="cls-219" cx="698.73" cy="441.07" r="334.24"/><circle class="cls-220" cx="719.74" cy="443.86" r="334.24"/><circle class="cls-221" cx="740.86" cy="446.77" r="334.24"/><circle class="cls-222" cx="762.06" cy="449.79" r="334.24"/><circle class="cls-223" cx="783.35" cy="452.92" r="334.24"/><circle class="cls-224" cx="804.7" cy="456.16" r="334.24"/><circle class="cls-225" cx="826.11" cy="459.49" r="334.24"/><circle class="cls-226" cx="847.57" cy="462.93" r="334.24"/><circle class="cls-227" cx="869.07" cy="466.46" r="334.24"/><circle class="cls-228" cx="890.59" cy="470.08" r="334.24"/><circle class="cls-229" cx="912.13" cy="473.78" r="334.24"/><circle class="cls-230" cx="933.68" cy="477.56" r="334.24"/><circle class="cls-231" cx="955.22" cy="481.43" r="334.24"/><circle class="cls-232" cx="976.75" cy="485.36" r="334.24"/><circle class="cls-233" cx="998.24" cy="489.37" r="334.24"/><circle class="cls-234" cx="1019.71" cy="493.44" r="334.24"/><circle class="cls-235" cx="1041.12" cy="497.57" r="334.24"/><circle class="cls-236" cx="1062.48" cy="501.76" r="334.24"/><circle class="cls-237" cx="1083.77" cy="506.01" r="334.24"/><circle class="cls-238" cx="1104.98" cy="510.3" r="334.24"/><circle class="cls-239" cx="1126.1" cy="514.64" r="334.24"/><circle class="cls-240" cx="1147.13" cy="519.02" r="334.24"/><circle class="cls-241" cx="1168.04" cy="523.44" r="334.24"/><circle class="cls-242" cx="1188.83" cy="527.89" r="334.24"/><circle class="cls-243" cx="1209.49" cy="532.37" r="334.24"/><circle class="cls-244" cx="1230.01" cy="536.88" r="334.24"/><circle class="cls-245" cx="1250.37" cy="541.4" r="334.24"/><circle class="cls-246" cx="1270.57" cy="545.95" r="334.24"/><circle class="cls-247" cx="1290.6" cy="550.51" r="334.24"/><circle class="cls-248" cx="1310.45" cy="555.08" r="334.24"/><circle class="cls-249" cx="1330.1" cy="559.66" r="334.24"/><circle class="cls-250" cx="1349.54" cy="564.23" r="334.24"/><circle class="cls-251" cx="1368.77" cy="568.81" r="334.24"/><circle class="cls-252" cx="1387.78" cy="573.38" r="334.24"/><circle class="cls-253" cx="1406.55" cy="577.93" r="334.24"/><circle class="cls-254" cx="1425.07" cy="582.48" r="334.24"/><circle class="cls-255" cx="1443.33" cy="587" r="334.24"/><circle class="cls-256" cx="1461.32" cy="591.51" r="334.24"/><circle class="cls-257" cx="1479.04" cy="595.98" r="334.24"/><circle class="cls-258" cx="1496.46" cy="600.43" r="334.24"/><circle class="cls-259" cx="1513.59" cy="604.84" r="334.24"/><circle class="cls-260" cx="1530.41" cy="609.22" r="334.24"/><circle class="cls-261" cx="1546.9" cy="613.55" r="334.24"/><circle class="cls-262" cx="1563.06" cy="617.84" r="334.24"/><circle class="cls-263" cx="1578.88" cy="622.07" r="334.24"/><circle class="cls-264" cx="1594.35" cy="626.26" r="334.24"/><circle class="cls-265" cx="1609.46" cy="630.38" r="334.24"/><circle class="cls-266" cx="1624.19" cy="634.44" r="334.24"/><circle class="cls-267" cx="1638.54" cy="638.44" r="334.24"/><circle class="cls-268" cx="1652.49" cy="642.36" r="334.24"/><circle class="cls-269" cx="1666.04" cy="646.21" r="334.24"/><circle class="cls-270" cx="1679.17" cy="649.99" r="334.24"/><circle class="cls-271" cx="1691.88" cy="653.68" r="334.24"/><circle class="cls-272" cx="1704.15" cy="657.29" r="334.24"/><circle class="cls-273" cx="1715.97" cy="660.8" r="334.24"/><circle class="cls-274" cx="1727.34" cy="664.22" r="334.24"/><circle class="cls-275" cx="1738.23" cy="667.54" r="334.24"/><circle class="cls-276" cx="1748.65" cy="670.77" r="334.24"/><circle class="cls-277" cx="1758.58" cy="673.88" r="334.24"/><circle class="cls-278" cx="1768.01" cy="676.89" r="334.24"/></g></g><g id="Ball-2" data-name="Ball"><g class="cls-279"><circle class="cls-280" cx="528.43" cy="672.07" r="334.24"/><circle class="cls-281" cx="469.27" cy="690.66" r="334.24"/><circle class="cls-282" cx="412.26" cy="709.5" r="334.24"/><circle class="cls-283" cx="357.82" cy="728.56" r="334.24"/><circle class="cls-284" cx="306.36" cy="747.78" r="334.24"/><circle class="cls-285" cx="258.3" cy="767.13" r="334.24"/><circle class="cls-286" cx="214.03" cy="786.57" r="334.24"/><circle class="cls-287" cx="173.99" cy="806.04" r="334.24"/><circle class="cls-288" cx="138.57" cy="825.51" r="334.24"/><circle class="cls-289" cx="108.2" cy="844.94" r="334.24"/><circle class="cls-290" cx="83.29" cy="864.28" r="334.24"/><circle class="cls-291" cx="64.26" cy="883.49" r="334.24"/><circle class="cls-292" cx="51.5" cy="902.53" r="334.24"/><circle class="cls-293" cx="45.44" cy="921.36" r="334.24"/><circle class="cls-294" cx="47.33" cy="942.93" r="334.24"/><circle class="cls-295" cx="61.58" cy="967.86" r="334.24"/><circle class="cls-296" cx="86.99" cy="991.17" r="334.24"/><circle class="cls-297" cx="121.51" cy="1011.91" r="334.24"/><circle class="cls-298" cx="163.12" cy="1029.16" r="334.24"/><circle class="cls-299" cx="209.76" cy="1041.98" r="334.24"/><circle class="cls-300" cx="259.4" cy="1049.43" r="334.24"/><circle class="cls-301" cx="310" cy="1050.58" r="334.24"/><circle class="cls-302" cx="362.75" cy="1043.97" r="334.24"/><circle class="cls-303" cx="412.27" cy="1029.59" r="334.24"/><circle class="cls-304" cx="457.97" cy="1008.67" r="334.24"/><circle class="cls-305" cx="500.14" cy="982.4" r="334.24"/><circle class="cls-306" cx="539.08" cy="951.94" r="334.24"/><circle class="cls-307" cx="575.07" cy="918.49" r="334.24"/><circle class="cls-308" cx="608.42" cy="883.22" r="334.24"/><circle class="cls-309" cx="639.4" cy="847.31" r="334.24"/><circle class="cls-310" cx="668.31" cy="811.95" r="334.24"/><circle class="cls-311" cx="695.45" cy="778.32" r="334.24"/><circle class="cls-312" cx="721.09" cy="747.6" r="334.24"/><circle class="cls-313" cx="745.54" cy="720.97" r="334.24"/><circle class="cls-314" cx="769.08" cy="699.61" r="334.24"/><circle class="cls-315" cx="792.01" cy="684.7" r="334.24"/><circle class="cls-316" cx="814.6" cy="677.42" r="334.24"/><circle class="cls-317" cx="837.15" cy="678.96" r="334.24"/><circle class="cls-318" cx="858.44" cy="689.42" r="334.24"/><circle class="cls-319" cx="878.34" cy="707.93" r="334.24"/><circle class="cls-320" cx="896.68" cy="733.61" r="334.24"/><circle class="cls-321" cx="913.26" cy="765.55" r="334.24"/><circle class="cls-322" cx="927.89" cy="802.85" r="334.24"/><circle class="cls-322" cx="940.38" cy="844.6" r="334.24"/><circle class="cls-323" cx="950.55" cy="889.92" r="334.24"/><circle class="cls-4" cx="958.2" cy="937.89" r="334.24"/><circle class="cls-5" cx="963.15" cy="987.63" r="334.24"/><circle class="cls-6" cx="965.21" cy="1038.21" r="334.24"/><circle class="cls-7" cx="964.19" cy="1088.76" r="334.24"/><circle class="cls-8" cx="959.9" cy="1138.36" r="334.24"/><circle class="cls-9" cx="952.16" cy="1186.13" r="334.24"/><circle class="cls-10" cx="940.77" cy="1231.14" r="334.24"/><circle class="cls-11" cx="925.55" cy="1272.52" r="334.24"/><circle class="cls-12" cx="906.3" cy="1309.34" r="334.24"/><circle class="cls-13" cx="882.84" cy="1340.73" r="334.24"/><circle class="cls-14" cx="854.98" cy="1365.77" r="334.24"/><circle class="cls-15" cx="824.12" cy="1382.91" r="334.24"/><circle class="cls-16" cx="791.77" cy="1392.15" r="334.24"/><circle class="cls-17" cx="757.64" cy="1394.55" r="334.24"/><circle class="cls-18" cx="721.9" cy="1390.84" r="334.24"/><circle class="cls-19" cx="684.75" cy="1381.73" r="334.24"/><circle class="cls-20" cx="646.37" cy="1367.96" r="334.24"/><circle class="cls-21" cx="606.94" cy="1350.25" r="334.24"/><circle class="cls-22" cx="566.65" cy="1329.33" r="334.24"/><circle class="cls-23" cx="525.67" cy="1305.91" r="334.24"/><circle class="cls-24" cx="484.19" cy="1280.72" r="334.24"/><circle class="cls-25" cx="442.4" cy="1254.5" r="334.24"/><circle class="cls-26" cx="400.47" cy="1227.95" r="334.24"/><circle class="cls-27" cx="358.6" cy="1201.81" r="334.24"/><circle class="cls-28" cx="316.96" cy="1176.81" r="334.24"/><circle class="cls-29" cx="275.74" cy="1153.66" r="334.24"/><circle class="cls-30" cx="235.11" cy="1133.09" r="334.24"/><circle class="cls-324" cx="195.28" cy="1115.82" r="334.24"/><circle class="cls-325" cx="156.41" cy="1102.58" r="334.24"/><circle class="cls-326" cx="118.69" cy="1094.1" r="334.24"/><circle class="cls-327" cx="82.3" cy="1091.1" r="334.24"/><circle class="cls-328" cx="47.44" cy="1094.3" r="334.24"/><circle class="cls-329" cx="14.27" cy="1104.43" r="334.24"/><circle class="cls-330" cx="-16.84" cy="1122.09" r="334.24"/><circle class="cls-331" cx="-44.49" cy="1146.5" r="334.24"/><circle class="cls-332" cx="-68.46" cy="1176.75" r="334.24"/><circle class="cls-333" cx="-88.81" cy="1212" r="334.24"/><circle class="cls-31" cx="-105.57" cy="1251.44" r="334.24"/><circle class="cls-32" cx="-118.81" cy="1294.24" r="334.24"/><circle class="cls-33" cx="-128.57" cy="1339.58" r="334.24"/><circle class="cls-34" cx="-134.91" cy="1386.65" r="334.24"/><circle class="cls-149" cx="1434.9" cy="1413.14" r="334.24"/><circle class="cls-150" cx="1445.98" cy="1411.14" r="334.24"/><circle class="cls-151" cx="1456.58" cy="1409.84" r="334.24"/><circle class="cls-152" cx="1466.72" cy="1409.3" r="334.24"/><circle class="cls-153" cx="1476.41" cy="1409.56" r="334.24"/><circle class="cls-154" cx="1485.69" cy="1410.66" r="334.24"/><circle class="cls-155" cx="1494.57" cy="1412.67" r="334.24"/></g></g></g></svg>