<svg id="Layer_1" data-name="Layer 1" xmlns="http://www.w3.org/2000/svg" xmlns:xlink="http://www.w3.org/1999/xlink" viewBox="0 0 1440 66"><defs><style>.cls-1{fill:none;}.cls-2{clip-path:url(#clip-path);}.cls-3{clip-path:url(#clip-path-2);}.cls-4{fill:#dd035e;}.cls-5{fill:#de035e;}.cls-6{fill:#df035f;}.cls-7{fill:#e0035f;}.cls-8{fill:#e1035f;}.cls-9{fill:#e20360;}.cls-10{fill:#e30360;}.cls-11{fill:#e40360;}.cls-12{fill:#e50360;}.cls-13{fill:#e60361;}.cls-14{fill:#e70361;}.cls-15{fill:#f80a6a;}.cls-16{fill:#f70b6a;}.cls-17{fill:#f60c6a;}.cls-18{fill:#f50d6a;}.cls-19{fill:#f40e6b;}.cls-20{fill:#f30e6b;}.cls-21{fill:#f20f6b;}.cls-22{fill:#f1106b;}.cls-23{fill:#f0116c;}.cls-24{fill:#ef126c;}.cls-25{fill:#ee136c;}.cls-26{fill:#ed146c;}.cls-27{fill:#ec156d;}.cls-28{fill:#eb166d;}.cls-29{fill:#ea176d;}.cls-30{fill:#e9186d;}.cls-31{fill:#e8196e;}.cls-32{fill:#e71a6e;}.cls-33{fill:#e61b6e;}.cls-34{fill:#e51c6e;}.cls-35{fill:#e41d6e;}.cls-36{fill:#e31e6f;}.cls-37{fill:#e21f6f;}.cls-38{fill:#e1206f;}.cls-39{fill:#e0216f;}.cls-40{fill:#df2270;}.cls-41{fill:#de2370;}.cls-42{fill:#dd2470;}.cls-43{fill:#dc2470;}.cls-44{fill:#db2571;}.cls-45{fill:#da2671;}.cls-46{fill:#d92771;}.cls-47{fill:#d82871;}.cls-48{fill:#d72972;}.cls-49{fill:#d62a72;}.cls-50{fill:#d52b72;}.cls-51{fill:#d42c72;}.cls-52{fill:#d32d73;}.cls-53{fill:#d22e73;}.cls-54{fill:#d12f73;}.cls-55{fill:#d03073;}.cls-56{fill:#cf3173;}.cls-57{fill:#ce3274;}.cls-58{fill:#cd3374;}.cls-59{fill:#cc3474;}.cls-60{fill:#cb3574;}.cls-61{fill:#ca3675;}.cls-62{fill:#c93775;}.cls-63{fill:#c83875;}.cls-64{fill:#c73975;}.cls-65{fill:#c63a76;}.cls-66{fill:#c53a76;}.cls-67{fill:#c43b76;}.cls-68{fill:#c33c76;}.cls-69{fill:#c23d77;}.cls-70{fill:#c13e77;}.cls-71{fill:#c03f77;}.cls-72{fill:#bf4077;}.cls-73{fill:#be4178;}.cls-74{fill:#bd4278;}.cls-75{fill:#bc4378;}.cls-76{fill:#bb4478;}.cls-77{fill:#ba4579;}.cls-78{fill:#b94679;}.cls-79{fill:#b84779;}.cls-80{fill:#b74879;}.cls-81{fill:#b64979;}.cls-82{fill:#b54a7a;}.cls-83{fill:#b44b7a;}.cls-84{fill:#b34c7a;}.cls-85{fill:#b24d7a;}.cls-86{fill:#b14e7b;}.cls-87{fill:#b04f7b;}.cls-88{fill:#af507b;}.cls-89{fill:#ae517b;}.cls-90{fill:#ad517c;}.cls-91{fill:#ac527c;}.cls-92{fill:#ab537c;}.cls-93{fill:#aa547c;}.cls-94{fill:#a9557d;}.cls-95{fill:#a8567d;}.cls-96{fill:#a7577d;}.cls-97{fill:#a6587d;}.cls-98{fill:#a5597e;}.cls-99{fill:#a45a7e;}.cls-100{fill:#a35b7e;}.cls-101{fill:#a25c7e;}.cls-102{fill:#a15d7e;}.cls-103{fill:#a05e7f;}.cls-104{fill:#9f5f7f;}.cls-105{fill:#9e607f;}.cls-106{fill:#9d617f;}.cls-107{fill:#9c6280;}.cls-108{fill:#9b6380;}.cls-109{fill:#9a6480;}.cls-110{fill:#996580;}.cls-111{fill:#986681;}.cls-112{fill:#976781;}.cls-113{fill:#966781;}.cls-114{fill:#956881;}.cls-115{fill:#946982;}.cls-116{fill:#936a82;}.cls-117{fill:#926b82;}.cls-118{fill:#916c82;}.cls-119{fill:#906d83;}.cls-120{fill:#8f6e83;}.cls-121{fill:#8e6f83;}.cls-122{fill:#8d7083;}.cls-123{fill:#8c7184;}.cls-124{fill:#8b7284;}.cls-125{fill:#8a7384;}.cls-126{fill:#897484;}.cls-127{fill:#887584;}.cls-128{fill:#877685;}.cls-129{fill:#867785;}.cls-130{fill:#857885;}.cls-131{fill:#847985;}.cls-132{fill:#837a86;}.cls-133{fill:#827b86;}.cls-134{fill:#817c86;}.cls-135{fill:#807d86;}.cls-136{fill:#7f7d87;}.cls-137{fill:#7e7e87;}.cls-138{fill:#7d7f87;}.cls-139{fill:#7c8087;}.cls-140{fill:#7b8188;}.cls-141{fill:#7a8288;}.cls-142{fill:#798388;}.cls-143{fill:#788488;}.cls-144{fill:#778589;}.cls-145{fill:#768689;}.cls-146{fill:#758789;}.cls-147{fill:#748889;}.cls-148{fill:#738989;}.cls-149{fill:#728a8a;}.cls-150{fill:#718b8a;}.cls-151{fill:#708c8a;}.cls-152{fill:#6f8d8a;}.cls-153{fill:#6e8e8b;}.cls-154{fill:#6d8f8b;}.cls-155{fill:#6c908b;}.cls-156{fill:#6b918b;}.cls-157{fill:#6a928c;}.cls-158{fill:#69938c;}.cls-159{fill:#68938c;}.cls-160{fill:#67948c;}.cls-161{fill:#66958d;}.cls-162{fill:#65968d;}.cls-163{fill:#64978d;}.cls-164{fill:#63988d;}.cls-165{fill:#62998e;}.cls-166{fill:#619a8e;}.cls-167{fill:#609b8e;}.cls-168{fill:#5f9c8e;}.cls-169{fill:#5e9d8f;}.cls-170{fill:#5d9e8f;}.cls-171{fill:#5c9f8f;}.cls-172{fill:#5ba08f;}.cls-173{fill:#5aa18f;}.cls-174{fill:#59a290;}.cls-175{fill:#58a390;}.cls-176{fill:#57a490;}.cls-177{fill:#56a590;}.cls-178{fill:#55a691;}.cls-179{fill:#54a791;}.cls-180{fill:#53a891;}.cls-181{fill:#52a991;}.cls-182{fill:#51a992;}.cls-183{fill:#50aa92;}.cls-184{fill:#4fab92;}.cls-185{fill:#4eac92;}.cls-186{fill:#4dad93;}.cls-187{fill:#4cae93;}.cls-188{fill:#4baf93;}.cls-189{fill:#4ab093;}.cls-190{fill:#49b194;}.cls-191{fill:#48b294;}.cls-192{fill:#47b394;}.cls-193{fill:#46b494;}.cls-194{fill:#45b594;}.cls-195{fill:#44b695;}.cls-196{fill:#43b795;}.cls-197{fill:#42b895;}.cls-198{fill:#41b995;}.cls-199{fill:#40ba96;}.cls-200{fill:#3fbb96;}.cls-201{fill:#3ebc96;}.cls-202{fill:#3dbd96;}.cls-203{fill:#3cbe97;}.cls-204{fill:#3bbf97;}.cls-205{fill:#3ac097;}.cls-206{fill:#39c097;}.cls-207{fill:#38c198;}.cls-208{fill:#37c298;}.cls-209{fill:#36c398;}.cls-210{fill:#35c498;}.cls-211{fill:#34c599;}.cls-212{fill:#33c699;}.cls-213{fill:#32c799;}.cls-214{fill:#31c899;}.cls-215{fill:#30c99a;}.cls-216{fill:#2fca9a;}.cls-217{fill:#2ecb9a;}.cls-218{fill:#2dcc9a;}.cls-219{fill:#2ccd9a;}.cls-220{fill:#2bce9b;}.cls-221{fill:#2acf9b;}.cls-222{fill:#29d09b;}.cls-223{fill:#28d19b;}.cls-224{fill:#27d29c;}.cls-225{fill:#26d39c;}.cls-226{fill:#25d49c;}.cls-227{fill:#24d59c;}.cls-228{fill:#23d69d;}.cls-229{fill:#22d69d;}.cls-230{fill:#21d79d;}.cls-231{fill:#20d89d;}.cls-232{fill:#1fd99e;}.cls-233{fill:#1eda9e;}.cls-234{fill:#1ddb9e;}.cls-235{fill:#1cdc9e;}.cls-236{fill:#1bdd9f;}.cls-237{fill:#1ade9f;}.cls-238{fill:#19df9f;}.cls-239{fill:#18e09f;}.cls-240{fill:#17e19f;}.cls-241{fill:#16e2a0;}.cls-242{fill:#15e3a0;}.cls-243{fill:#14e4a0;}.cls-244{fill:#13e5a0;}.cls-245{fill:#12e6a1;}.cls-246{fill:#11e7a1;}.cls-247{fill:#10e8a1;}.cls-248{fill:#0fe9a1;}.cls-249{fill:#0eeaa2;}.cls-250{fill:#0deba2;}.cls-251{fill:#0ceca2;}.cls-252{clip-path:url(#clip-path-3);}.cls-253{fill:#aa044f;}.cls-254{fill:#ab044f;}.cls-255{fill:#ac0450;}.cls-256{fill:#ad0450;}.cls-257{fill:#ae0450;}.cls-258{fill:#af0450;}.cls-259{fill:#b00451;}.cls-260{fill:#b10451;}.cls-261{fill:#b20451;}.cls-262{fill:#b30452;}.cls-263{fill:#b40452;}.cls-264{fill:#b50452;}.cls-265{fill:#b60452;}.cls-266{fill:#b70453;}.cls-267{fill:#b80453;}.cls-268{fill:#b90453;}.cls-269{fill:#ba0454;}.cls-270{fill:#bb0454;}.cls-271{fill:#bc0454;}.cls-272{fill:#bd0455;}.cls-273{fill:#be0455;}.cls-274{fill:#bf0455;}.cls-275{fill:#c00455;}.cls-276{fill:#c10456;}.cls-277{fill:#c20456;}.cls-278{fill:#c30456;}.cls-279{fill:#c40457;}.cls-280{fill:#c50457;}.cls-281{fill:#c60457;}.cls-282{fill:#c70457;}.cls-283{fill:#c80458;}.cls-284{fill:#c90458;}.cls-285{fill:#ca0458;}.cls-286{fill:#cb0459;}.cls-287{fill:#cc0459;}.cls-288{fill:#cd0459;}.cls-289{fill:#ce0459;}.cls-290{fill:#cf045a;}.cls-291{fill:#d0045a;}.cls-292{fill:#d1045a;}.cls-293{fill:#d2045b;}.cls-294{fill:#d3045b;}.cls-295{fill:#d4045b;}.cls-296{fill:#d5035c;}.cls-297{fill:#d6035c;}.cls-298{fill:#d7035c;}.cls-299{fill:#d8035d;}.cls-300{fill:#d9035d;}.cls-301{fill:#f30365;}.cls-302{fill:#f40365;}.cls-303{fill:#f50365;}</style><clipPath id="clip-path"><path class="cls-1" d="M1440,32.77c-223.33,31.54-390.71,26.1-510.28,12-9.42-1.1-7.83-1-29.1-3.59C878.76,38.51,607.1,5.72,467.09,1.56,370.25-1.3,211.44,5.82,0,68.78V-247.35H1440Z"/></clipPath><clipPath id="clip-path-2"><ellipse class="cls-1" cx="560.43" cy="-351.73" rx="785.45" ry="615.36"/></clipPath><clipPath id="clip-path-3"><ellipse class="cls-1" cx="915.23" cy="-372.01" rx="785.45" ry="615.36"/></clipPath></defs><g class="cls-2"><g id="Ball"><g class="cls-3"><ellipse class="cls-4" cx="934.47" cy="-235.97" rx="334.24" ry="261.86"/><ellipse class="cls-5" cx="905.4" cy="-212.7" rx="334.24" ry="261.86"/><ellipse class="cls-6" cx="873.88" cy="-194.47" rx="334.24" ry="261.86"/><ellipse class="cls-7" cx="839.97" cy="-181.99" rx="334.24" ry="261.86"/><ellipse class="cls-8" cx="805.47" cy="-176.12" rx="334.24" ry="261.86"/><ellipse class="cls-9" cx="771.83" cy="-176.51" rx="334.24" ry="261.86"/><ellipse class="cls-10" cx="738.46" cy="-182.44" rx="334.24" ry="261.86"/><ellipse class="cls-11" cx="705.33" cy="-193.31" rx="334.24" ry="261.86"/><ellipse class="cls-12" cx="672.39" cy="-208.54" rx="334.24" ry="261.86"/><ellipse class="cls-13" cx="639.62" cy="-227.56" rx="334.24" ry="261.86"/><ellipse class="cls-14" cx="606.99" cy="-249.77" rx="334.24" ry="261.86"/><ellipse class="cls-15" cx="-159.25" cy="-257.31" rx="334.24" ry="261.86"/><ellipse class="cls-16" cx="-161.26" cy="-243.59" rx="334.24" ry="261.86"/><ellipse class="cls-17" cx="-162.71" cy="-230.03" rx="334.24" ry="261.86"/><ellipse class="cls-18" cx="-163.59" cy="-216.68" rx="334.24" ry="261.86"/><ellipse class="cls-19" cx="-163.9" cy="-203.58" rx="334.24" ry="261.86"/><ellipse class="cls-20" cx="-163.61" cy="-190.74" rx="334.24" ry="261.86"/><ellipse class="cls-21" cx="-162.72" cy="-178.23" rx="334.24" ry="261.86"/><ellipse class="cls-22" cx="-161.22" cy="-166.06" rx="334.24" ry="261.86"/><ellipse class="cls-23" cx="-159.09" cy="-154.28" rx="334.24" ry="261.86"/><ellipse class="cls-24" cx="-156.33" cy="-142.92" rx="334.24" ry="261.86"/><ellipse class="cls-25" cx="-152.92" cy="-132.02" rx="334.24" ry="261.86"/><ellipse class="cls-26" cx="-148.86" cy="-121.62" rx="334.24" ry="261.86"/><ellipse class="cls-27" cx="-144.13" cy="-111.75" rx="334.24" ry="261.86"/><ellipse class="cls-28" cx="-138.73" cy="-102.45" rx="334.24" ry="261.86"/><ellipse class="cls-29" cx="-132.63" cy="-93.74" rx="334.24" ry="261.86"/><ellipse class="cls-30" cx="-125.83" cy="-85.68" rx="334.24" ry="261.86"/><ellipse class="cls-31" cx="-118.33" cy="-78.3" rx="334.24" ry="261.86"/><ellipse class="cls-32" cx="-110.42" cy="-71.86" rx="334.24" ry="261.86"/><ellipse class="cls-33" cx="-103.19" cy="-66.96" rx="334.24" ry="261.86"/><ellipse class="cls-34" cx="-95.7" cy="-62.76" rx="334.24" ry="261.86"/><ellipse class="cls-35" cx="-87.94" cy="-59.19" rx="334.24" ry="261.86"/><ellipse class="cls-36" cx="-79.89" cy="-56.25" rx="334.24" ry="261.86"/><ellipse class="cls-37" cx="-71.53" cy="-53.9" rx="334.24" ry="261.86"/><ellipse class="cls-38" cx="-62.85" cy="-52.1" rx="334.24" ry="261.86"/><ellipse class="cls-39" cx="-53.84" cy="-50.83" rx="334.24" ry="261.86"/><ellipse class="cls-40" cx="-44.48" cy="-50.03" rx="334.24" ry="261.86"/><ellipse class="cls-41" cx="-34.74" cy="-49.71" rx="334.24" ry="261.86"/><ellipse class="cls-42" cx="-24.63" cy="-49.79" rx="334.24" ry="261.86"/><ellipse class="cls-43" cx="-14.12" cy="-50.28" rx="334.24" ry="261.86"/><ellipse class="cls-44" cx="-3.2" cy="-51.12" rx="334.24" ry="261.86"/><ellipse class="cls-45" cx="8.14" cy="-52.27" rx="334.24" ry="261.86"/><ellipse class="cls-46" cx="19.93" cy="-53.74" rx="334.24" ry="261.86"/><ellipse class="cls-47" cx="32.18" cy="-55.46" rx="334.24" ry="261.86"/><ellipse class="cls-48" cx="44.9" cy="-57.4" rx="334.24" ry="261.86"/><ellipse class="cls-49" cx="58.11" cy="-59.55" rx="334.24" ry="261.86"/><ellipse class="cls-50" cx="71.82" cy="-61.85" rx="334.24" ry="261.86"/><ellipse class="cls-51" cx="86.05" cy="-64.28" rx="334.24" ry="261.86"/><ellipse class="cls-52" cx="100.81" cy="-66.81" rx="334.24" ry="261.86"/><ellipse class="cls-53" cx="116.12" cy="-69.41" rx="334.24" ry="261.86"/><ellipse class="cls-54" cx="131.99" cy="-72.03" rx="334.24" ry="261.86"/><ellipse class="cls-55" cx="148.45" cy="-74.66" rx="334.24" ry="261.86"/><ellipse class="cls-56" cx="165.49" cy="-77.25" rx="334.24" ry="261.86"/><ellipse class="cls-57" cx="183.15" cy="-79.78" rx="334.24" ry="261.86"/><ellipse class="cls-58" cx="201.43" cy="-82.21" rx="334.24" ry="261.86"/><ellipse class="cls-59" cx="220.36" cy="-84.51" rx="334.24" ry="261.86"/><ellipse class="cls-60" cx="239.93" cy="-86.64" rx="334.24" ry="261.86"/><ellipse class="cls-61" cx="260.18" cy="-88.59" rx="334.24" ry="261.86"/><ellipse class="cls-62" cx="281.11" cy="-90.3" rx="334.24" ry="261.86"/><ellipse class="cls-63" cx="302.75" cy="-91.75" rx="334.24" ry="261.86"/><ellipse class="cls-64" cx="325.09" cy="-92.9" rx="334.24" ry="261.86"/><ellipse class="cls-65" cx="348.18" cy="-93.73" rx="334.24" ry="261.86"/><ellipse class="cls-66" cx="372" cy="-94.2" rx="334.24" ry="261.86"/><ellipse class="cls-67" cx="396.59" cy="-94.27" rx="334.24" ry="261.86"/><ellipse class="cls-68" cx="421.96" cy="-93.92" rx="334.24" ry="261.86"/><ellipse class="cls-69" cx="448.11" cy="-93.12" rx="334.24" ry="261.86"/><ellipse class="cls-70" cx="475.08" cy="-91.82" rx="334.24" ry="261.86"/><ellipse class="cls-71" cx="502.86" cy="-90.01" rx="334.24" ry="261.86"/><ellipse class="cls-72" cx="528.7" cy="-87.88" rx="334.24" ry="261.86"/><ellipse class="cls-73" cx="550.45" cy="-85.76" rx="334.24" ry="261.86"/><ellipse class="cls-74" cx="570.75" cy="-83.46" rx="334.24" ry="261.86"/><ellipse class="cls-75" cx="589.72" cy="-81" rx="334.24" ry="261.86"/><ellipse class="cls-76" cx="607.47" cy="-78.4" rx="334.24" ry="261.86"/><ellipse class="cls-77" cx="624.12" cy="-75.67" rx="334.24" ry="261.86"/><ellipse class="cls-78" cx="639.77" cy="-72.82" rx="334.24" ry="261.86"/><ellipse class="cls-79" cx="654.53" cy="-69.87" rx="334.24" ry="261.86"/><ellipse class="cls-80" cx="668.52" cy="-66.84" rx="334.24" ry="261.86"/><ellipse class="cls-81" cx="681.85" cy="-63.73" rx="334.24" ry="261.86"/><ellipse class="cls-82" cx="694.63" cy="-60.56" rx="334.24" ry="261.86"/><ellipse class="cls-83" cx="706.97" cy="-57.35" rx="334.24" ry="261.86"/><ellipse class="cls-84" cx="718.98" cy="-54.12" rx="334.24" ry="261.86"/><ellipse class="cls-85" cx="730.78" cy="-50.86" rx="334.24" ry="261.86"/><ellipse class="cls-86" cx="742.47" cy="-47.61" rx="334.24" ry="261.86"/><ellipse class="cls-87" cx="754.17" cy="-44.38" rx="334.24" ry="261.86"/><ellipse class="cls-88" cx="765.98" cy="-41.17" rx="334.24" ry="261.86"/><ellipse class="cls-89" cx="778.03" cy="-38.02" rx="334.24" ry="261.86"/><ellipse class="cls-90" cx="790.42" cy="-34.92" rx="334.24" ry="261.86"/><ellipse class="cls-91" cx="803.26" cy="-31.9" rx="334.24" ry="261.86"/><ellipse class="cls-92" cx="816.67" cy="-28.96" rx="334.24" ry="261.86"/><ellipse class="cls-93" cx="830.76" cy="-26.13" rx="334.24" ry="261.86"/><ellipse class="cls-94" cx="845.63" cy="-23.41" rx="334.24" ry="261.86"/><ellipse class="cls-95" cx="861.4" cy="-20.83" rx="334.24" ry="261.86"/><ellipse class="cls-96" cx="878.18" cy="-18.41" rx="334.24" ry="261.86"/><ellipse class="cls-97" cx="896.08" cy="-16.13" rx="334.24" ry="261.86"/><ellipse class="cls-98" cx="915.22" cy="-14.04" rx="334.24" ry="261.86"/><ellipse class="cls-99" cx="935.7" cy="-12.14" rx="334.24" ry="261.86"/><ellipse class="cls-100" cx="957.64" cy="-10.45" rx="334.24" ry="261.86"/><ellipse class="cls-101" cx="981.15" cy="-8.97" rx="334.24" ry="261.86"/><ellipse class="cls-102" cx="1007.65" cy="-7.69" rx="334.24" ry="261.86"/><ellipse class="cls-103" cx="1033.55" cy="-6.8" rx="334.24" ry="261.86"/><ellipse class="cls-104" cx="1058.64" cy="-6.29" rx="334.24" ry="261.86"/><ellipse class="cls-105" cx="1082.95" cy="-6.11" rx="334.24" ry="261.86"/><ellipse class="cls-106" cx="1106.47" cy="-6.21" rx="334.24" ry="261.86"/><ellipse class="cls-107" cx="1129.22" cy="-6.57" rx="334.24" ry="261.86"/><ellipse class="cls-108" cx="1151.19" cy="-7.14" rx="334.24" ry="261.86"/><ellipse class="cls-109" cx="1172.4" cy="-7.88" rx="334.24" ry="261.86"/><ellipse class="cls-110" cx="1192.84" cy="-8.76" rx="334.24" ry="261.86"/><ellipse class="cls-111" cx="1212.54" cy="-9.73" rx="334.24" ry="261.86"/><ellipse class="cls-112" cx="1231.49" cy="-10.75" rx="334.24" ry="261.86"/><ellipse class="cls-113" cx="1249.71" cy="-11.79" rx="334.24" ry="261.86"/><ellipse class="cls-114" cx="1267.19" cy="-12.8" rx="334.24" ry="261.86"/><ellipse class="cls-115" cx="1283.95" cy="-13.74" rx="334.24" ry="261.86"/><ellipse class="cls-116" cx="1299.98" cy="-14.59" rx="334.24" ry="261.86"/><ellipse class="cls-117" cx="1315.31" cy="-15.29" rx="334.24" ry="261.86"/><ellipse class="cls-118" cx="1329.93" cy="-15.8" rx="334.24" ry="261.86"/><ellipse class="cls-119" cx="1343.85" cy="-16.09" rx="334.24" ry="261.86"/><ellipse class="cls-120" cx="1357.07" cy="-16.11" rx="334.24" ry="261.86"/><ellipse class="cls-121" cx="1369.62" cy="-15.84" rx="334.24" ry="261.86"/><ellipse class="cls-122" cx="1381.48" cy="-15.21" rx="334.24" ry="261.86"/><ellipse class="cls-123" cx="1392.67" cy="-14.21" rx="334.24" ry="261.86"/><ellipse class="cls-124" cx="1403.19" cy="-12.78" rx="334.24" ry="261.86"/><ellipse class="cls-125" cx="1413.05" cy="-10.89" rx="334.24" ry="261.86"/><ellipse class="cls-126" cx="1422.26" cy="-8.5" rx="334.24" ry="261.86"/><ellipse class="cls-127" cx="1430.82" cy="-5.57" rx="334.24" ry="261.86"/><ellipse class="cls-128" cx="1438.74" cy="-2.06" rx="334.24" ry="261.86"/><ellipse class="cls-129" cx="1446.03" cy="2.07" rx="334.24" ry="261.86"/><ellipse class="cls-130" cx="1452.69" cy="6.86" rx="334.24" ry="261.86"/><ellipse class="cls-131" cx="1458.73" cy="12.35" rx="334.24" ry="261.86"/><ellipse class="cls-132" cx="1465.32" cy="20.13" rx="334.24" ry="261.86"/><ellipse class="cls-133" cx="1471.27" cy="29.83" rx="334.24" ry="261.86"/><ellipse class="cls-134" cx="1475.64" cy="40.34" rx="334.24" ry="261.86"/><ellipse class="cls-135" cx="1478.52" cy="51.54" rx="334.24" ry="261.86"/><ellipse class="cls-136" cx="1479.96" cy="63.32" rx="334.24" ry="261.86"/><ellipse class="cls-137" cx="1480.03" cy="75.57" rx="334.24" ry="261.86"/><ellipse class="cls-138" cx="1478.8" cy="88.17" rx="334.24" ry="261.86"/><ellipse class="cls-139" cx="1476.33" cy="101.01" rx="334.24" ry="261.86"/><ellipse class="cls-140" cx="1472.7" cy="113.97" rx="334.24" ry="261.86"/><ellipse class="cls-141" cx="1467.96" cy="126.95" rx="334.24" ry="261.86"/><ellipse class="cls-142" cx="1462.19" cy="139.82" rx="334.24" ry="261.86"/><ellipse class="cls-143" cx="1455.45" cy="152.47" rx="334.24" ry="261.86"/><ellipse class="cls-144" cx="1447.81" cy="164.8" rx="334.24" ry="261.86"/><ellipse class="cls-145" cx="1439.33" cy="176.68" rx="334.24" ry="261.86"/><ellipse class="cls-146" cx="1430.09" cy="188" rx="334.24" ry="261.86"/><ellipse class="cls-147" cx="1420.14" cy="198.65" rx="334.24" ry="261.86"/><ellipse class="cls-148" cx="1409.55" cy="208.51" rx="334.24" ry="261.86"/><ellipse class="cls-149" cx="1400.5" cy="215.88" rx="334.24" ry="261.86"/><ellipse class="cls-150" cx="1393.77" cy="220.6" rx="334.24" ry="261.86"/><ellipse class="cls-151" cx="1386.48" cy="225.1" rx="334.24" ry="261.86"/><ellipse class="cls-152" cx="1378.65" cy="229.38" rx="334.24" ry="261.86"/><ellipse class="cls-153" cx="1370.29" cy="233.43" rx="334.24" ry="261.86"/><ellipse class="cls-154" cx="1361.4" cy="237.27" rx="334.24" ry="261.86"/><ellipse class="cls-155" cx="1352.01" cy="240.89" rx="334.24" ry="261.86"/><ellipse class="cls-156" cx="1342.11" cy="244.31" rx="334.24" ry="261.86"/><ellipse class="cls-157" cx="1331.72" cy="247.51" rx="334.24" ry="261.86"/><ellipse class="cls-158" cx="1320.86" cy="250.51" rx="334.24" ry="261.86"/><ellipse class="cls-159" cx="1309.52" cy="253.31" rx="334.24" ry="261.86"/><ellipse class="cls-160" cx="1297.73" cy="255.92" rx="334.24" ry="261.86"/><ellipse class="cls-161" cx="1285.49" cy="258.33" rx="334.24" ry="261.86"/><ellipse class="cls-162" cx="1272.81" cy="260.53" rx="334.24" ry="261.86"/><ellipse class="cls-163" cx="1259.7" cy="262.56" rx="334.24" ry="261.86"/><ellipse class="cls-164" cx="1246.18" cy="264.4" rx="334.24" ry="261.86"/><ellipse class="cls-165" cx="1232.25" cy="266.07" rx="334.24" ry="261.86"/><ellipse class="cls-166" cx="1217.93" cy="267.54" rx="334.24" ry="261.86"/><ellipse class="cls-167" cx="1203.22" cy="268.84" rx="334.24" ry="261.86"/><ellipse class="cls-168" cx="1188.14" cy="269.98" rx="334.24" ry="261.86"/><ellipse class="cls-169" cx="1172.69" cy="270.93" rx="334.24" ry="261.86"/><ellipse class="cls-170" cx="1156.89" cy="271.72" rx="334.24" ry="261.86"/><ellipse class="cls-171" cx="1140.75" cy="272.35" rx="334.24" ry="261.86"/><ellipse class="cls-172" cx="1124.28" cy="272.82" rx="334.24" ry="261.86"/><ellipse class="cls-173" cx="1107.48" cy="273.12" rx="334.24" ry="261.86"/><ellipse class="cls-174" cx="1090.38" cy="273.28" rx="334.24" ry="261.86"/><ellipse class="cls-175" cx="1072.97" cy="273.28" rx="334.24" ry="261.86"/><ellipse class="cls-176" cx="1055.27" cy="273.14" rx="334.24" ry="261.86"/><ellipse class="cls-177" cx="1037.3" cy="272.85" rx="334.24" ry="261.86"/><ellipse class="cls-178" cx="1019.05" cy="272.42" rx="334.24" ry="261.86"/><ellipse class="cls-179" cx="1000.55" cy="271.85" rx="334.24" ry="261.86"/><ellipse class="cls-180" cx="981.79" cy="271.14" rx="334.24" ry="261.86"/><ellipse class="cls-181" cx="962.81" cy="270.3" rx="334.24" ry="261.86"/><ellipse class="cls-182" cx="943.59" cy="269.33" rx="334.24" ry="261.86"/><ellipse class="cls-183" cx="924.16" cy="268.24" rx="334.24" ry="261.86"/><ellipse class="cls-184" cx="904.52" cy="267.02" rx="334.24" ry="261.86"/><ellipse class="cls-185" cx="884.69" cy="265.68" rx="334.24" ry="261.86"/><ellipse class="cls-186" cx="864.67" cy="264.23" rx="334.24" ry="261.86"/><ellipse class="cls-187" cx="844.48" cy="262.66" rx="334.24" ry="261.86"/><ellipse class="cls-188" cx="824.12" cy="260.98" rx="334.24" ry="261.86"/><ellipse class="cls-189" cx="803.61" cy="259.19" rx="334.24" ry="261.86"/><ellipse class="cls-190" cx="782.96" cy="257.3" rx="334.24" ry="261.86"/><ellipse class="cls-191" cx="762.18" cy="255.31" rx="334.24" ry="261.86"/><ellipse class="cls-192" cx="741.27" cy="253.22" rx="334.24" ry="261.86"/><ellipse class="cls-193" cx="720.26" cy="251.03" rx="334.24" ry="261.86"/><ellipse class="cls-194" cx="699.14" cy="248.75" rx="334.24" ry="261.86"/><ellipse class="cls-195" cx="677.94" cy="246.39" rx="334.24" ry="261.86"/><ellipse class="cls-196" cx="656.65" cy="243.93" rx="334.24" ry="261.86"/><ellipse class="cls-197" cx="635.3" cy="241.39" rx="334.24" ry="261.86"/><ellipse class="cls-198" cx="613.89" cy="238.79" rx="334.24" ry="261.86"/><ellipse class="cls-199" cx="592.43" cy="236.09" rx="334.24" ry="261.86"/><ellipse class="cls-200" cx="570.93" cy="233.33" rx="334.24" ry="261.86"/><ellipse class="cls-201" cx="549.41" cy="230.49" rx="334.24" ry="261.86"/><ellipse class="cls-202" cx="527.87" cy="227.59" rx="334.24" ry="261.86"/><ellipse class="cls-203" cx="506.32" cy="224.63" rx="334.24" ry="261.86"/><ellipse class="cls-204" cx="484.78" cy="221.6" rx="334.24" ry="261.86"/><ellipse class="cls-205" cx="463.25" cy="218.52" rx="334.24" ry="261.86"/><ellipse class="cls-206" cx="441.76" cy="215.38" rx="334.24" ry="261.86"/><ellipse class="cls-207" cx="420.29" cy="212.19" rx="334.24" ry="261.86"/><ellipse class="cls-208" cx="398.88" cy="208.95" rx="334.24" ry="261.86"/><ellipse class="cls-209" cx="377.52" cy="205.67" rx="334.24" ry="261.86"/><ellipse class="cls-210" cx="356.23" cy="202.34" rx="334.24" ry="261.86"/><ellipse class="cls-211" cx="335.02" cy="198.98" rx="334.24" ry="261.86"/><ellipse class="cls-212" cx="313.9" cy="195.58" rx="334.24" ry="261.86"/><ellipse class="cls-213" cx="292.87" cy="192.15" rx="334.24" ry="261.86"/><ellipse class="cls-214" cx="271.96" cy="188.68" rx="334.24" ry="261.86"/><ellipse class="cls-215" cx="251.17" cy="185.2" rx="334.24" ry="261.86"/><ellipse class="cls-216" cx="230.51" cy="181.69" rx="334.24" ry="261.86"/><ellipse class="cls-217" cx="209.99" cy="178.15" rx="334.24" ry="261.86"/><ellipse class="cls-218" cx="189.63" cy="174.61" rx="334.24" ry="261.86"/><ellipse class="cls-219" cx="169.43" cy="171.05" rx="334.24" ry="261.86"/><ellipse class="cls-220" cx="149.4" cy="167.48" rx="334.24" ry="261.86"/><ellipse class="cls-221" cx="129.55" cy="163.9" rx="334.24" ry="261.86"/><ellipse class="cls-222" cx="109.9" cy="160.31" rx="334.24" ry="261.86"/><ellipse class="cls-223" cx="90.46" cy="156.73" rx="334.24" ry="261.86"/><ellipse class="cls-224" cx="71.23" cy="153.14" rx="334.24" ry="261.86"/><ellipse class="cls-225" cx="52.22" cy="149.56" rx="334.24" ry="261.86"/><ellipse class="cls-226" cx="33.45" cy="145.99" rx="334.24" ry="261.86"/><ellipse class="cls-227" cx="14.93" cy="142.43" rx="334.24" ry="261.86"/><ellipse class="cls-228" cx="-3.33" cy="138.89" rx="334.24" ry="261.86"/><ellipse class="cls-229" cx="-21.32" cy="135.35" rx="334.24" ry="261.86"/><ellipse class="cls-230" cx="-39.04" cy="131.85" rx="334.24" ry="261.86"/><ellipse class="cls-231" cx="-56.46" cy="128.37" rx="334.24" ry="261.86"/><ellipse class="cls-232" cx="-73.59" cy="124.91" rx="334.24" ry="261.86"/><ellipse class="cls-233" cx="-90.41" cy="121.48" rx="334.24" ry="261.86"/><ellipse class="cls-234" cx="-106.9" cy="118.09" rx="334.24" ry="261.86"/><ellipse class="cls-235" cx="-123.06" cy="114.73" rx="334.24" ry="261.86"/><ellipse class="cls-236" cx="-138.88" cy="111.41" rx="334.24" ry="261.86"/><ellipse class="cls-237" cx="-154.35" cy="108.13" rx="334.24" ry="261.86"/><ellipse class="cls-238" cx="-169.46" cy="104.9" rx="334.24" ry="261.86"/><ellipse class="cls-239" cx="-184.19" cy="101.72" rx="334.24" ry="261.86"/><ellipse class="cls-240" cx="-198.54" cy="98.59" rx="334.24" ry="261.86"/><ellipse class="cls-241" cx="-212.49" cy="95.52" rx="334.24" ry="261.86"/><ellipse class="cls-242" cx="-226.04" cy="92.5" rx="334.24" ry="261.86"/><ellipse class="cls-243" cx="-239.17" cy="89.54" rx="334.24" ry="261.86"/><ellipse class="cls-244" cx="-251.88" cy="86.65" rx="334.24" ry="261.86"/><ellipse class="cls-245" cx="-264.15" cy="83.82" rx="334.24" ry="261.86"/><ellipse class="cls-246" cx="-275.97" cy="81.07" rx="334.24" ry="261.86"/><ellipse class="cls-247" cx="-287.34" cy="78.39" rx="334.24" ry="261.86"/><ellipse class="cls-248" cx="-298.23" cy="75.79" rx="334.24" ry="261.86"/><ellipse class="cls-249" cx="-308.65" cy="73.26" rx="334.24" ry="261.86"/><ellipse class="cls-250" cx="-318.58" cy="70.82" rx="334.24" ry="261.86"/><ellipse class="cls-251" cx="-328.01" cy="68.46" rx="334.24" ry="261.86"/></g></g><g id="Ball-2"><g class="cls-252"><ellipse class="cls-253" cx="911.57" cy="72.24" rx="334.24" ry="261.86"/><ellipse class="cls-254" cx="970.73" cy="57.68" rx="334.24" ry="261.86"/><ellipse class="cls-255" cx="1027.74" cy="42.91" rx="334.24" ry="261.86"/><ellipse class="cls-256" cx="1082.18" cy="27.98" rx="334.24" ry="261.86"/><ellipse class="cls-257" cx="1133.64" cy="12.92" rx="334.24" ry="261.86"/><ellipse class="cls-258" cx="1181.7" cy="-2.24" rx="334.24" ry="261.86"/><ellipse class="cls-259" cx="1225.97" cy="-17.47" rx="334.24" ry="261.86"/><ellipse class="cls-260" cx="1266.01" cy="-32.72" rx="334.24" ry="261.86"/><ellipse class="cls-261" cx="1301.43" cy="-47.97" rx="334.24" ry="261.86"/><ellipse class="cls-262" cx="1331.8" cy="-63.2" rx="334.24" ry="261.86"/><ellipse class="cls-263" cx="1356.71" cy="-78.35" rx="334.24" ry="261.86"/><ellipse class="cls-264" cx="1375.74" cy="-93.4" rx="334.24" ry="261.86"/><ellipse class="cls-265" cx="1388.5" cy="-108.32" rx="334.24" ry="261.86"/><ellipse class="cls-266" cx="1394.56" cy="-123.07" rx="334.24" ry="261.86"/><ellipse class="cls-267" cx="1392.67" cy="-139.97" rx="334.24" ry="261.86"/><ellipse class="cls-268" cx="1378.42" cy="-159.5" rx="334.24" ry="261.86"/><ellipse class="cls-269" cx="1353.01" cy="-177.76" rx="334.24" ry="261.86"/><ellipse class="cls-270" cx="1318.49" cy="-194.01" rx="334.24" ry="261.86"/><ellipse class="cls-271" cx="1276.88" cy="-207.52" rx="334.24" ry="261.86"/><ellipse class="cls-272" cx="1230.24" cy="-217.57" rx="334.24" ry="261.86"/><ellipse class="cls-273" cx="1180.6" cy="-223.4" rx="334.24" ry="261.86"/><ellipse class="cls-274" cx="1130" cy="-224.31" rx="334.24" ry="261.86"/><ellipse class="cls-275" cx="1077.25" cy="-219.13" rx="334.24" ry="261.86"/><ellipse class="cls-276" cx="1027.73" cy="-207.86" rx="334.24" ry="261.86"/><ellipse class="cls-277" cx="982.03" cy="-191.47" rx="334.24" ry="261.86"/><ellipse class="cls-278" cx="939.86" cy="-170.89" rx="334.24" ry="261.86"/><ellipse class="cls-279" cx="900.92" cy="-147.03" rx="334.24" ry="261.86"/><ellipse class="cls-280" cx="864.93" cy="-120.82" rx="334.24" ry="261.86"/><ellipse class="cls-281" cx="831.58" cy="-93.19" rx="334.24" ry="261.86"/><ellipse class="cls-282" cx="800.6" cy="-65.05" rx="334.24" ry="261.86"/><ellipse class="cls-283" cx="771.69" cy="-37.35" rx="334.24" ry="261.86"/><ellipse class="cls-284" cx="744.55" cy="-11" rx="334.24" ry="261.86"/><ellipse class="cls-285" cx="718.91" cy="13.07" rx="334.24" ry="261.86"/><ellipse class="cls-286" cx="694.46" cy="33.93" rx="334.24" ry="261.86"/><ellipse class="cls-287" cx="670.92" cy="50.66" rx="334.24" ry="261.86"/><ellipse class="cls-288" cx="647.99" cy="62.34" rx="334.24" ry="261.86"/><ellipse class="cls-289" cx="625.4" cy="68.05" rx="334.24" ry="261.86"/><ellipse class="cls-290" cx="602.85" cy="66.84" rx="334.24" ry="261.86"/><ellipse class="cls-291" cx="581.56" cy="58.65" rx="334.24" ry="261.86"/><ellipse class="cls-292" cx="561.66" cy="44.14" rx="334.24" ry="261.86"/><ellipse class="cls-293" cx="543.32" cy="24.03" rx="334.24" ry="261.86"/><ellipse class="cls-294" cx="526.74" cy="-1" rx="334.24" ry="261.86"/><ellipse class="cls-295" cx="512.11" cy="-30.22" rx="334.24" ry="261.86"/><ellipse class="cls-295" cx="499.62" cy="-62.93" rx="334.24" ry="261.86"/><ellipse class="cls-296" cx="489.45" cy="-98.44" rx="334.24" ry="261.86"/><ellipse class="cls-297" cx="481.8" cy="-136.02" rx="334.24" ry="261.86"/><ellipse class="cls-298" cx="476.85" cy="-174.99" rx="334.24" ry="261.86"/><ellipse class="cls-299" cx="474.79" cy="-214.61" rx="334.24" ry="261.86"/><ellipse class="cls-300" cx="475.81" cy="-254.22" rx="334.24" ry="261.86"/><ellipse class="cls-301" cx="1321.31" cy="-258.4" rx="334.24" ry="261.86"/><ellipse class="cls-302" cx="1357.7" cy="-256.05" rx="334.24" ry="261.86"/><ellipse class="cls-303" cx="1392.56" cy="-258.56" rx="334.24" ry="261.86"/></g></g></g></svg>